<?xml version="1.0" standalone="no"?>
<!DOCTYPE svg PUBLIC "-//W3C//DTD SVG 1.1//EN" "http://www.w3.org/Graphics/SVG/1.1/DTD/svg11.dtd">
<svg width="174.7mm" height="174.7mm"
 viewBox="0 0 174.7 174.7"
 xmlns="http://www.w3.org/2000/svg" version="1.1"
 xmlns:xlink="http://www.w3.org/1999/xlink">
<desc>Output from Flights of Ideas SVG Sketchup Plugin</desc>

  <g id="face0" fill="none" stroke="rgb(0,0,255)" stroke-width="1">
    <line x1="81.3500000000001" y1="49.9649965564971" x2="78.9865853658537" y2="50.179268292683"/>
    <line x1="78.9865853658537" y1="50.179268292683" x2="69.6510685226644" y2="53.6104412512468"/>
    <line x1="69.6510685226644" y1="53.6104412512468" x2="65.2195461136957" y2="56.734264739457"/>
    <line x1="65.2195461136957" y1="56.734264739457" x2="41.1405718494592" y2="32.6552904752206"/>
    <line x1="41.1405718494592" y1="32.6552904752206" x2="39.8979311623399" y2="31.7017787396332"/>
    <line x1="39.8979311623399" y1="31.7017787396332" x2="38.450845432955" y2="31.1023762046054"/>
    <line x1="38.450845432955" y1="31.1023762046054" x2="36.8979311623399" y2="30.8979311623398"/>
    <line x1="36.8979311623399" y1="30.8979311623398" x2="35.3450168917248" y2="31.1023762046054"/>
    <line x1="35.3450168917248" y1="31.1023762046054" x2="33.8979311623399" y2="31.7017787396332"/>
    <line x1="33.8979311623399" y1="31.7017787396332" x2="32.6552904752206" y2="32.6552904752206"/>
    <line x1="32.6552904752206" y1="32.6552904752206" x2="31.7017787396332" y2="33.8979311623398"/>
    <line x1="31.7017787396332" y1="33.8979311623398" x2="31.1023762046054" y2="35.3450168917248"/>
    <line x1="31.1023762046054" y1="35.3450168917248" x2="30.8979311623399" y2="36.8979311623399"/>
    <line x1="30.8979311623399" y1="36.8979311623399" x2="31.1023762046054" y2="38.450845432955"/>
    <line x1="31.1023762046054" y1="38.450845432955" x2="31.7017787396332" y2="39.8979311623399"/>
    <line x1="31.7017787396332" y1="39.8979311623399" x2="32.6552904752206" y2="41.1405718494592"/>
    <line x1="32.6552904752206" y1="41.1405718494592" x2="56.6721698632974" y2="65.1574512375359"/>
    <line x1="56.6721698632974" y1="65.1574512375359" x2="55.1524963464107" y2="66.98015074977"/>
    <line x1="55.1524963464107" y1="66.98015074977" x2="50.9774947471346" y2="76.0075636818948"/>
    <line x1="50.9774947471346" y1="76.0075636818948" x2="50.0528119725159" y2="81.35"/>
    <line x1="50.0528119725159" y1="81.35" x2="16.0" y2="81.35"/>
    <line x1="16.0" y1="81.35" x2="14.4470857293849" y2="81.5544450422656"/>
    <line x1="14.4470857293849" y1="81.5544450422656" x2="13.0" y2="82.1538475772933"/>
    <line x1="13.0" y1="82.1538475772933" x2="11.7573593128807" y2="83.1073593128807"/>
    <line x1="11.7573593128807" y1="83.1073593128807" x2="10.8038475772934" y2="84.35"/>
    <line x1="10.8038475772934" y1="84.35" x2="10.2044450422656" y2="85.7970857293849"/>
    <line x1="10.2044450422656" y1="85.7970857293849" x2="10.0" y2="87.35"/>
    <line x1="10.0" y1="87.35" x2="10.2044450422656" y2="88.9029142706152"/>
    <line x1="10.2044450422656" y1="88.9029142706152" x2="10.8038475772934" y2="90.3500000000001"/>
    <line x1="10.8038475772934" y1="90.3500000000001" x2="11.7573593128807" y2="91.5926406871193"/>
    <line x1="11.7573593128807" y1="91.5926406871193" x2="13.0" y2="92.5461524227067"/>
    <line x1="13.0" y1="92.5461524227067" x2="14.4470857293849" y2="93.1455549577345"/>
    <line x1="14.4470857293849" y1="93.1455549577345" x2="16.0" y2="93.3500000000001"/>
    <line x1="16.0" y1="93.3500000000001" x2="49.964996556497" y2="93.3500000000001"/>
    <line x1="49.964996556497" y1="93.3500000000001" x2="50.179268292683" y2="95.7134146341464"/>
    <line x1="50.179268292683" y1="95.7134146341464" x2="53.6104412512467" y2="105.048931477336"/>
    <line x1="53.6104412512467" y1="105.048931477336" x2="56.734264739457" y2="109.480453886304"/>
    <line x1="56.734264739457" y1="109.480453886304" x2="32.6552904752206" y2="133.559428150541"/>
    <line x1="32.6552904752206" y1="133.559428150541" x2="31.7017787396332" y2="134.80206883766"/>
    <line x1="31.7017787396332" y1="134.80206883766" x2="31.1023762046054" y2="136.249154567045"/>
    <line x1="31.1023762046054" y1="136.249154567045" x2="30.8979311623398" y2="137.80206883766"/>
    <line x1="30.8979311623398" y1="137.80206883766" x2="31.1023762046054" y2="139.354983108275"/>
    <line x1="31.1023762046054" y1="139.354983108275" x2="31.7017787396332" y2="140.80206883766"/>
    <line x1="31.7017787396332" y1="140.80206883766" x2="32.6552904752206" y2="142.04470952478"/>
    <line x1="32.6552904752206" y1="142.04470952478" x2="33.8979311623399" y2="142.998221260367"/>
    <line x1="33.8979311623399" y1="142.998221260367" x2="35.3450168917248" y2="143.597623795395"/>
    <line x1="35.3450168917248" y1="143.597623795395" x2="36.8979311623399" y2="143.80206883766"/>
    <line x1="36.8979311623399" y1="143.80206883766" x2="38.450845432955" y2="143.597623795395"/>
    <line x1="38.450845432955" y1="143.597623795395" x2="39.8979311623399" y2="142.998221260367"/>
    <line x1="39.8979311623399" y1="142.998221260367" x2="41.1405718494592" y2="142.04470952478"/>
    <line x1="41.1405718494592" y1="142.04470952478" x2="65.1574512375359" y2="118.027830136703"/>
    <line x1="65.1574512375359" y1="118.027830136703" x2="66.98015074977" y2="119.547503653589"/>
    <line x1="66.98015074977" y1="119.547503653589" x2="76.0075636818948" y2="123.722505252866"/>
    <line x1="76.0075636818948" y1="123.722505252866" x2="81.3499999999999" y2="124.647188027484"/>
    <line x1="81.3499999999999" y1="124.647188027484" x2="81.35" y2="158.7"/>
    <line x1="81.35" y1="158.7" x2="81.5544450422656" y2="160.252914270615"/>
    <line x1="81.5544450422656" y1="160.252914270615" x2="82.1538475772933" y2="161.7"/>
    <line x1="82.1538475772933" y1="161.7" x2="83.1073593128807" y2="162.942640687119"/>
    <line x1="83.1073593128807" y1="162.942640687119" x2="84.35" y2="163.896152422707"/>
    <line x1="84.35" y1="163.896152422707" x2="85.7970857293849" y2="164.495554957734"/>
    <line x1="85.7970857293849" y1="164.495554957734" x2="87.35" y2="164.7"/>
    <line x1="87.35" y1="164.7" x2="88.9029142706151" y2="164.495554957734"/>
    <line x1="88.9029142706151" y1="164.495554957734" x2="90.35" y2="163.896152422707"/>
    <line x1="90.35" y1="163.896152422707" x2="91.5926406871193" y2="162.942640687119"/>
    <line x1="91.5926406871193" y1="162.942640687119" x2="92.5461524227067" y2="161.7"/>
    <line x1="92.5461524227067" y1="161.7" x2="93.1455549577344" y2="160.252914270615"/>
    <line x1="93.1455549577344" y1="160.252914270615" x2="93.3500000000001" y2="158.7"/>
    <line x1="93.3500000000001" y1="158.7" x2="93.3500000000001" y2="124.735003443503"/>
    <line x1="93.3500000000001" y1="124.735003443503" x2="95.7134146341464" y2="124.520731707317"/>
    <line x1="95.7134146341464" y1="124.520731707317" x2="105.048931477336" y2="121.089558748753"/>
    <line x1="105.048931477336" y1="121.089558748753" x2="109.480453886304" y2="117.965735260543"/>
    <line x1="109.480453886304" y1="117.965735260543" x2="133.559428150541" y2="142.04470952478"/>
    <line x1="133.559428150541" y1="142.04470952478" x2="134.80206883766" y2="142.998221260367"/>
    <line x1="134.80206883766" y1="142.998221260367" x2="136.249154567045" y2="143.597623795395"/>
    <line x1="136.249154567045" y1="143.597623795395" x2="137.80206883766" y2="143.80206883766"/>
    <line x1="137.80206883766" y1="143.80206883766" x2="139.354983108275" y2="143.597623795395"/>
    <line x1="139.354983108275" y1="143.597623795395" x2="140.80206883766" y2="142.998221260367"/>
    <line x1="140.80206883766" y1="142.998221260367" x2="142.04470952478" y2="142.04470952478"/>
    <line x1="142.04470952478" y1="142.04470952478" x2="142.998221260367" y2="140.80206883766"/>
    <line x1="142.998221260367" y1="140.80206883766" x2="143.597623795395" y2="139.354983108275"/>
    <line x1="143.597623795395" y1="139.354983108275" x2="143.80206883766" y2="137.80206883766"/>
    <line x1="143.80206883766" y1="137.80206883766" x2="143.597623795395" y2="136.249154567045"/>
    <line x1="143.597623795395" y1="136.249154567045" x2="142.998221260367" y2="134.80206883766"/>
    <line x1="142.998221260367" y1="134.80206883766" x2="142.04470952478" y2="133.559428150541"/>
    <line x1="142.04470952478" y1="133.559428150541" x2="118.027830136703" y2="109.542548762464"/>
    <line x1="118.027830136703" y1="109.542548762464" x2="119.547503653589" y2="107.71984925023"/>
    <line x1="119.547503653589" y1="107.71984925023" x2="123.722505252866" y2="98.6924363181053"/>
    <line x1="123.722505252866" y1="98.6924363181053" x2="124.647188027484" y2="93.3500000000001"/>
    <line x1="124.647188027484" y1="93.3500000000001" x2="158.7" y2="93.3500000000001"/>
    <line x1="158.7" y1="93.3500000000001" x2="160.252914270615" y2="93.1455549577345"/>
    <line x1="160.252914270615" y1="93.1455549577345" x2="161.7" y2="92.5461524227068"/>
    <line x1="161.7" y1="92.5461524227068" x2="162.942640687119" y2="91.5926406871194"/>
    <line x1="162.942640687119" y1="91.5926406871194" x2="163.896152422707" y2="90.3500000000001"/>
    <line x1="163.896152422707" y1="90.3500000000001" x2="164.495554957735" y2="88.9029142706152"/>
    <line x1="164.495554957735" y1="88.9029142706152" x2="164.7" y2="87.3500000000001"/>
    <line x1="164.7" y1="87.3500000000001" x2="164.495554957735" y2="85.7970857293849"/>
    <line x1="164.495554957735" y1="85.7970857293849" x2="163.896152422707" y2="84.3500000000001"/>
    <line x1="163.896152422707" y1="84.3500000000001" x2="162.942640687119" y2="83.1073593128808"/>
    <line x1="162.942640687119" y1="83.1073593128808" x2="161.7" y2="82.1538475772934"/>
    <line x1="161.7" y1="82.1538475772934" x2="160.252914270615" y2="81.5544450422656"/>
    <line x1="160.252914270615" y1="81.5544450422656" x2="158.7" y2="81.3500000000001"/>
    <line x1="158.7" y1="81.3500000000001" x2="124.735003443503" y2="81.3500000000001"/>
    <line x1="124.735003443503" y1="81.3500000000001" x2="124.520731707317" y2="78.9865853658537"/>
    <line x1="124.520731707317" y1="78.9865853658537" x2="121.089558748753" y2="69.6510685226644"/>
    <line x1="121.089558748753" y1="69.6510685226644" x2="117.965735260543" y2="65.2195461136957"/>
    <line x1="117.965735260543" y1="65.2195461136957" x2="142.04470952478" y2="41.1405718494592"/>
    <line x1="142.04470952478" y1="41.1405718494592" x2="142.998221260367" y2="39.8979311623399"/>
    <line x1="142.998221260367" y1="39.8979311623399" x2="143.597623795395" y2="38.450845432955"/>
    <line x1="143.597623795395" y1="38.450845432955" x2="143.80206883766" y2="36.8979311623398"/>
    <line x1="143.80206883766" y1="36.8979311623398" x2="143.597623795395" y2="35.3450168917247"/>
    <line x1="143.597623795395" y1="35.3450168917247" x2="142.998221260367" y2="33.8979311623398"/>
    <line x1="142.998221260367" y1="33.8979311623398" x2="142.04470952478" y2="32.6552904752205"/>
    <line x1="142.04470952478" y1="32.6552904752205" x2="140.80206883766" y2="31.7017787396332"/>
    <line x1="140.80206883766" y1="31.7017787396332" x2="139.354983108275" y2="31.1023762046054"/>
    <line x1="139.354983108275" y1="31.1023762046054" x2="137.80206883766" y2="30.8979311623398"/>
    <line x1="137.80206883766" y1="30.8979311623398" x2="136.249154567045" y2="31.1023762046054"/>
    <line x1="136.249154567045" y1="31.1023762046054" x2="134.80206883766" y2="31.7017787396332"/>
    <line x1="134.80206883766" y1="31.7017787396332" x2="133.559428150541" y2="32.6552904752205"/>
    <line x1="133.559428150541" y1="32.6552904752205" x2="109.542548762464" y2="56.6721698632974"/>
    <line x1="109.542548762464" y1="56.6721698632974" x2="107.71984925023" y2="55.1524963464107"/>
    <line x1="107.71984925023" y1="55.1524963464107" x2="98.6924363181054" y2="50.9774947471346"/>
    <line x1="98.6924363181054" y1="50.9774947471346" x2="93.3500000000002" y2="50.0528119725159"/>
    <line x1="93.3500000000002" y1="50.0528119725159" x2="93.3500000000002" y2="16.0"/>
    <line x1="93.3500000000002" y1="16.0" x2="93.1455549577346" y2="14.4470857293849"/>
    <line x1="93.1455549577346" y1="14.4470857293849" x2="92.5461524227068" y2="13.0"/>
    <line x1="92.5461524227068" y1="13.0" x2="91.5926406871195" y2="11.7573593128807"/>
    <line x1="91.5926406871195" y1="11.7573593128807" x2="90.3500000000002" y2="10.8038475772934"/>
    <line x1="90.3500000000002" y1="10.8038475772934" x2="88.9029142706153" y2="10.2044450422656"/>
    <line x1="88.9029142706153" y1="10.2044450422656" x2="87.3500000000002" y2="10.0"/>
    <line x1="87.3500000000002" y1="10.0" x2="85.797085729385" y2="10.2044450422656"/>
    <line x1="85.797085729385" y1="10.2044450422656" x2="84.3500000000001" y2="10.8038475772934"/>
    <line x1="84.3500000000001" y1="10.8038475772934" x2="83.1073593128808" y2="11.7573593128807"/>
    <line x1="83.1073593128808" y1="11.7573593128807" x2="82.1538475772935" y2="13.0"/>
    <line x1="82.1538475772935" y1="13.0" x2="81.5544450422657" y2="14.4470857293849"/>
    <line x1="81.5544450422657" y1="14.4470857293849" x2="81.3500000000001" y2="16.0"/>
    <line x1="81.3500000000001" y1="16.0" x2="81.3500000000001" y2="49.9649965564971"/>
    <line x1="109.94206165891" y1="66.4549946159376" x2="109.817797590198" y2="66.5503457894963"/>
    <line x1="109.817797590198" y1="66.5503457894963" x2="109.693533521487" y2="66.6456969630551"/>
    <line x1="109.693533521487" y1="66.6456969630551" x2="109.40411637561" y2="66.7655774700606"/>
    <line x1="109.40411637561" y1="66.7655774700606" x2="109.093533521487" y2="66.8064664785137"/>
    <line x1="109.093533521487" y1="66.8064664785137" x2="108.782950667363" y2="66.7655774700606"/>
    <line x1="108.782950667363" y1="66.7655774700606" x2="108.493533521487" y2="66.6456969630551"/>
    <line x1="108.493533521487" y1="66.6456969630551" x2="108.245005384063" y2="66.4549946159376"/>
    <line x1="108.245005384063" y1="66.4549946159376" x2="108.054303036945" y2="66.2064664785137"/>
    <line x1="108.054303036945" y1="66.2064664785137" x2="107.93442252994" y2="65.9170493326368"/>
    <line x1="107.93442252994" y1="65.9170493326368" x2="107.893533521487" y2="65.6064664785137"/>
    <line x1="107.893533521487" y1="65.6064664785137" x2="107.93442252994" y2="65.2958836243907"/>
    <line x1="107.93442252994" y1="65.2958836243907" x2="108.054303036945" y2="65.0064664785137"/>
    <line x1="108.054303036945" y1="65.0064664785137" x2="108.149654210504" y2="64.8822024098018"/>
    <line x1="108.149654210504" y1="64.8822024098018" x2="108.245005384063" y2="64.7579383410899"/>
    <line x1="108.245005384063" y1="64.7579383410899" x2="108.493533521487" y2="64.5672359939724"/>
    <line x1="108.493533521487" y1="64.5672359939724" x2="108.782950667363" y2="64.4473554869668"/>
    <line x1="108.782950667363" y1="64.4473554869668" x2="109.093533521487" y2="64.4064664785137"/>
    <line x1="109.093533521487" y1="64.4064664785137" x2="109.40411637561" y2="64.4473554869668"/>
    <line x1="109.40411637561" y1="64.4473554869668" x2="109.693533521487" y2="64.5672359939724"/>
    <line x1="109.693533521487" y1="64.5672359939724" x2="109.94206165891" y2="64.7579383410899"/>
    <line x1="109.94206165891" y1="64.7579383410899" x2="110.132764006028" y2="65.0064664785137"/>
    <line x1="110.132764006028" y1="65.0064664785137" x2="110.252644513033" y2="65.2958836243907"/>
    <line x1="110.252644513033" y1="65.2958836243907" x2="110.293533521487" y2="65.6064664785137"/>
    <line x1="110.293533521487" y1="65.6064664785137" x2="110.252644513033" y2="65.9170493326368"/>
    <line x1="110.252644513033" y1="65.9170493326368" x2="110.132764006028" y2="66.2064664785137"/>
    <line x1="110.132764006028" y1="66.2064664785137" x2="109.94206165891" y2="66.4549946159376"/>
    <line x1="90.5630927000375" y1="63.566055093804" x2="96.6093471306197" y2="65.2080829485185"/>
    <line x1="96.6093471306197" y1="65.2080829485185" x2="102.024592356045" y2="68.3590458590435"/>
    <line x1="102.024592356045" y1="68.3590458590435" x2="106.439788363316" y2="72.804210910239"/>
    <line x1="106.439788363316" y1="72.804210910239" x2="109.554046840994" y2="78.2406474498487"/>
    <line x1="109.554046840994" y1="78.2406474498487" x2="111.155136220381" y2="84.2978713118344"/>
    <line x1="111.155136220381" y1="84.2978713118344" x2="111.155136220381" y2="90.5631285383968"/>
    <line x1="111.155136220381" y1="90.5631285383968" x2="109.513108365666" y2="96.609382968979"/>
    <line x1="109.513108365666" y1="96.609382968979" x2="106.362145455141" y2="102.024628194404"/>
    <line x1="106.362145455141" y1="102.024628194404" x2="101.916980403946" y2="106.439824201675"/>
    <line x1="101.916980403946" y1="106.439824201675" x2="96.4805438643361" y2="109.554082679353"/>
    <line x1="96.4805438643361" y1="109.554082679353" x2="90.4233200023504" y2="111.15517205874"/>
    <line x1="90.4233200023504" y1="111.15517205874" x2="84.1580986141474" y2="111.133980744555"/>
    <line x1="84.1580986141474" y1="111.133980744555" x2="78.1118441835652" y2="109.491952889841"/>
    <line x1="78.1118441835652" y1="109.491952889841" x2="72.6965989581401" y2="106.340989979316"/>
    <line x1="72.6965989581401" y1="106.340989979316" x2="68.2814029508689" y2="101.89582492812"/>
    <line x1="68.2814029508689" y1="101.89582492812" x2="65.1671444731909" y2="96.4593883885107"/>
    <line x1="65.1671444731909" y1="96.4593883885107" x2="63.5660550938042" y2="90.402164526525"/>
    <line x1="63.5660550938042" y1="90.402164526525" x2="63.5660550938042" y2="84.1369072999626"/>
    <line x1="63.5660550938042" y1="84.1369072999626" x2="65.2080829485187" y2="78.0906528693803"/>
    <line x1="65.2080829485187" y1="78.0906528693803" x2="68.3590458590436" y2="72.6754076439552"/>
    <line x1="68.3590458590436" y1="72.6754076439552" x2="72.8042109102391" y2="68.2602116366841"/>
    <line x1="72.8042109102391" y1="68.2602116366841" x2="78.2406474498488" y2="65.145953159006"/>
    <line x1="78.2406474498488" y1="65.145953159006" x2="84.2978713118345" y2="63.5448637796193"/>
    <line x1="84.2978713118345" y1="63.5448637796193" x2="90.5630927000375" y2="63.566055093804"/>
    <line x1="117.060769515459" y1="86.7499999999999" x2="117.251471862576" y2="86.501471862576"/>
    <line x1="117.251471862576" y1="86.501471862576" x2="117.5" y2="86.3107695154586"/>
    <line x1="117.5" y1="86.3107695154586" x2="117.789417145877" y2="86.190889008453"/>
    <line x1="117.789417145877" y1="86.190889008453" x2="117.944708572939" y2="86.1704445042264"/>
    <line x1="117.944708572939" y1="86.1704445042264" x2="118.1" y2="86.1499999999999"/>
    <line x1="118.1" y1="86.1499999999999" x2="118.410582854123" y2="86.190889008453"/>
    <line x1="118.410582854123" y1="86.190889008453" x2="118.7" y2="86.3107695154586"/>
    <line x1="118.7" y1="86.3107695154586" x2="118.948528137424" y2="86.501471862576"/>
    <line x1="118.948528137424" y1="86.501471862576" x2="119.139230484542" y2="86.7499999999999"/>
    <line x1="119.139230484542" y1="86.7499999999999" x2="119.259110991547" y2="87.0394171458769"/>
    <line x1="119.259110991547" y1="87.0394171458769" x2="119.3" y2="87.3499999999999"/>
    <line x1="119.3" y1="87.3499999999999" x2="119.259110991547" y2="87.6605828541229"/>
    <line x1="119.259110991547" y1="87.6605828541229" x2="119.139230484542" y2="87.9499999999999"/>
    <line x1="119.139230484542" y1="87.9499999999999" x2="118.948528137424" y2="88.1985281374238"/>
    <line x1="118.948528137424" y1="88.1985281374238" x2="118.7" y2="88.3892304845412"/>
    <line x1="118.7" y1="88.3892304845412" x2="118.410582854123" y2="88.5091109915468"/>
    <line x1="118.410582854123" y1="88.5091109915468" x2="118.1" y2="88.5499999999999"/>
    <line x1="118.1" y1="88.5499999999999" x2="117.944708572939" y2="88.5295554957733"/>
    <line x1="117.944708572939" y1="88.5295554957733" x2="117.789417145877" y2="88.5091109915468"/>
    <line x1="117.789417145877" y1="88.5091109915468" x2="117.5" y2="88.3892304845412"/>
    <line x1="117.5" y1="88.3892304845412" x2="117.251471862576" y2="88.1985281374238"/>
    <line x1="117.251471862576" y1="88.1985281374238" x2="117.060769515459" y2="87.9499999999999"/>
    <line x1="117.060769515459" y1="87.9499999999999" x2="116.940889008453" y2="87.6605828541229"/>
    <line x1="116.940889008453" y1="87.6605828541229" x2="116.9" y2="87.3499999999999"/>
    <line x1="116.9" y1="87.3499999999999" x2="116.940889008453" y2="87.0394171458769"/>
    <line x1="116.940889008453" y1="87.0394171458769" x2="117.060769515459" y2="86.7499999999999"/>
    <line x1="139.39305909533" y1="38.4889214200094" x2="139.160063966495" y2="38.6677048704321"/>
    <line x1="139.160063966495" y1="38.6677048704321" x2="138.92706883766" y2="38.8464883208547"/>
    <line x1="138.92706883766" y1="38.8464883208547" x2="138.384411689141" y2="39.0712642714901"/>
    <line x1="138.384411689141" y1="39.0712642714901" x2="137.80206883766" y2="39.1479311623397"/>
    <line x1="137.80206883766" y1="39.1479311623397" x2="137.21972598618" y2="39.0712642714901"/>
    <line x1="137.21972598618" y1="39.0712642714901" x2="136.67706883766" y2="38.8464883208547"/>
    <line x1="136.67706883766" y1="38.8464883208547" x2="136.211078579991" y2="38.4889214200094"/>
    <line x1="136.211078579991" y1="38.4889214200094" x2="135.853511679145" y2="38.0229311623397"/>
    <line x1="135.853511679145" y1="38.0229311623397" x2="135.62873572851" y2="37.4802740138204"/>
    <line x1="135.62873572851" y1="37.4802740138204" x2="135.55206883766" y2="36.8979311623397"/>
    <line x1="135.55206883766" y1="36.8979311623397" x2="135.62873572851" y2="36.315588310859"/>
    <line x1="135.62873572851" y1="36.315588310859" x2="135.853511679145" y2="35.7729311623397"/>
    <line x1="135.853511679145" y1="35.7729311623397" x2="136.032295129568" y2="35.5399360335049"/>
    <line x1="136.032295129568" y1="35.5399360335049" x2="136.211078579991" y2="35.30694090467"/>
    <line x1="136.211078579991" y1="35.30694090467" x2="136.67706883766" y2="34.9493740038247"/>
    <line x1="136.67706883766" y1="34.9493740038247" x2="137.21972598618" y2="34.7245980531893"/>
    <line x1="137.21972598618" y1="34.7245980531893" x2="137.80206883766" y2="34.6479311623397"/>
    <line x1="137.80206883766" y1="34.6479311623397" x2="138.384411689141" y2="34.7245980531893"/>
    <line x1="138.384411689141" y1="34.7245980531893" x2="138.92706883766" y2="34.9493740038247"/>
    <line x1="138.92706883766" y1="34.9493740038247" x2="139.39305909533" y2="35.30694090467"/>
    <line x1="139.39305909533" y1="35.30694090467" x2="139.750625996175" y2="35.7729311623397"/>
    <line x1="139.750625996175" y1="35.7729311623397" x2="139.975401946811" y2="36.315588310859"/>
    <line x1="139.975401946811" y1="36.315588310859" x2="140.05206883766" y2="36.8979311623397"/>
    <line x1="140.05206883766" y1="36.8979311623397" x2="139.975401946811" y2="37.4802740138204"/>
    <line x1="139.975401946811" y1="37.4802740138204" x2="139.750625996175" y2="38.0229311623397"/>
    <line x1="139.750625996175" y1="38.0229311623397" x2="139.39305909533" y2="38.4889214200094"/>
    <line x1="158.7" y1="89.5999999999998" x2="158.40882857426" y2="89.561666554575"/>
    <line x1="158.40882857426" y1="89.561666554575" x2="158.117657148519" y2="89.5233331091502"/>
    <line x1="158.117657148519" y1="89.5233331091502" x2="157.575" y2="89.2985571585148"/>
    <line x1="157.575" y1="89.2985571585148" x2="157.10900974233" y2="88.9409902576696"/>
    <line x1="157.10900974233" y1="88.9409902576696" x2="156.751442841485" y2="88.4749999999999"/>
    <line x1="156.751442841485" y1="88.4749999999999" x2="156.52666689085" y2="87.9323428514805"/>
    <line x1="156.52666689085" y1="87.9323428514805" x2="156.45" y2="87.3499999999999"/>
    <line x1="156.45" y1="87.3499999999999" x2="156.52666689085" y2="86.7676571485192"/>
    <line x1="156.52666689085" y1="86.7676571485192" x2="156.751442841485" y2="86.2249999999999"/>
    <line x1="156.751442841485" y1="86.2249999999999" x2="157.10900974233" y2="85.7590097423301"/>
    <line x1="157.10900974233" y1="85.7590097423301" x2="157.575" y2="85.4014428414849"/>
    <line x1="157.575" y1="85.4014428414849" x2="158.11765714852" y2="85.1766668908494"/>
    <line x1="158.11765714852" y1="85.1766668908494" x2="158.40882857426" y2="85.1383334454246"/>
    <line x1="158.40882857426" y1="85.1383334454246" x2="158.7" y2="85.0999999999998"/>
    <line x1="158.7" y1="85.0999999999998" x2="159.282342851481" y2="85.1766668908494"/>
    <line x1="159.282342851481" y1="85.1766668908494" x2="159.825" y2="85.4014428414849"/>
    <line x1="159.825" y1="85.4014428414849" x2="160.29099025767" y2="85.7590097423301"/>
    <line x1="160.29099025767" y1="85.7590097423301" x2="160.648557158515" y2="86.2249999999998"/>
    <line x1="160.648557158515" y1="86.2249999999998" x2="160.873333109151" y2="86.7676571485191"/>
    <line x1="160.873333109151" y1="86.7676571485191" x2="160.95" y2="87.3499999999998"/>
    <line x1="160.95" y1="87.3499999999998" x2="160.873333109151" y2="87.9323428514805"/>
    <line x1="160.873333109151" y1="87.9323428514805" x2="160.648557158515" y2="88.4749999999998"/>
    <line x1="160.648557158515" y1="88.4749999999998" x2="160.29099025767" y2="88.9409902576696"/>
    <line x1="160.29099025767" y1="88.9409902576696" x2="159.825" y2="89.2985571585148"/>
    <line x1="159.825" y1="89.2985571585148" x2="159.282342851481" y2="89.5233331091502"/>
    <line x1="159.282342851481" y1="89.5233331091502" x2="158.7" y2="89.5999999999998"/>
    <line x1="136.211078579991" y1="139.39305909533" x2="136.032295129568" y2="139.160063966495"/>
    <line x1="136.032295129568" y1="139.160063966495" x2="135.853511679145" y2="138.92706883766"/>
    <line x1="135.853511679145" y1="138.92706883766" x2="135.62873572851" y2="138.384411689141"/>
    <line x1="135.62873572851" y1="138.384411689141" x2="135.55206883766" y2="137.80206883766"/>
    <line x1="135.55206883766" y1="137.80206883766" x2="135.62873572851" y2="137.219725986179"/>
    <line x1="135.62873572851" y1="137.219725986179" x2="135.853511679145" y2="136.67706883766"/>
    <line x1="135.853511679145" y1="136.67706883766" x2="136.211078579991" y2="136.21107857999"/>
    <line x1="136.211078579991" y1="136.21107857999" x2="136.67706883766" y2="135.853511679145"/>
    <line x1="136.67706883766" y1="135.853511679145" x2="137.21972598618" y2="135.62873572851"/>
    <line x1="137.21972598618" y1="135.62873572851" x2="137.80206883766" y2="135.55206883766"/>
    <line x1="137.80206883766" y1="135.55206883766" x2="138.384411689141" y2="135.62873572851"/>
    <line x1="138.384411689141" y1="135.62873572851" x2="138.92706883766" y2="135.853511679145"/>
    <line x1="138.92706883766" y1="135.853511679145" x2="139.160063966495" y2="136.032295129568"/>
    <line x1="139.160063966495" y1="136.032295129568" x2="139.39305909533" y2="136.21107857999"/>
    <line x1="139.39305909533" y1="136.21107857999" x2="139.750625996175" y2="136.67706883766"/>
    <line x1="139.750625996175" y1="136.67706883766" x2="139.975401946811" y2="137.219725986179"/>
    <line x1="139.975401946811" y1="137.219725986179" x2="140.05206883766" y2="137.80206883766"/>
    <line x1="140.05206883766" y1="137.80206883766" x2="139.975401946811" y2="138.384411689141"/>
    <line x1="139.975401946811" y1="138.384411689141" x2="139.750625996175" y2="138.92706883766"/>
    <line x1="139.750625996175" y1="138.92706883766" x2="139.39305909533" y2="139.39305909533"/>
    <line x1="139.39305909533" y1="139.39305909533" x2="138.92706883766" y2="139.750625996175"/>
    <line x1="138.92706883766" y1="139.750625996175" x2="138.384411689141" y2="139.97540194681"/>
    <line x1="138.384411689141" y1="139.97540194681" x2="137.80206883766" y2="140.05206883766"/>
    <line x1="137.80206883766" y1="140.05206883766" x2="137.21972598618" y2="139.97540194681"/>
    <line x1="137.21972598618" y1="139.97540194681" x2="136.67706883766" y2="139.750625996175"/>
    <line x1="136.67706883766" y1="139.750625996175" x2="136.211078579991" y2="139.39305909533"/>
    <line x1="85.1000000000002" y1="158.7" x2="85.138333445425" y2="158.40882857426"/>
    <line x1="85.138333445425" y1="158.40882857426" x2="85.1766668908498" y2="158.117657148519"/>
    <line x1="85.1766668908498" y1="158.117657148519" x2="85.4014428414852" y2="157.575"/>
    <line x1="85.4014428414852" y1="157.575" x2="85.7590097423305" y2="157.10900974233"/>
    <line x1="85.7590097423305" y1="157.10900974233" x2="86.2250000000002" y2="156.751442841485"/>
    <line x1="86.2250000000002" y1="156.751442841485" x2="86.7676571485196" y2="156.526666890849"/>
    <line x1="86.7676571485196" y1="156.526666890849" x2="87.3500000000002" y2="156.45"/>
    <line x1="87.3500000000002" y1="156.45" x2="87.9323428514809" y2="156.526666890849"/>
    <line x1="87.9323428514809" y1="156.526666890849" x2="88.4750000000002" y2="156.751442841485"/>
    <line x1="88.4750000000002" y1="156.751442841485" x2="88.94099025767" y2="157.10900974233"/>
    <line x1="88.94099025767" y1="157.10900974233" x2="89.2985571585152" y2="157.575"/>
    <line x1="89.2985571585152" y1="157.575" x2="89.5233331091506" y2="158.117657148519"/>
    <line x1="89.5233331091506" y1="158.117657148519" x2="89.5616665545754" y2="158.40882857426"/>
    <line x1="89.5616665545754" y1="158.40882857426" x2="89.6000000000002" y2="158.7"/>
    <line x1="89.6000000000002" y1="158.7" x2="89.5233331091506" y2="159.282342851481"/>
    <line x1="89.5233331091506" y1="159.282342851481" x2="89.2985571585152" y2="159.825"/>
    <line x1="89.2985571585152" y1="159.825" x2="88.94099025767" y2="160.29099025767"/>
    <line x1="88.94099025767" y1="160.29099025767" x2="88.4750000000002" y2="160.648557158515"/>
    <line x1="88.4750000000002" y1="160.648557158515" x2="87.9323428514809" y2="160.87333310915"/>
    <line x1="87.9323428514809" y1="160.87333310915" x2="87.3500000000002" y2="160.95"/>
    <line x1="87.3500000000002" y1="160.95" x2="86.7676571485195" y2="160.87333310915"/>
    <line x1="86.7676571485195" y1="160.87333310915" x2="86.2250000000002" y2="160.648557158515"/>
    <line x1="86.2250000000002" y1="160.648557158515" x2="85.7590097423305" y2="160.29099025767"/>
    <line x1="85.7590097423305" y1="160.29099025767" x2="85.4014428414852" y2="159.825"/>
    <line x1="85.4014428414852" y1="159.825" x2="85.1766668908498" y2="159.282342851481"/>
    <line x1="85.1766668908498" y1="159.282342851481" x2="85.1000000000002" y2="158.7"/>
    <line x1="35.3069409046703" y1="136.21107857999" x2="35.5399360335052" y2="136.032295129568"/>
    <line x1="35.5399360335052" y1="136.032295129568" x2="35.7729311623401" y2="135.853511679145"/>
    <line x1="35.7729311623401" y1="135.853511679145" x2="36.3155883108594" y2="135.62873572851"/>
    <line x1="36.3155883108594" y1="135.62873572851" x2="36.8979311623401" y2="135.55206883766"/>
    <line x1="36.8979311623401" y1="135.55206883766" x2="37.4802740138207" y2="135.62873572851"/>
    <line x1="37.4802740138207" y1="135.62873572851" x2="38.02293116234" y2="135.853511679145"/>
    <line x1="38.02293116234" y1="135.853511679145" x2="38.4889214200098" y2="136.21107857999"/>
    <line x1="38.4889214200098" y1="136.21107857999" x2="38.846488320855" y2="136.67706883766"/>
    <line x1="38.846488320855" y1="136.67706883766" x2="39.0712642714904" y2="137.219725986179"/>
    <line x1="39.0712642714904" y1="137.219725986179" x2="39.1479311623401" y2="137.80206883766"/>
    <line x1="39.1479311623401" y1="137.80206883766" x2="39.0712642714905" y2="138.384411689141"/>
    <line x1="39.0712642714905" y1="138.384411689141" x2="38.846488320855" y2="138.92706883766"/>
    <line x1="38.846488320855" y1="138.92706883766" x2="38.6677048704324" y2="139.160063966495"/>
    <line x1="38.6677048704324" y1="139.160063966495" x2="38.4889214200098" y2="139.39305909533"/>
    <line x1="38.4889214200098" y1="139.39305909533" x2="38.0229311623401" y2="139.750625996175"/>
    <line x1="38.0229311623401" y1="139.750625996175" x2="37.4802740138207" y2="139.97540194681"/>
    <line x1="37.4802740138207" y1="139.97540194681" x2="36.8979311623401" y2="140.05206883766"/>
    <line x1="36.8979311623401" y1="140.05206883766" x2="36.3155883108594" y2="139.97540194681"/>
    <line x1="36.3155883108594" y1="139.97540194681" x2="35.7729311623401" y2="139.750625996175"/>
    <line x1="35.7729311623401" y1="139.750625996175" x2="35.3069409046703" y2="139.39305909533"/>
    <line x1="35.3069409046703" y1="139.39305909533" x2="34.9493740038251" y2="138.92706883766"/>
    <line x1="34.9493740038251" y1="138.92706883766" x2="34.7245980531897" y2="138.384411689141"/>
    <line x1="34.7245980531897" y1="138.384411689141" x2="34.64793116234" y2="137.80206883766"/>
    <line x1="34.64793116234" y1="137.80206883766" x2="34.7245980531897" y2="137.219725986179"/>
    <line x1="34.7245980531897" y1="137.219725986179" x2="34.9493740038251" y2="136.67706883766"/>
    <line x1="34.9493740038251" y1="136.67706883766" x2="35.3069409046703" y2="136.21107857999"/>
    <line x1="16.0000000000002" y1="85.0999999999999" x2="16.2911714257406" y2="85.1383334454247"/>
    <line x1="16.2911714257406" y1="85.1383334454247" x2="16.5823428514809" y2="85.1766668908495"/>
    <line x1="16.5823428514809" y1="85.1766668908495" x2="17.1250000000002" y2="85.4014428414849"/>
    <line x1="17.1250000000002" y1="85.4014428414849" x2="17.59099025767" y2="85.7590097423302"/>
    <line x1="17.59099025767" y1="85.7590097423302" x2="17.9485571585152" y2="86.2249999999999"/>
    <line x1="17.9485571585152" y1="86.2249999999999" x2="18.1733331091506" y2="86.7676571485192"/>
    <line x1="18.1733331091506" y1="86.7676571485192" x2="18.2500000000002" y2="87.3499999999999"/>
    <line x1="18.2500000000002" y1="87.3499999999999" x2="18.1733331091506" y2="87.9323428514806"/>
    <line x1="18.1733331091506" y1="87.9323428514806" x2="17.9485571585152" y2="88.4749999999999"/>
    <line x1="17.9485571585152" y1="88.4749999999999" x2="17.59099025767" y2="88.9409902576696"/>
    <line x1="17.59099025767" y1="88.9409902576696" x2="17.1250000000002" y2="89.2985571585149"/>
    <line x1="17.1250000000002" y1="89.2985571585149" x2="16.5823428514809" y2="89.5233331091503"/>
    <line x1="16.5823428514809" y1="89.5233331091503" x2="16.2911714257406" y2="89.5616665545751"/>
    <line x1="16.2911714257406" y1="89.5616665545751" x2="16.0000000000002" y2="89.5999999999999"/>
    <line x1="16.0000000000002" y1="89.5999999999999" x2="15.4176571485196" y2="89.5233331091503"/>
    <line x1="15.4176571485196" y1="89.5233331091503" x2="14.8750000000002" y2="89.2985571585149"/>
    <line x1="14.8750000000002" y1="89.2985571585149" x2="14.4090097423305" y2="88.9409902576696"/>
    <line x1="14.4090097423305" y1="88.9409902576696" x2="14.0514428414852" y2="88.4749999999999"/>
    <line x1="14.0514428414852" y1="88.4749999999999" x2="13.8266668908498" y2="87.9323428514806"/>
    <line x1="13.8266668908498" y1="87.9323428514806" x2="13.7500000000002" y2="87.3499999999999"/>
    <line x1="13.7500000000002" y1="87.3499999999999" x2="13.8266668908498" y2="86.7676571485192"/>
    <line x1="13.8266668908498" y1="86.7676571485192" x2="14.0514428414853" y2="86.2249999999999"/>
    <line x1="14.0514428414853" y1="86.2249999999999" x2="14.4090097423305" y2="85.7590097423302"/>
    <line x1="14.4090097423305" y1="85.7590097423302" x2="14.8750000000003" y2="85.4014428414849"/>
    <line x1="14.8750000000003" y1="85.4014428414849" x2="15.4176571485196" y2="85.1766668908495"/>
    <line x1="15.4176571485196" y1="85.1766668908495" x2="16.0000000000002" y2="85.0999999999999"/>
    <line x1="38.4889214200098" y1="35.30694090467" x2="38.6677048704324" y2="35.5399360335048"/>
    <line x1="38.6677048704324" y1="35.5399360335048" x2="38.8464883208551" y2="35.7729311623397"/>
    <line x1="38.8464883208551" y1="35.7729311623397" x2="39.0712642714905" y2="36.315588310859"/>
    <line x1="39.0712642714905" y1="36.315588310859" x2="39.1479311623401" y2="36.8979311623397"/>
    <line x1="39.1479311623401" y1="36.8979311623397" x2="39.0712642714905" y2="37.4802740138204"/>
    <line x1="39.0712642714905" y1="37.4802740138204" x2="38.8464883208551" y2="38.0229311623397"/>
    <line x1="38.8464883208551" y1="38.0229311623397" x2="38.4889214200098" y2="38.4889214200094"/>
    <line x1="38.4889214200098" y1="38.4889214200094" x2="38.0229311623401" y2="38.8464883208547"/>
    <line x1="38.0229311623401" y1="38.8464883208547" x2="37.4802740138208" y2="39.0712642714901"/>
    <line x1="37.4802740138208" y1="39.0712642714901" x2="36.8979311623401" y2="39.1479311623397"/>
    <line x1="36.8979311623401" y1="39.1479311623397" x2="36.3155883108594" y2="39.0712642714901"/>
    <line x1="36.3155883108594" y1="39.0712642714901" x2="35.7729311623401" y2="38.8464883208547"/>
    <line x1="35.7729311623401" y1="38.8464883208547" x2="35.5399360335052" y2="38.6677048704321"/>
    <line x1="35.5399360335052" y1="38.6677048704321" x2="35.3069409046704" y2="38.4889214200094"/>
    <line x1="35.3069409046704" y1="38.4889214200094" x2="34.9493740038251" y2="38.0229311623397"/>
    <line x1="34.9493740038251" y1="38.0229311623397" x2="34.7245980531897" y2="37.4802740138204"/>
    <line x1="34.7245980531897" y1="37.4802740138204" x2="34.6479311623401" y2="36.8979311623397"/>
    <line x1="34.6479311623401" y1="36.8979311623397" x2="34.7245980531897" y2="36.315588310859"/>
    <line x1="34.7245980531897" y1="36.315588310859" x2="34.9493740038251" y2="35.7729311623397"/>
    <line x1="34.9493740038251" y1="35.7729311623397" x2="35.3069409046704" y2="35.30694090467"/>
    <line x1="35.3069409046704" y1="35.30694090467" x2="35.7729311623401" y2="34.9493740038247"/>
    <line x1="35.7729311623401" y1="34.9493740038247" x2="36.3155883108594" y2="34.7245980531893"/>
    <line x1="36.3155883108594" y1="34.7245980531893" x2="36.8979311623401" y2="34.6479311623397"/>
    <line x1="36.8979311623401" y1="34.6479311623397" x2="37.4802740138208" y2="34.7245980531893"/>
    <line x1="37.4802740138208" y1="34.7245980531893" x2="38.0229311623401" y2="34.9493740038247"/>
    <line x1="38.0229311623401" y1="34.9493740038247" x2="38.4889214200098" y2="35.30694090467"/>
    <line x1="89.6000000000002" y1="15.9999999999999" x2="89.5616665545754" y2="16.2911714257402"/>
    <line x1="89.5616665545754" y1="16.2911714257402" x2="89.5233331091506" y2="16.5823428514805"/>
    <line x1="89.5233331091506" y1="16.5823428514805" x2="89.2985571585152" y2="17.1249999999999"/>
    <line x1="89.2985571585152" y1="17.1249999999999" x2="88.9409902576699" y2="17.5909902576696"/>
    <line x1="88.9409902576699" y1="17.5909902576696" x2="88.4750000000002" y2="17.9485571585148"/>
    <line x1="88.4750000000002" y1="17.9485571585148" x2="87.9323428514809" y2="18.1733331091503"/>
    <line x1="87.9323428514809" y1="18.1733331091503" x2="87.3500000000002" y2="18.2499999999999"/>
    <line x1="87.3500000000002" y1="18.2499999999999" x2="86.7676571485195" y2="18.1733331091503"/>
    <line x1="86.7676571485195" y1="18.1733331091503" x2="86.2250000000002" y2="17.9485571585148"/>
    <line x1="86.2250000000002" y1="17.9485571585148" x2="85.7590097423305" y2="17.5909902576696"/>
    <line x1="85.7590097423305" y1="17.5909902576696" x2="85.4014428414852" y2="17.1249999999999"/>
    <line x1="85.4014428414852" y1="17.1249999999999" x2="85.1766668908498" y2="16.5823428514805"/>
    <line x1="85.1766668908498" y1="16.5823428514805" x2="85.138333445425" y2="16.2911714257402"/>
    <line x1="85.138333445425" y1="16.2911714257402" x2="85.1000000000002" y2="15.9999999999999"/>
    <line x1="85.1000000000002" y1="15.9999999999999" x2="85.1766668908498" y2="15.4176571485192"/>
    <line x1="85.1766668908498" y1="15.4176571485192" x2="85.4014428414852" y2="14.8749999999999"/>
    <line x1="85.4014428414852" y1="14.8749999999999" x2="85.7590097423305" y2="14.4090097423301"/>
    <line x1="85.7590097423305" y1="14.4090097423301" x2="86.2250000000002" y2="14.0514428414849"/>
    <line x1="86.2250000000002" y1="14.0514428414849" x2="86.7676571485195" y2="13.8266668908495"/>
    <line x1="86.7676571485195" y1="13.8266668908495" x2="87.3500000000002" y2="13.7499999999999"/>
    <line x1="87.3500000000002" y1="13.7499999999999" x2="87.9323428514809" y2="13.8266668908495"/>
    <line x1="87.9323428514809" y1="13.8266668908495" x2="88.4750000000002" y2="14.0514428414849"/>
    <line x1="88.4750000000002" y1="14.0514428414849" x2="88.94099025767" y2="14.4090097423301"/>
    <line x1="88.94099025767" y1="14.4090097423301" x2="89.2985571585152" y2="14.8749999999999"/>
    <line x1="89.2985571585152" y1="14.8749999999999" x2="89.5233331091506" y2="15.4176571485192"/>
    <line x1="89.5233331091506" y1="15.4176571485192" x2="89.6000000000002" y2="15.9999999999999"/>
    <line x1="56.6000000000002" y1="86.1499999999998" x2="56.7552914270617" y2="86.1704445042264"/>
    <line x1="56.7552914270617" y1="86.1704445042264" x2="56.9105828541233" y2="86.1908890084529"/>
    <line x1="56.9105828541233" y1="86.1908890084529" x2="57.2000000000002" y2="86.3107695154585"/>
    <line x1="57.2000000000002" y1="86.3107695154585" x2="57.4485281374241" y2="86.501471862576"/>
    <line x1="57.4485281374241" y1="86.501471862576" x2="57.6392304845415" y2="86.7499999999998"/>
    <line x1="57.6392304845415" y1="86.7499999999998" x2="57.7591109915471" y2="87.0394171458768"/>
    <line x1="57.7591109915471" y1="87.0394171458768" x2="57.8000000000002" y2="87.3499999999998"/>
    <line x1="57.8000000000002" y1="87.3499999999998" x2="57.7591109915471" y2="87.6605828541228"/>
    <line x1="57.7591109915471" y1="87.6605828541228" x2="57.6392304845416" y2="87.9499999999998"/>
    <line x1="57.6392304845416" y1="87.9499999999998" x2="57.4485281374241" y2="88.1985281374237"/>
    <line x1="57.4485281374241" y1="88.1985281374237" x2="57.2000000000002" y2="88.3892304845411"/>
    <line x1="57.2000000000002" y1="88.3892304845411" x2="56.9105828541233" y2="88.5091109915467"/>
    <line x1="56.9105828541233" y1="88.5091109915467" x2="56.7552914270617" y2="88.5295554957733"/>
    <line x1="56.7552914270617" y1="88.5295554957733" x2="56.6000000000002" y2="88.5499999999998"/>
    <line x1="56.6000000000002" y1="88.5499999999998" x2="56.2894171458772" y2="88.5091109915467"/>
    <line x1="56.2894171458772" y1="88.5091109915467" x2="56.0000000000002" y2="88.3892304845411"/>
    <line x1="56.0000000000002" y1="88.3892304845411" x2="55.7514718625764" y2="88.1985281374237"/>
    <line x1="55.7514718625764" y1="88.1985281374237" x2="55.5607695154589" y2="87.9499999999998"/>
    <line x1="55.5607695154589" y1="87.9499999999998" x2="55.4408890084534" y2="87.6605828541228"/>
    <line x1="55.4408890084534" y1="87.6605828541228" x2="55.4000000000002" y2="87.3499999999998"/>
    <line x1="55.4000000000002" y1="87.3499999999998" x2="55.4408890084534" y2="87.0394171458768"/>
    <line x1="55.4408890084534" y1="87.0394171458768" x2="55.5607695154589" y2="86.7499999999998"/>
    <line x1="55.5607695154589" y1="86.7499999999998" x2="55.7514718625764" y2="86.5014718625759"/>
    <line x1="55.7514718625764" y1="86.5014718625759" x2="56.0000000000003" y2="86.3107695154585"/>
    <line x1="56.0000000000003" y1="86.3107695154585" x2="56.2894171458772" y2="86.1908890084529"/>
    <line x1="56.2894171458772" y1="86.1908890084529" x2="56.6000000000002" y2="86.1499999999998"/>
    <line x1="65.606466478514" y1="64.4064664785135" x2="65.917049332637" y2="64.4473554869666"/>
    <line x1="65.917049332637" y1="64.4473554869666" x2="66.206466478514" y2="64.5672359939722"/>
    <line x1="66.206466478514" y1="64.5672359939722" x2="66.4549946159378" y2="64.7579383410896"/>
    <line x1="66.4549946159378" y1="64.7579383410896" x2="66.5503457894965" y2="64.8822024098016"/>
    <line x1="66.5503457894965" y1="64.8822024098016" x2="66.6456969630553" y2="65.0064664785135"/>
    <line x1="66.6456969630553" y1="65.0064664785135" x2="66.7655774700608" y2="65.2958836243905"/>
    <line x1="66.7655774700608" y1="65.2958836243905" x2="66.806466478514" y2="65.6064664785135"/>
    <line x1="66.806466478514" y1="65.6064664785135" x2="66.7655774700608" y2="65.9170493326365"/>
    <line x1="66.7655774700608" y1="65.9170493326365" x2="66.6456969630553" y2="66.2064664785135"/>
    <line x1="66.6456969630553" y1="66.2064664785135" x2="66.4549946159378" y2="66.4549946159373"/>
    <line x1="66.4549946159378" y1="66.4549946159373" x2="66.206466478514" y2="66.6456969630548"/>
    <line x1="66.206466478514" y1="66.6456969630548" x2="65.917049332637" y2="66.7655774700604"/>
    <line x1="65.917049332637" y1="66.7655774700604" x2="65.606466478514" y2="66.8064664785135"/>
    <line x1="65.606466478514" y1="66.8064664785135" x2="65.2958836243909" y2="66.7655774700604"/>
    <line x1="65.2958836243909" y1="66.7655774700604" x2="65.0064664785139" y2="66.6456969630548"/>
    <line x1="65.0064664785139" y1="66.6456969630548" x2="64.882202409802" y2="66.5503457894961"/>
    <line x1="64.882202409802" y1="66.5503457894961" x2="64.7579383410901" y2="66.4549946159373"/>
    <line x1="64.7579383410901" y1="66.4549946159373" x2="64.5672359939726" y2="66.2064664785135"/>
    <line x1="64.5672359939726" y1="66.2064664785135" x2="64.4473554869671" y2="65.9170493326365"/>
    <line x1="64.4473554869671" y1="65.9170493326365" x2="64.4064664785139" y2="65.6064664785135"/>
    <line x1="64.4064664785139" y1="65.6064664785135" x2="64.4473554869671" y2="65.2958836243905"/>
    <line x1="64.4473554869671" y1="65.2958836243905" x2="64.5672359939726" y2="65.0064664785135"/>
    <line x1="64.5672359939726" y1="65.0064664785135" x2="64.7579383410901" y2="64.7579383410896"/>
    <line x1="64.7579383410901" y1="64.7579383410896" x2="65.0064664785139" y2="64.5672359939721"/>
    <line x1="65.0064664785139" y1="64.5672359939721" x2="65.2958836243909" y2="64.4473554869666"/>
    <line x1="65.2958836243909" y1="64.4473554869666" x2="65.606466478514" y2="64.4064664785135"/>
    <line x1="87.6605828541233" y1="57.7591109915467" x2="87.3500000000003" y2="57.7999999999998"/>
    <line x1="87.3500000000003" y1="57.7999999999998" x2="87.0394171458772" y2="57.7591109915467"/>
    <line x1="87.0394171458772" y1="57.7591109915467" x2="86.7500000000003" y2="57.6392304845412"/>
    <line x1="86.7500000000003" y1="57.6392304845412" x2="86.5014718625764" y2="57.4485281374237"/>
    <line x1="86.5014718625764" y1="57.4485281374237" x2="86.3107695154589" y2="57.1999999999998"/>
    <line x1="86.3107695154589" y1="57.1999999999998" x2="86.1908890084534" y2="56.9105828541229"/>
    <line x1="86.1908890084534" y1="56.9105828541229" x2="86.1908890084534" y2="56.7539514234588"/>
    <line x1="86.1908890084534" y1="56.7539514234588" x2="86.1908890084534" y2="56.5973199927947"/>
    <line x1="86.1908890084534" y1="56.5973199927947" x2="86.2317780169065" y2="56.2867371386717"/>
    <line x1="86.2317780169065" y1="56.2867371386717" x2="86.3516585239121" y2="55.9973199927947"/>
    <line x1="86.3516585239121" y1="55.9973199927947" x2="86.5423608710295" y2="55.7487918553709"/>
    <line x1="86.5423608710295" y1="55.7487918553709" x2="86.7908890084534" y2="55.5580895082534"/>
    <line x1="86.7908890084534" y1="55.5580895082534" x2="87.0803061543304" y2="55.4382090012478"/>
    <line x1="87.0803061543304" y1="55.4382090012478" x2="87.3908890084534" y2="55.3973199927947"/>
    <line x1="87.3908890084534" y1="55.3973199927947" x2="87.7014718625764" y2="55.4382090012478"/>
    <line x1="87.7014718625764" y1="55.4382090012478" x2="87.9908890084534" y2="55.5580895082534"/>
    <line x1="87.9908890084534" y1="55.5580895082534" x2="88.2394171458772" y2="55.7487918553709"/>
    <line x1="88.2394171458772" y1="55.7487918553709" x2="88.4301194929947" y2="55.9973199927947"/>
    <line x1="88.4301194929947" y1="55.9973199927947" x2="88.5500000000003" y2="56.2867371386717"/>
    <line x1="88.5500000000003" y1="56.2867371386717" x2="88.5908890084534" y2="56.5973199927947"/>
    <line x1="88.5908890084534" y1="56.5973199927947" x2="88.5908890084534" y2="56.7539514234588"/>
    <line x1="88.5908890084534" y1="56.7539514234588" x2="88.5908890084534" y2="56.9105828541229"/>
    <line x1="88.5908890084534" y1="56.9105828541229" x2="88.4710085014478" y2="57.1999999999998"/>
    <line x1="88.4710085014478" y1="57.1999999999998" x2="88.2803061543304" y2="57.4485281374237"/>
    <line x1="88.2803061543304" y1="57.4485281374237" x2="88.0317780169065" y2="57.6392304845412"/>
    <line x1="88.0317780169065" y1="57.6392304845412" x2="87.6605828541233" y2="57.7591109915467"/>
    <line x1="109.485894392516" y1="110.252644513033" x2="109.175311538393" y2="110.293533521486"/>
    <line x1="109.175311538393" y1="110.293533521486" x2="108.86472868427" y2="110.252644513033"/>
    <line x1="108.86472868427" y1="110.252644513033" x2="108.575311538393" y2="110.132764006027"/>
    <line x1="108.575311538393" y1="110.132764006027" x2="108.326783400969" y2="109.94206165891"/>
    <line x1="108.326783400969" y1="109.94206165891" x2="108.23143222741" y2="109.817797590198"/>
    <line x1="108.23143222741" y1="109.817797590198" x2="108.136081053851" y2="109.693533521486"/>
    <line x1="108.136081053851" y1="109.693533521486" x2="108.016200546846" y2="109.404116375609"/>
    <line x1="108.016200546846" y1="109.404116375609" x2="107.975311538393" y2="109.093533521486"/>
    <line x1="107.975311538393" y1="109.093533521486" x2="108.016200546846" y2="108.782950667363"/>
    <line x1="108.016200546846" y1="108.782950667363" x2="108.136081053851" y2="108.493533521486"/>
    <line x1="108.136081053851" y1="108.493533521486" x2="108.326783400969" y2="108.245005384062"/>
    <line x1="108.326783400969" y1="108.245005384062" x2="108.575311538393" y2="108.054303036945"/>
    <line x1="108.575311538393" y1="108.054303036945" x2="108.86472868427" y2="107.934422529939"/>
    <line x1="108.86472868427" y1="107.934422529939" x2="109.175311538393" y2="107.893533521486"/>
    <line x1="109.175311538393" y1="107.893533521486" x2="109.485894392516" y2="107.934422529939"/>
    <line x1="109.485894392516" y1="107.934422529939" x2="109.775311538393" y2="108.054303036945"/>
    <line x1="109.775311538393" y1="108.054303036945" x2="109.899575607105" y2="108.149654210504"/>
    <line x1="109.899575607105" y1="108.149654210504" x2="110.023839675817" y2="108.245005384062"/>
    <line x1="110.023839675817" y1="108.245005384062" x2="110.214542022934" y2="108.493533521486"/>
    <line x1="110.214542022934" y1="108.493533521486" x2="110.33442252994" y2="108.782950667363"/>
    <line x1="110.33442252994" y1="108.782950667363" x2="110.375311538393" y2="109.093533521486"/>
    <line x1="110.375311538393" y1="109.093533521486" x2="110.33442252994" y2="109.404116375609"/>
    <line x1="110.33442252994" y1="109.404116375609" x2="110.214542022934" y2="109.693533521486"/>
    <line x1="110.214542022934" y1="109.693533521486" x2="110.023839675817" y2="109.94206165891"/>
    <line x1="110.023839675817" y1="109.94206165891" x2="109.775311538393" y2="110.132764006027"/>
    <line x1="109.775311538393" y1="110.132764006027" x2="109.485894392516" y2="110.252644513033"/>
    <line x1="87.4317780169065" y1="119.3" x2="87.1211951627835" y2="119.259110991547"/>
    <line x1="87.1211951627835" y1="119.259110991547" x2="86.8317780169065" y2="119.139230484541"/>
    <line x1="86.8317780169065" y1="119.139230484541" x2="86.5832498794826" y2="118.948528137424"/>
    <line x1="86.5832498794826" y1="118.948528137424" x2="86.3925475323652" y2="118.7"/>
    <line x1="86.3925475323652" y1="118.7" x2="86.2726670253596" y2="118.410582854123"/>
    <line x1="86.2726670253596" y1="118.410582854123" x2="86.2317780169065" y2="118.1"/>
    <line x1="86.2317780169065" y1="118.1" x2="86.2317780169065" y2="117.943368569336"/>
    <line x1="86.2317780169065" y1="117.943368569336" x2="86.2317780169065" y2="117.786737138672"/>
    <line x1="86.2317780169065" y1="117.786737138672" x2="86.3516585239121" y2="117.497319992795"/>
    <line x1="86.3516585239121" y1="117.497319992795" x2="86.5423608710295" y2="117.248791855371"/>
    <line x1="86.5423608710295" y1="117.248791855371" x2="86.7908890084534" y2="117.058089508253"/>
    <line x1="86.7908890084534" y1="117.058089508253" x2="87.0803061543304" y2="116.938209001248"/>
    <line x1="87.0803061543304" y1="116.938209001248" x2="87.3908890084534" y2="116.897319992795"/>
    <line x1="87.3908890084534" y1="116.897319992795" x2="87.7014718625764" y2="116.938209001248"/>
    <line x1="87.7014718625764" y1="116.938209001248" x2="87.9908890084534" y2="117.058089508253"/>
    <line x1="87.9908890084534" y1="117.058089508253" x2="88.2394171458772" y2="117.248791855371"/>
    <line x1="88.2394171458772" y1="117.248791855371" x2="88.4301194929947" y2="117.497319992795"/>
    <line x1="88.4301194929947" y1="117.497319992795" x2="88.5500000000003" y2="117.786737138672"/>
    <line x1="88.5500000000003" y1="117.786737138672" x2="88.5500000000003" y2="117.943368569336"/>
    <line x1="88.5500000000003" y1="117.943368569336" x2="88.5500000000003" y2="118.1"/>
    <line x1="88.5500000000003" y1="118.1" x2="88.5091109915471" y2="118.410582854123"/>
    <line x1="88.5091109915471" y1="118.410582854123" x2="88.3892304845416" y2="118.7"/>
    <line x1="88.3892304845416" y1="118.7" x2="88.1985281374241" y2="118.948528137424"/>
    <line x1="88.1985281374241" y1="118.948528137424" x2="87.9500000000003" y2="119.139230484541"/>
    <line x1="87.9500000000003" y1="119.139230484541" x2="87.6605828541233" y2="119.259110991547"/>
    <line x1="87.6605828541233" y1="119.259110991547" x2="87.4317780169065" y2="119.3"/>
    <line x1="66.6456969630553" y1="109.693533521486" x2="66.5503457894965" y2="109.817797590198"/>
    <line x1="66.5503457894965" y1="109.817797590198" x2="66.4549946159378" y2="109.94206165891"/>
    <line x1="66.4549946159378" y1="109.94206165891" x2="66.2064664785139" y2="110.132764006027"/>
    <line x1="66.2064664785139" y1="110.132764006027" x2="65.917049332637" y2="110.252644513033"/>
    <line x1="65.917049332637" y1="110.252644513033" x2="65.6064664785139" y2="110.293533521486"/>
    <line x1="65.6064664785139" y1="110.293533521486" x2="65.2958836243909" y2="110.252644513033"/>
    <line x1="65.2958836243909" y1="110.252644513033" x2="65.0064664785139" y2="110.132764006027"/>
    <line x1="65.0064664785139" y1="110.132764006027" x2="64.7579383410901" y2="109.94206165891"/>
    <line x1="64.7579383410901" y1="109.94206165891" x2="64.5672359939726" y2="109.693533521486"/>
    <line x1="64.5672359939726" y1="109.693533521486" x2="64.4473554869671" y2="109.404116375609"/>
    <line x1="64.4473554869671" y1="109.404116375609" x2="64.4064664785139" y2="109.093533521486"/>
    <line x1="64.4064664785139" y1="109.093533521486" x2="64.4473554869671" y2="108.782950667363"/>
    <line x1="64.4473554869671" y1="108.782950667363" x2="64.5672359939726" y2="108.493533521486"/>
    <line x1="64.5672359939726" y1="108.493533521486" x2="64.7579383410901" y2="108.245005384062"/>
    <line x1="64.7579383410901" y1="108.245005384062" x2="64.882202409802" y2="108.149654210504"/>
    <line x1="64.882202409802" y1="108.149654210504" x2="65.006466478514" y2="108.054303036945"/>
    <line x1="65.006466478514" y1="108.054303036945" x2="65.2958836243909" y2="107.934422529939"/>
    <line x1="65.2958836243909" y1="107.934422529939" x2="65.606466478514" y2="107.893533521486"/>
    <line x1="65.606466478514" y1="107.893533521486" x2="65.917049332637" y2="107.934422529939"/>
    <line x1="65.917049332637" y1="107.934422529939" x2="66.206466478514" y2="108.054303036945"/>
    <line x1="66.206466478514" y1="108.054303036945" x2="66.4549946159378" y2="108.245005384062"/>
    <line x1="66.4549946159378" y1="108.245005384062" x2="66.6456969630553" y2="108.493533521486"/>
    <line x1="66.6456969630553" y1="108.493533521486" x2="66.7655774700609" y2="108.782950667363"/>
    <line x1="66.7655774700609" y1="108.782950667363" x2="66.806466478514" y2="109.093533521486"/>
    <line x1="66.806466478514" y1="109.093533521486" x2="66.7655774700609" y2="109.404116375609"/>
    <line x1="66.7655774700609" y1="109.404116375609" x2="66.6456969630553" y2="109.693533521486"/>
  </g>
</svg>
