 0
SECTION
 2
ENTITIES
  0
LINE
 8
Layer0
10
1.92366451102325
20
1.92366451102325
30
0.177165354330709
11
1.94201058415985
21
1.90958707398209
31
0.177165354330709
  0
LINE
 8
Layer0
10
-2.92716535433071
20
0.204572930027821
30
0.177165354330709
11
-2.97608821602832
21
0.167033097918082
31
0.177165354330709
  0
LINE
 8
Layer0
10
2.80905511811024
20
-0.0885826771653533
30
0.177165354330709
11
2.8319820020268
21
-0.0855642956358415
31
0.177165354330709
  0
LINE
 8
Layer0
10
-2.07186621837837
20
-2.00922880665909
30
0.177165354330709
11
-2.06301677150296
21
-2.0305932613252
31
0.177165354330709
  0
LINE
 8
Layer0
10
-2.8319820020268
20
0.0855642956358409
30
0.177165354330709
11
-2.85334645669291
21
0.0767148487604312
31
0.177165354330709
  0
LINE
 8
Layer0
10
1.90073762710668
20
1.96337503882596
30
0.177165354330709
11
1.90958707398209
21
1.94201058415985
31
0.177165354330709
  0
LINE
 8
Layer0
10
1.98630192274253
20
-2.07488459990788
30
0.177165354330709
11
2.00922880665909
21
-2.07186621837837
31
0.177165354330709
  0
LINE
 8
Layer0
10
2.80905511811024
20
0.088582677165355
30
0.177165354330709
11
2.79759167615196
21
0.0870734864005991
31
0.177165354330709
  0
LINE
 8
Layer0
10
-0.0229268839165639
20
2.89461941374608
30
0.177165354330709
11
-0.0442913385826788
21
2.88576996687067
31
0.177165354330709
  0
LINE
 8
Layer0
10
-1.92366451102325
20
-1.92366451102325
30
0.177165354330709
11
-1.94201058415985
21
-1.90958707398209
31
0.177165354330709
  0
LINE
 8
Layer0
10
1.94201058415985
20
-1.90958707398209
30
0.177165354330709
11
1.92366451102325
21
-1.92366451102325
31
0.177165354330709
  0
LINE
 8
Layer0
10
1.92366451102325
20
2.04893933446181
30
0.177165354330709
11
1.91662579250267
21
2.03976629789351
31
0.177165354330709
  0
LINE
 8
Layer0
10
1.98630192274253
20
-1.89771924557717
30
0.177165354330709
11
1.96337503882596
21
-1.90073762710668
31
0.177165354330709
  0
LINE
 8
Layer0
10
-2.06301677150296
20
-1.94201058415985
30
0.177165354330709
11
-2.07186621837837
21
-1.96337503882596
31
0.177165354330709
  0
LINE
 8
Layer0
10
-0.0855642956358414
20
-2.78612823419367
30
0.177165354330709
11
-0.0870734864005971
21
-2.79759167615196
31
0.177165354330709
  0
LINE
 8
Layer0
10
0.0409145860055626
20
-1.23425196850394
30
0.177165354330709
11
0.0456342910057814
21
-1.22285759268201
31
0.177165354330709
  0
LINE
 8
Layer0
10
0.118110236220474
20
-3.01362804813806
30
0.177165354330709
11
0.167033097918084
21
-2.97608821602832
31
0.177165354330709
  0
LINE
 8
Layer0
10
2.00922880665909
20
2.07186621837837
30
0.177165354330709
11
1.98630192274253
21
2.07488459990788
31
0.177165354330709
  0
LINE
 8
Layer0
10
-0.0409145860055655
20
-1.23425196850394
30
0.177165354330709
11
-0.033406619583618
21
-1.24403654084346
31
0.177165354330709
  0
LINE
 8
Layer0
10
-2.06301677150296
20
-2.0305932613252
30
0.177165354330709
11
-2.04893933446181
21
-2.04893933446181
31
0.177165354330709
  0
LINE
 8
Layer0
10
-2.74641770639096
20
-0.0626374117192818
30
0.177165354330709
11
-2.7323402693498
21
-0.0442913385826786
31
0.177165354330709
  0
LINE
 8
Layer0
10
-2.72349082247439
20
0.0229268839165604
30
0.177165354330709
11
-2.7323402693498
21
0.0442913385826755
31
0.177165354330709
  0
LINE
 8
Layer0
10
2.06301677150296
20
-2.0305932613252
30
0.177165354330709
11
2.07186621837837
21
-2.00922880665909
31
0.177165354330709
  0
LINE
 8
Layer0
10
-0.0464391927469872
20
-1.20451608554876
30
0.177165354330709
11
-0.0472440944881907
21
-1.21062992125984
31
0.177165354330709
  0
LINE
 8
Layer0
10
-1.80411241501588e-15
20
2.89763779527559
30
0.177165354330709
11
-0.0229268839165639
21
2.89461941374608
31
0.177165354330709
  0
LINE
 8
Layer0
10
-2.03976629789351
20
-1.91662579250267
30
0.177165354330709
11
-2.04893933446181
21
-1.92366451102325
31
0.177165354330709
  0
LINE
 8
Layer0
10
0.0442913385826784
20
-2.7323402693498
30
0.177165354330709
11
0.022926883916563
21
-2.72349082247439
31
0.177165354330709
  0
LINE
 8
Layer0
10
-2.78612823419367
20
-0.085564295635844
30
0.177165354330709
11
-2.76476377952756
21
-0.0767148487604334
31
0.177165354330709
  0
LINE
 8
Layer0
10
-0.085564295635841
20
-2.8319820020268
30
0.177165354330709
11
-0.076714848760431
21
-2.85334645669291
31
0.177165354330709
  0
LINE
 8
Layer0
10
1.90958707398209
20
-1.94201058415985
30
0.177165354330709
11
1.90073762710668
21
-1.96337503882596
31
0.177165354330709
  0
LINE
 8
Layer0
10
0.085564295635841
20
2.78612823419367
30
0.177165354330709
11
0.0870734864005967
21
2.79759167615196
31
0.177165354330709
  0
LINE
 8
Layer0
10
0.076714848760431
20
2.76476377952756
30
0.177165354330709
11
0.085564295635841
21
2.78612823419367
31
0.177165354330709
  0
LINE
 8
Layer0
10
-1.96337503882596
20
-1.90073762710668
30
0.177165354330709
11
-1.98630192274253
21
-1.89771924557717
31
0.177165354330709
  0
LINE
 8
Layer0
10
0.0442913385826755
20
2.7323402693498
30
0.177165354330709
11
0.0626374117192791
21
2.74641770639096
31
0.177165354330709
  0
LINE
 8
Layer0
10
-1.58206781009085e-15
20
2.72047244094488
30
0.177165354330709
11
0.0229268839165602
21
2.72349082247439
31
0.177165354330709
  0
LINE
 8
Layer0
10
-0.0885826771653528
20
-2.80905511811024
30
0.177165354330709
11
-0.085564295635841
21
-2.8319820020268
31
0.177165354330709
  0
LINE
 8
Layer0
10
2.00922880665909
20
-1.90073762710668
30
0.177165354330709
11
1.98630192274253
21
-1.89771924557717
31
0.177165354330709
  0
LINE
 8
Layer0
10
-0.0442913385826759
20
-2.7323402693498
30
0.177165354330709
11
-0.0626374117192794
21
-2.74641770639096
31
0.177165354330709
  0
LINE
 8
Layer0
10
-1.98630192274253
20
2.07488459990788
30
0.177165354330709
11
-2.00922880665909
21
2.07186621837837
31
0.177165354330709
  0
LINE
 8
Layer0
10
-0.0464391927469858
20
1.20451608554876
30
0.177165354330709
11
-0.0456342910057827
21
1.19840224983768
31
0.177165354330709
  0
LINE
 8
Layer0
10
-2.04893933446181
20
-2.04893933446181
30
0.177165354330709
11
-2.0305932613252
21
-2.06301677150296
31
0.177165354330709
  0
LINE
 8
Layer0
10
1.94201058415985
20
2.06301677150296
30
0.177165354330709
11
1.92366451102325
21
2.04893933446181
31
0.177165354330709
  0
LINE
 8
Layer0
10
-0.74767535988018
20
0.577739856537192
30
0.177165354330709
11
-0.871729017774863
21
0.364541225614943
31
0.177165354330709
  0
LINE
 8
Layer0
10
-1.90073762710668
20
-1.96337503882596
30
0.177165354330709
11
-1.90958707398209
21
-1.94201058415985
31
0.177165354330709
  0
LINE
 8
Layer0
10
-1.90073762710668
20
1.96337503882596
30
0.177165354330709
11
-1.89771924557717
21
1.98630192274253
31
0.177165354330709
  0
LINE
 8
Layer0
10
-0.0855642956358442
20
2.78612823419367
30
0.177165354330709
11
-0.0767148487604339
21
2.76476377952756
31
0.177165354330709
  0
LINE
 8
Layer0
10
2.79759167615196
20
-0.0870734864005974
30
0.177165354330709
11
2.80905511811024
21
-0.0885826771653533
31
0.177165354330709
  0
LINE
 8
Layer0
10
-1.90958707398209
20
1.94201058415985
30
0.177165354330709
11
-1.90073762710668
21
1.96337503882596
31
0.177165354330709
  0
LINE
 8
Layer0
10
0.0236220472440933
20
-1.25154450726541
30
0.177165354330709
11
0.0334066195836149
21
-1.24403654084346
31
0.177165354330709
  0
LINE
 8
Layer0
10
1.96337503882596
20
2.07186621837837
30
0.177165354330709
11
1.94201058415985
21
2.06301677150296
31
0.177165354330709
  0
LINE
 8
Layer0
10
1.98630192274253
20
2.07488459990788
30
0.177165354330709
11
1.96337503882596
21
2.07186621837837
31
0.177165354330709
  0
LINE
 8
Layer0
10
1.92366451102325
20
-2.04893933446181
30
0.177165354330709
11
1.94201058415985
21
-2.06301677150296
31
0.177165354330709
  0
LINE
 8
Layer0
10
-1.98630192274253
20
-1.89771924557717
30
0.177165354330709
11
-2.00922880665909
21
-1.90073762710668
31
0.177165354330709
  0
LINE
 8
Layer0
10
2.8319820020268
20
-0.0855642956358415
30
0.177165354330709
11
2.85334645669291
21
-0.0767148487604315
31
0.177165354330709
  0
LINE
 8
Layer0
10
-2.85334645669291
20
-0.0767148487604339
30
0.177165354330709
11
-2.8319820020268
21
-0.085564295635844
31
0.177165354330709
  0
LINE
 8
Layer0
10
-1.89771924557717
20
-1.98630192274253
30
0.177165354330709
11
-1.90073762710668
21
-1.96337503882596
31
0.177165354330709
  0
LINE
 8
Layer0
10
-0.0855642956358442
20
2.8319820020268
30
0.177165354330709
11
-0.0885826771653557
21
2.80905511811024
31
0.177165354330709
  0
LINE
 8
Layer0
10
-0.0767148487604314
20
-2.76476377952756
30
0.177165354330709
11
-0.0855642956358414
21
-2.78612823419367
31
0.177165354330709
  0
LINE
 8
Layer0
10
1.90958707398209
20
2.0305932613252
30
0.177165354330709
11
1.90073762710668
21
2.00922880665909
31
0.177165354330709
  0
LINE
 8
Layer0
10
2.07186621837837
20
-2.00922880665909
30
0.177165354330709
11
2.07488459990788
21
-1.98630192274253
31
0.177165354330709
  0
LINE
 8
Layer0
10
-0.0885826771653557
20
2.80905511811024
30
0.177165354330709
11
-0.0870734864005996
21
2.79759167615196
31
0.177165354330709
  0
LINE
 8
Layer0
10
0.0870734864005967
20
2.79759167615196
30
0.177165354330709
11
0.0885826771653525
21
2.80905511811024
31
0.177165354330709
  0
LINE
 8
Layer0
10
2.04893933446181
20
1.92366451102325
30
0.177165354330709
11
2.06301677150296
21
1.94201058415985
31
0.177165354330709
  0
LINE
 8
Layer0
10
-1.92366451102325
20
1.92366451102325
30
0.177165354330709
11
-1.90958707398209
21
1.94201058415985
31
0.177165354330709
  0
LINE
 8
Layer0
10
-1.89771924557717
20
1.98630192274253
30
0.177165354330709
11
-1.90073762710668
21
2.00922880665909
31
0.177165354330709
  0
LINE
 8
Layer0
10
-1.90958707398209
20
2.0305932613252
30
0.177165354330709
11
-1.91662579250267
21
2.0397662978935
31
0.177165354330709
  0
LINE
 8
Layer0
10
2.85334645669291
20
-0.0767148487604315
30
0.177165354330709
11
2.87169252982952
21
-0.0626374117192799
31
0.177165354330709
  0
LINE
 8
Layer0
10
-0.0229268839165633
20
2.72349082247439
30
0.177165354330709
11
-1.58206781009085e-15
21
2.72047244094488
31
0.177165354330709
  0
LINE
 8
Layer0
10
-0.0442913385826787
20
2.7323402693498
30
0.177165354330709
11
-0.0229268839165633
21
2.72349082247439
31
0.177165354330709
  0
LINE
 8
Layer0
10
2.85334645669291
20
0.0767148487604336
30
0.177165354330709
11
2.8319820020268
21
0.0855642956358436
31
0.177165354330709
  0
LINE
 8
Layer0
10
2.89461941374608
20
-0.022926883916561
30
0.177165354330709
11
2.89763779527559
21
8.18789480661053e-16
31
0.177165354330709
  0
LINE
 8
Layer0
10
-1.33226762955019e-15
20
-1.25787401574803
30
0.177165354330709
11
0.012227671422165
21
-1.25626421226563
31
0.177165354330709
  0
LINE
 8
Layer0
10
2.0305932613252
20
1.90958707398209
30
0.177165354330709
11
2.0397662978935
21
1.91662579250267
31
0.177165354330709
  0
LINE
 8
Layer0
10
2.00922880665909
20
1.90073762710668
30
0.177165354330709
11
2.0305932613252
21
1.90958707398209
31
0.177165354330709
  0
LINE
 8
Layer0
10
0.0229268839165603
20
2.89461941374608
30
0.177165354330709
11
-1.80411241501588e-15
21
2.89763779527559
31
0.177165354330709
  0
LINE
 8
Layer0
10
-1.90073762710668
20
-2.00922880665909
30
0.177165354330709
11
-1.89771924557717
21
-1.98630192274253
31
0.177165354330709
  0
LINE
 8
Layer0
10
2.06301677150296
20
1.94201058415985
30
0.177165354330709
11
2.07186621837837
21
1.96337503882596
31
0.177165354330709
  0
LINE
 8
Layer0
10
0.012227671422165
20
-1.25626421226563
30
0.177165354330709
11
0.0236220472440933
21
-1.25154450726541
31
0.177165354330709
  0
LINE
 8
Layer0
10
2.7323402693498
20
0.044291338582678
30
0.177165354330709
11
2.72349082247439
21
0.0229268839165627
31
0.177165354330709
  0
LINE
 8
Layer0
10
2.74641770639096
20
0.0626374117192816
30
0.177165354330709
11
2.7323402693498
21
0.044291338582678
31
0.177165354330709
  0
LINE
 8
Layer0
10
2.76476377952756
20
0.0767148487604332
30
0.177165354330709
11
2.74641770639096
21
0.0626374117192816
31
0.177165354330709
  0
LINE
 8
Layer0
10
2.78612823419367
20
0.0855642956358435
30
0.177165354330709
11
2.76476377952756
21
0.0767148487604332
31
0.177165354330709
  0
LINE
 8
Layer0
10
-0.023622047244096
20
-1.25154450726541
30
0.177165354330709
11
-0.0122276714221676
21
-1.25626421226563
31
0.177165354330709
  0
LINE
 8
Layer0
10
0.0855642956358439
20
-2.8319820020268
30
0.177165354330709
11
0.0885826771653553
21
-2.80905511811024
31
0.177165354330709
  0
LINE
 8
Layer0
10
-1.91662579250267
20
-2.0397662978935
30
0.177165354330709
11
-1.90958707398209
21
-2.0305932613252
31
0.177165354330709
  0
LINE
 8
Layer0
10
-2.07488459990788
20
-1.98630192274253
30
0.177165354330709
11
-2.07186621837837
21
-2.00922880665909
31
0.177165354330709
  0
LINE
 8
Layer0
10
-2.07186621837837
20
-1.96337503882596
30
0.177165354330709
11
-2.07488459990788
21
-1.98630192274253
31
0.177165354330709
  0
LINE
 8
Layer0
10
1.94201058415985
20
1.90958707398209
30
0.177165354330709
11
1.96337503882596
21
1.90073762710668
31
0.177165354330709
  0
LINE
 8
Layer0
10
-1.94201058415985
20
-2.06301677150296
30
0.177165354330709
11
-1.92366451102325
21
-2.04893933446181
31
0.177165354330709
  0
LINE
 8
Layer0
10
0.0885826771653525
20
2.80905511811024
30
0.177165354330709
11
0.0855642956358407
21
2.8319820020268
31
0.177165354330709
  0
LINE
 8
Layer0
10
1.91662579250267
20
2.03976629789351
30
0.177165354330709
11
1.90958707398209
21
2.0305932613252
31
0.177165354330709
  0
LINE
 8
Layer0
10
1.90073762710668
20
2.00922880665909
30
0.177165354330709
11
1.89771924557717
21
1.98630192274253
31
0.177165354330709
  0
LINE
 8
Layer0
10
1.89771924557717
20
1.98630192274253
30
0.177165354330709
11
1.90073762710668
21
1.96337503882596
31
0.177165354330709
  0
LINE
 8
Layer0
10
1.90958707398209
20
-2.0305932613252
30
0.177165354330709
11
1.91662579250267
21
-2.0397662978935
31
0.177165354330709
  0
LINE
 8
Layer0
10
-2.0305932613252
20
-2.06301677150296
30
0.177165354330709
11
-2.00922880665909
21
-2.07186621837837
31
0.177165354330709
  0
LINE
 8
Layer0
10
-2.72349082247439
20
-0.0229268839165631
30
0.177165354330709
11
-2.72047244094488
21
-1.33226762955019e-15
31
0.177165354330709
  0
LINE
 8
Layer0
10
-0.033406619583618
20
-1.24403654084346
30
0.177165354330709
11
-0.023622047244096
21
-1.25154450726541
31
0.177165354330709
  0
LINE
 8
Layer0
10
2.07186621837837
20
1.96337503882596
30
0.177165354330709
11
2.07488459990788
21
1.98630192274253
31
0.177165354330709
  0
LINE
 8
Layer0
10
2.76476377952756
20
-0.0767148487604315
30
0.177165354330709
11
2.78612823419367
21
-0.0855642956358417
31
0.177165354330709
  0
LINE
 8
Layer0
10
2.88576996687067
20
-0.0442913385826762
30
0.177165354330709
11
2.89461941374608
21
-0.022926883916561
31
0.177165354330709
  0
LINE
 8
Layer0
10
2.87169252982952
20
-0.0626374117192799
30
0.177165354330709
11
2.88576996687067
21
-0.0442913385826762
31
0.177165354330709
  0
LINE
 8
Layer0
10
1.2490009027033e-15
20
-2.72047244094488
30
0.177165354330709
11
-0.0229268839165605
21
-2.72349082247439
31
0.177165354330709
  0
LINE
 8
Layer0
10
0.0626374117192793
20
2.87169252982952
30
0.177165354330709
11
0.0442913385826755
21
2.88576996687067
31
0.177165354330709
  0
LINE
 8
Layer0
10
0.022926883916563
20
-2.72349082247439
30
0.177165354330709
11
1.2490009027033e-15
21
-2.72047244094488
31
0.177165354330709
  0
LINE
 8
Layer0
10
-2.76476377952756
20
-0.0767148487604334
30
0.177165354330709
11
-2.74641770639096
21
-0.0626374117192818
31
0.177165354330709
  0
LINE
 8
Layer0
10
-2.8319820020268
20
-0.085564295635844
30
0.177165354330709
11
-2.80905511811024
21
-0.0885826771653555
31
0.177165354330709
  0
LINE
 8
Layer0
10
2.04893933446181
20
-2.04893933446181
30
0.177165354330709
11
2.06301677150296
21
-2.0305932613252
31
0.177165354330709
  0
LINE
 8
Layer0
10
-1.98630192274253
20
1.89771924557717
30
0.177165354330709
11
-1.96337503882597
21
1.90073762710668
31
0.177165354330709
  0
LINE
 8
Layer0
10
0.889451246413787
20
-0.822638007246555
30
0.177165354330709
11
0.884558960244026
21
-0.818884024035581
31
0.177165354330709
  0
LINE
 8
Layer0
10
0.896959212835734
20
-0.832422579586077
30
0.177165354330709
11
0.889451246413787
21
-0.822638007246555
31
0.177165354330709
  0
LINE
 8
Layer0
10
2.74641770639096
20
-0.0626374117192798
30
0.177165354330709
11
2.76476377952756
21
-0.0767148487604315
31
0.177165354330709
  0
LINE
 8
Layer0
10
-0.0472440944881907
20
-1.21062992125984
30
0.177165354330709
11
-0.0456342910057843
21
-1.22285759268201
31
0.177165354330709
  0
LINE
 8
Layer0
10
2.79759167615196
20
0.0870734864005991
30
0.177165354330709
11
2.78612823419367
21
0.0855642956358435
31
0.177165354330709
  0
LINE
 8
Layer0
10
-2.89461941374608
20
0.0229268839165604
30
0.177165354330709
11
-2.89763779527559
21
-1.33226762955019e-15
31
0.177165354330709
  0
LINE
 8
Layer0
10
0.901678917835953
20
-0.843816955408005
30
0.177165354330709
11
0.896959212835734
21
-0.832422579586077
31
0.177165354330709
  0
LINE
 8
Layer0
10
-2.88576996687067
20
0.0442913385826755
30
0.177165354330709
11
-2.89461941374608
21
0.0229268839165604
31
0.177165354330709
  0
LINE
 8
Layer0
10
0.903288721318359
20
-0.856044626830171
30
0.177165354330709
11
0.901678917835953
21
-0.843816955408005
31
0.177165354330709
  0
LINE
 8
Layer0
10
-2.0305932613252
20
-1.90958707398209
30
0.177165354330709
11
-2.03976629789351
21
-1.91662579250267
31
0.177165354330709
  0
LINE
 8
Layer0
10
2.87169252982952
20
0.0626374117192816
30
0.177165354330709
11
2.85334645669291
21
0.0767148487604336
31
0.177165354330709
  0
LINE
 8
Layer0
10
-2.76476377952756
20
0.0767148487604312
30
0.177165354330709
11
-2.78612823419367
21
0.0855642956358413
31
0.177165354330709
  0
LINE
 8
Layer0
10
-2.89763779527559
20
-1.33226762955019e-15
30
0.177165354330709
11
-2.89461941374608
21
-0.0229268839165635
31
0.177165354330709
  0
LINE
 8
Layer0
10
-0.0442913385826788
20
2.88576996687067
30
0.177165354330709
11
-0.0626374117192823
21
2.87169252982952
31
0.177165354330709
  0
LINE
 8
Layer0
10
1.96337503882596
20
-1.90073762710668
30
0.177165354330709
11
1.94201058415985
21
-1.90958707398209
31
0.177165354330709
  0
LINE
 8
Layer0
10
-0.0870734864005971
20
-2.79759167615196
30
0.177165354330709
11
-0.0885826771653528
21
-2.80905511811024
31
0.177165354330709
  0
LINE
 8
Layer0
10
-2.78612823419367
20
0.0855642956358413
30
0.177165354330709
11
-2.79759167615196
21
0.0870734864005969
31
0.177165354330709
  0
LINE
 8
Layer0
10
-2.88576996687067
20
-0.0442913385826786
30
0.177165354330709
11
-2.87169252982952
21
-0.0626374117192823
31
0.177165354330709
  0
LINE
 8
Layer0
10
2.07186621837837
20
2.00922880665909
30
0.177165354330709
11
2.06301677150296
21
2.0305932613252
31
0.177165354330709
  0
LINE
 8
Layer0
10
-2.79759167615196
20
-0.0870734864005995
30
0.177165354330709
11
-2.78612823419367
21
-0.085564295635844
31
0.177165354330709
  0
LINE
 8
Layer0
10
-2.80905511811024
20
-0.0885826771653555
30
0.177165354330709
11
-2.79759167615196
21
-0.0870734864005995
31
0.177165354330709
  0
LINE
 8
Layer0
10
-0.0456342910057843
20
-1.22285759268201
30
0.177165354330709
11
-0.0409145860055655
21
-1.23425196850394
31
0.177165354330709
  0
LINE
 8
Layer0
10
2.7323402693498
20
-0.0442913385826761
30
0.177165354330709
11
2.74641770639096
21
-0.0626374117192798
31
0.177165354330709
  0
LINE
 8
Layer0
10
2.72047244094488
20
9.0205620750794e-16
30
0.177165354330709
11
2.72349082247439
21
-0.0229268839165609
31
0.177165354330709
  0
LINE
 8
Layer0
10
0.901678917835953
20
-0.868272298252338
30
0.177165354330709
11
0.903288721318359
21
-0.856044626830171
31
0.177165354330709
  0
LINE
 8
Layer0
10
2.07488459990788
20
-1.98630192274253
30
0.177165354330709
11
2.07186621837837
21
-1.96337503882596
31
0.177165354330709
  0
LINE
 8
Layer0
10
-2.7323402693498
20
0.0442913385826755
30
0.177165354330709
11
-2.74641770639096
21
0.0626374117192792
31
0.177165354330709
  0
LINE
 8
Layer0
10
-2.80905511811024
20
0.0885826771653528
30
0.177165354330709
11
-2.8319820020268
21
0.0855642956358409
31
0.177165354330709
  0
LINE
 8
Layer0
10
-0.0767148487604343
20
2.85334645669291
30
0.177165354330709
11
-0.0855642956358442
21
2.8319820020268
31
0.177165354330709
  0
LINE
 8
Layer0
10
0.0229268839165635
20
-2.89461941374608
30
0.177165354330709
11
0.0442913385826784
21
-2.88576996687067
31
0.177165354330709
  0
LINE
 8
Layer0
10
0.0626374117192819
20
-2.74641770639096
30
0.177165354330709
11
0.0442913385826784
21
-2.7323402693498
31
0.177165354330709
  0
LINE
 8
Layer0
10
1.4432899320127e-15
20
-2.89763779527559
30
0.177165354330709
11
0.0229268839165635
21
-2.89461941374608
31
0.177165354330709
  0
LINE
 8
Layer0
10
1.90958707398209
20
1.94201058415985
30
0.177165354330709
11
1.92366451102325
21
1.92366451102325
31
0.177165354330709
  0
LINE
 8
Layer0
10
-2.00922880665909
20
-1.90073762710668
30
0.177165354330709
11
-2.0305932613252
21
-1.90958707398209
31
0.177165354330709
  0
LINE
 8
Layer0
10
0.0870734864005993
20
-2.79759167615196
30
0.177165354330709
11
0.0855642956358439
21
-2.78612823419367
31
0.177165354330709
  0
LINE
 8
Layer0
10
0.896959212835734
20
-0.879666674074266
30
0.177165354330709
11
0.901678917835953
21
-0.868272298252338
31
0.177165354330709
  0
LINE
 8
Layer0
10
0.889451246413787
20
-0.889451246413788
30
0.177165354330709
11
0.896959212835734
21
-0.879666674074266
31
0.177165354330709
  0
LINE
 8
Layer0
10
0.879666674074265
20
-0.896959212835735
30
0.177165354330709
11
0.889451246413787
21
-0.889451246413788
31
0.177165354330709
  0
LINE
 8
Layer0
10
2.00922880665909
20
-2.07186621837837
30
0.177165354330709
11
2.0305932613252
21
-2.06301677150296
31
0.177165354330709
  0
LINE
 8
Layer0
10
-2.89461941374608
20
-0.0229268839165635
30
0.177165354330709
11
-2.88576996687067
21
-0.0442913385826786
31
0.177165354330709
  0
LINE
 8
Layer0
10
-1.98630192274253
20
-2.07488459990788
30
0.177165354330709
11
-1.96337503882596
21
-2.07186621837837
31
0.177165354330709
  0
LINE
 8
Layer0
10
-2.00922880665909
20
-2.07186621837837
30
0.177165354330709
11
-1.98630192274253
21
-2.07488459990788
31
0.177165354330709
  0
LINE
 8
Layer0
10
-1.90958707398209
20
-2.0305932613252
30
0.177165354330709
11
-1.90073762710668
21
-2.00922880665909
31
0.177165354330709
  0
LINE
 8
Layer0
10
-0.0626374117192822
20
2.74641770639096
30
0.177165354330709
11
-0.0442913385826787
21
2.7323402693498
31
0.177165354330709
  0
LINE
 8
Layer0
10
0.868272298252337
20
-0.901678917835954
30
0.177165354330709
11
0.879666674074265
21
-0.896959212835735
31
0.177165354330709
  0
LINE
 8
Layer0
10
0.85604462683017
20
-0.90328872131836
30
0.177165354330709
11
0.868272298252337
21
-0.901678917835954
31
0.177165354330709
  0
LINE
 8
Layer0
10
2.0305932613252
20
-2.06301677150296
30
0.177165354330709
11
2.04893933446181
21
-2.04893933446181
31
0.177165354330709
  0
LINE
 8
Layer0
10
0.843816955408004
20
-0.901678917835954
30
0.177165354330709
11
0.85604462683017
21
-0.90328872131836
31
0.177165354330709
  0
LINE
 8
Layer0
10
2.0305932613252
20
-1.90958707398209
30
0.177165354330709
11
2.00922880665909
21
-1.90073762710668
31
0.177165354330709
  0
LINE
 8
Layer0
10
2.07186621837837
20
-1.96337503882596
30
0.177165354330709
11
2.06301677150296
21
-1.94201058415985
31
0.177165354330709
  0
LINE
 8
Layer0
10
-1.90958707398209
20
-1.94201058415985
30
0.177165354330709
11
-1.92366451102325
21
-1.92366451102325
31
0.177165354330709
  0
LINE
 8
Layer0
10
0.832422579586076
20
-0.896959212835735
30
0.177165354330709
11
0.843816955408004
21
-0.901678917835954
31
0.177165354330709
  0
LINE
 8
Layer0
10
0.822638007246554
20
-0.889451246413788
30
0.177165354330709
11
0.832422579586076
21
-0.896959212835735
31
0.177165354330709
  0
LINE
 8
Layer0
10
0.0885826771653553
20
-2.80905511811024
30
0.177165354330709
11
0.0870734864005993
21
-2.79759167615196
31
0.177165354330709
  0
LINE
 8
Layer0
10
1.90073762710668
20
-2.00922880665909
30
0.177165354330709
11
1.90958707398209
21
-2.0305932613252
31
0.177165354330709
  0
LINE
 8
Layer0
10
-2.04893933446181
20
-1.92366451102325
30
0.177165354330709
11
-2.06301677150296
21
-1.94201058415985
31
0.177165354330709
  0
LINE
 8
Layer0
10
-2.72047244094488
20
-1.33226762955019e-15
30
0.177165354330709
11
-2.72349082247439
21
0.0229268839165604
31
0.177165354330709
  0
LINE
 8
Layer0
10
0.0442913385826784
20
-2.88576996687067
30
0.177165354330709
11
0.0626374117192819
21
-2.87169252982952
31
0.177165354330709
  0
LINE
 8
Layer0
10
2.0397662978935
20
1.91662579250267
30
0.177165354330709
11
2.04893933446181
21
1.92366451102325
31
0.177165354330709
  0
LINE
 8
Layer0
10
0.81888402403558
20
-0.884558960244027
30
0.177165354330709
11
0.822638007246554
21
-0.889451246413788
31
0.177165354330709
  0
LINE
 8
Layer0
10
2.04893933446181
20
2.04893933446181
30
0.177165354330709
11
2.0305932613252
21
2.06301677150296
31
0.177165354330709
  0
LINE
 8
Layer0
10
-0.0767148487604339
20
2.76476377952756
30
0.177165354330709
11
-0.0626374117192822
21
2.74641770639096
31
0.177165354330709
  0
LINE
 8
Layer0
10
0.815130040824606
20
-0.879666674074265
30
0.177165354330709
11
0.81888402403558
21
-0.884558960244027
31
0.177165354330709
  0
LINE
 8
Layer0
10
-0.0870734864005996
20
2.79759167615196
30
0.177165354330709
11
-0.0855642956358442
21
2.78612823419367
31
0.177165354330709
  0
LINE
 8
Layer0
10
0.810410335824387
20
-0.868272298252338
30
0.177165354330709
11
0.815130040824606
21
-0.879666674074265
31
0.177165354330709
  0
LINE
 8
Layer0
10
1.96337503882596
20
-2.07186621837837
30
0.177165354330709
11
1.98630192274253
21
-2.07488459990788
31
0.177165354330709
  0
LINE
 8
Layer0
10
1.92366451102325
20
-1.92366451102325
30
0.177165354330709
11
1.90958707398209
21
-1.94201058415985
31
0.177165354330709
  0
LINE
 8
Layer0
10
2.04893933446181
20
-1.92366451102325
30
0.177165354330709
11
2.03976629789351
21
-1.91662579250267
31
0.177165354330709
  0
LINE
 8
Layer0
10
0.0229268839165602
20
2.72349082247439
30
0.177165354330709
11
0.0442913385826755
21
2.7323402693498
31
0.177165354330709
  0
LINE
 8
Layer0
10
0.0767148487604339
20
-2.85334645669291
30
0.177165354330709
11
0.0855642956358439
21
-2.8319820020268
31
0.177165354330709
  0
LINE
 8
Layer0
10
0.808800532341981
20
-0.856044626830171
30
0.177165354330709
11
0.810410335824387
21
-0.868272298252338
31
0.177165354330709
  0
LINE
 8
Layer0
10
-2.74641770639096
20
0.0626374117192792
30
0.177165354330709
11
-2.76476377952756
21
0.0767148487604312
31
0.177165354330709
  0
LINE
 8
Layer0
10
0.0626374117192791
20
2.74641770639096
30
0.177165354330709
11
0.076714848760431
21
2.76476377952756
31
0.177165354330709
  0
LINE
 8
Layer0
10
0.810410335824388
20
-0.843816955408005
30
0.177165354330709
11
0.808800532341981
21
-0.856044626830171
31
0.177165354330709
  0
LINE
 8
Layer0
10
2.72349082247439
20
-0.0229268839165609
30
0.177165354330709
11
2.7323402693498
21
-0.0442913385826761
31
0.177165354330709
  0
LINE
 8
Layer0
10
2.07488459990788
20
1.98630192274253
30
0.177165354330709
11
2.07186621837837
21
2.00922880665909
31
0.177165354330709
  0
LINE
 8
Layer0
10
-0.076714848760431
20
-2.85334645669291
30
0.177165354330709
11
-0.0626374117192797
21
-2.87169252982952
31
0.177165354330709
  0
LINE
 8
Layer0
10
2.0305932613252
20
2.06301677150296
30
0.177165354330709
11
2.00922880665909
21
2.07186621837837
31
0.177165354330709
  0
LINE
 8
Layer0
10
-1.94201058415985
20
-1.90958707398209
30
0.177165354330709
11
-1.96337503882596
21
-1.90073762710668
31
0.177165354330709
  0
LINE
 8
Layer0
10
0.0626374117192819
20
-2.87169252982952
30
0.177165354330709
11
0.0767148487604339
21
-2.85334645669291
31
0.177165354330709
  0
LINE
 8
Layer0
10
0.815130040824606
20
-0.832422579586077
30
0.177165354330709
11
0.810410335824388
21
-0.843816955408005
31
0.177165354330709
  0
LINE
 8
Layer0
10
0.822638007246554
20
-0.822638007246555
30
0.177165354330709
11
0.815130040824606
21
-0.832422579586077
31
0.177165354330709
  0
LINE
 8
Layer0
10
2.104412158963
20
-2.19087485277035
30
0.177165354330709
11
2.15333502066061
21
-2.15333502066061
31
0.177165354330709
  0
LINE
 8
Layer0
10
-2.87169252982952
20
0.0626374117192796
30
0.177165354330709
11
-2.88576996687067
21
0.0442913385826755
31
0.177165354330709
  0
LINE
 8
Layer0
10
-1.96337503882596
20
-2.07186621837837
30
0.177165354330709
11
-1.94201058415985
21
-2.06301677150296
31
0.177165354330709
  0
LINE
 8
Layer0
10
0.832422579586076
20
-0.815130040824607
30
0.177165354330709
11
0.822638007246554
21
-0.822638007246555
31
0.177165354330709
  0
LINE
 8
Layer0
10
0.843816955408004
20
-0.810410335824388
30
0.177165354330709
11
0.832422579586076
21
-0.815130040824607
31
0.177165354330709
  0
LINE
 8
Layer0
10
0.0472440944881891
20
1.21062992125984
30
0.177165354330709
11
0.0456342910057829
21
1.22285759268201
31
0.177165354330709
  0
LINE
 8
Layer0
10
0.0464391927469859
20
1.20451608554876
30
0.177165354330709
11
0.0472440944881891
21
1.21062992125984
31
0.177165354330709
  0
LINE
 8
Layer0
10
0.85604462683017
20
-0.808800532341982
30
0.177165354330709
11
0.843816955408004
21
-0.810410335824388
31
0.177165354330709
  0
LINE
 8
Layer0
10
0.868272298252337
20
-0.810410335824388
30
0.177165354330709
11
0.85604462683017
21
-0.808800532341982
31
0.177165354330709
  0
LINE
 8
Layer0
10
0.879666674074265
20
-0.815130040824607
30
0.177165354330709
11
0.868272298252337
21
-0.810410335824388
31
0.177165354330709
  0
LINE
 8
Layer0
10
0.884558960244026
20
-0.818884024035581
30
0.177165354330709
11
0.879666674074265
21
-0.815130040824607
31
0.177165354330709
  0
LINE
 8
Layer0
10
1.25154450726541
20
-0.0236220472440951
30
0.177165354330709
11
1.25626421226563
21
-0.0122276714221671
31
0.177165354330709
  0
LINE
 8
Layer0
10
1.24403654084346
20
-0.033406619583617
30
0.177165354330709
11
1.25154450726541
21
-0.0236220472440951
31
0.177165354330709
  0
LINE
 8
Layer0
10
1.23425196850394
20
-0.0409145860055647
30
0.177165354330709
11
1.24403654084346
21
-0.033406619583617
31
0.177165354330709
  0
LINE
 8
Layer0
10
1.22285759268201
20
-0.0456342910057834
30
0.177165354330709
11
1.23425196850394
21
-0.0409145860055647
31
0.177165354330709
  0
LINE
 8
Layer0
10
1.21062992125984
20
-0.0472440944881897
30
0.177165354330709
11
1.22285759268201
21
-0.0456342910057834
31
0.177165354330709
  0
LINE
 8
Layer0
10
1.20451608554876
20
-0.0464391927469864
30
0.177165354330709
11
1.21062992125984
21
-0.0472440944881897
31
0.177165354330709
  0
LINE
 8
Layer0
10
1.19840224983768
20
-0.0456342910057833
30
0.177165354330709
11
1.20451608554876
21
-0.0464391927469864
31
0.177165354330709
  0
LINE
 8
Layer0
10
0.0334066195836149
20
-1.24403654084346
30
0.177165354330709
11
0.0409145860055626
21
-1.23425196850394
31
0.177165354330709
  0
LINE
 8
Layer0
10
1.18700787401575
20
-0.0409145860055645
30
0.177165354330709
11
1.19840224983768
21
-0.0456342910057833
31
0.177165354330709
  0
LINE
 8
Layer0
10
-0.120162546778177
20
0.937210087416559
30
0.177165354330709
11
-0.358635927171313
21
0.874175072480075
31
0.177165354330709
  0
LINE
 8
Layer0
10
-2.03976629789351
20
1.91662579250267
30
0.177165354330709
11
-2.0305932613252
21
1.90958707398209
31
0.177165354330709
  0
LINE
 8
Layer0
10
2.21447337777144
20
1.92516356563169
30
0.177165354330709
11
2.22252239518347
21
1.98630192274253
31
0.177165354330709
  0
LINE
 8
Layer0
10
-2.15333502066061
20
-1.81926882482444
30
0.177165354330709
11
-2.19087485277035
21
-1.86819168652205
31
0.177165354330709
  0
LINE
 8
Layer0
10
-2.22252239518347
20
-1.98630192274253
30
0.177165354330709
11
-2.21447337777144
21
-2.04744027985336
31
0.177165354330709
  0
LINE
 8
Layer0
10
-0.871729017774863
20
0.364541225614943
30
0.177165354330709
11
-0.936375783708504
21
0.126499712599895
31
0.177165354330709
  0
LINE
 8
Layer0
10
1.47185052927177
20
0.236220472440944
30
0.177165354330709
11
1.46341463414634
21
0.329268292682927
31
0.177165354330709
  0
LINE
 8
Layer0
10
1.17722330167623
20
-0.033406619583617
30
0.177165354330709
11
1.18700787401575
21
-0.0409145860055645
31
0.177165354330709
  0
LINE
 8
Layer0
10
1.16971533525428
20
-0.023622047244095
30
0.177165354330709
11
1.17722330167623
21
-0.033406619583617
31
0.177165354330709
  0
LINE
 8
Layer0
10
2.80905511811024
20
0.236220472440947
30
0.177165354330709
11
1.47185052927177
21
0.236220472440944
31
0.177165354330709
  0
LINE
 8
Layer0
10
1.16499563025406
20
-0.0122276714221669
30
0.177165354330709
11
1.16971533525428
21
-0.023622047244095
31
0.177165354330709
  0
LINE
 8
Layer0
10
0.801962568906694
20
1.26761825407832
30
0.177165354330709
11
0.446552610949026
21
1.43198839578211
31
0.177165354330709
  0
LINE
 8
Layer0
10
0.364541225614943
20
0.871729017774863
30
0.177165354330709
11
0.126499712599895
21
0.936375783708504
31
0.177165354330709
  0
LINE
 8
Layer0
10
1.16338582677165
20
-5.55111512312578e-16
30
0.177165354330709
11
1.16499563025406
21
-0.0122276714221669
31
0.177165354330709
  0
LINE
 8
Layer0
10
1.16499563025406
20
0.0122276714221657
30
0.177165354330709
11
1.16338582677165
21
-5.55111512312578e-16
31
0.177165354330709
  0
LINE
 8
Layer0
10
-0.874175072480075
20
-0.358635927171313
30
0.177165354330709
11
-0.751566470996686
21
-0.572668861801616
31
0.177165354330709
  0
LINE
 8
Layer0
10
1.16971533525428
20
0.0236220472440939
30
0.177165354330709
11
1.16499563025406
21
0.0122276714221657
31
0.177165354330709
  0
LINE
 8
Layer0
10
1.17722330167623
20
0.0334066195836158
30
0.177165354330709
11
1.16971533525428
21
0.0236220472440939
31
0.177165354330709
  0
LINE
 8
Layer0
10
-2.06301677150296
20
2.0305932613252
30
0.177165354330709
11
-2.07186621837837
21
2.00922880665909
31
0.177165354330709
  0
LINE
 8
Layer0
10
1.98630192274253
20
2.22252239518347
30
0.177165354330709
11
1.92516356563169
21
2.21447337777144
31
0.177165354330709
  0
LINE
 8
Layer0
10
0.0456342910057814
20
-1.22285759268201
30
0.177165354330709
11
0.0472440944881878
21
-1.21062992125984
31
0.177165354330709
  0
LINE
 8
Layer0
10
2.06301677150296
20
2.0305932613252
30
0.177165354330709
11
2.04893933446181
21
2.04893933446181
31
0.177165354330709
  0
LINE
 8
Layer0
10
-2.04744027985336
20
-2.21447337777144
30
0.177165354330709
11
-1.98630192274253
21
-2.22252239518347
31
0.177165354330709
  0
LINE
 8
Layer0
10
1.22285759268201
20
0.0456342910057822
30
0.177165354330709
11
1.21062992125984
21
0.0472440944881883
31
0.177165354330709
  0
LINE
 8
Layer0
10
0.446552610949026
20
1.43198839578211
30
0.177165354330709
11
0.236220472440948
21
1.46839322942851
31
0.177165354330709
  0
LINE
 8
Layer0
10
0.0122276714221664
20
1.16499563025406
30
0.177165354330709
11
0.0236220472440945
21
1.16971533525428
31
0.177165354330709
  0
LINE
 8
Layer0
10
-2.19087485277035
20
2.104412158963
30
0.177165354330709
11
-2.21447337777144
21
2.04744027985336
31
0.177165354330709
  0
LINE
 8
Layer0
10
-2.04893933446181
20
1.92366451102324
30
0.177165354330709
11
-2.03976629789351
21
1.91662579250267
31
0.177165354330709
  0
LINE
 8
Layer0
10
-0.696808325879358
20
1.32832908459659
30
0.177165354330709
11
-0.871277712059228
21
1.2053439078954
31
0.177165354330709
  0
LINE
 8
Layer0
10
0.822638007246555
20
0.889451246413787
30
0.177165354330709
11
0.818884024035581
21
0.884558960244026
31
0.177165354330709
  0
LINE
 8
Layer0
10
0.832422579586077
20
0.896959212835734
30
0.177165354330709
11
0.822638007246555
21
0.889451246413787
31
0.177165354330709
  0
LINE
 8
Layer0
10
-0.0122276714221663
20
1.16499563025406
30
0.177165354330709
11
9.71445146547012e-17
21
1.16338582677165
31
0.177165354330709
  0
LINE
 8
Layer0
10
1.25154450726541
20
0.0236220472440939
30
0.177165354330709
11
1.24403654084346
21
0.0334066195836159
31
0.177165354330709
  0
LINE
 8
Layer0
10
0.236220472440945
20
2.80905511811024
30
0.177165354330709
11
0.236220472440948
21
1.46839322942851
31
0.177165354330709
  0
LINE
 8
Layer0
10
0.204572930027823
20
-2.92716535433071
30
0.177165354330709
11
0.228171455028917
21
-2.87019347522107
31
0.177165354330709
  0
LINE
 8
Layer0
10
-1.96337503882597
20
2.07186621837837
30
0.177165354330709
11
-1.98630192274253
21
2.07488459990788
31
0.177165354330709
  0
LINE
 8
Layer0
10
1.32832908459659
20
0.696808325879357
30
0.177165354330709
11
1.2053439078954
21
0.871277712059227
31
0.177165354330709
  0
LINE
 8
Layer0
10
-0.228171455028917
20
2.87019347522107
30
0.177165354330709
11
-0.236220472440948
21
2.80905511811024
31
0.177165354330709
  0
LINE
 8
Layer0
10
-2.07186621837837
20
1.96337503882596
30
0.177165354330709
11
-2.06301677150296
21
1.94201058415985
31
0.177165354330709
  0
LINE
 8
Layer0
10
0.0334066195836151
20
-1.17722330167623
30
0.177165354330709
11
0.0236220472440931
21
-1.16971533525428
31
0.177165354330709
  0
LINE
 8
Layer0
10
2.21447337777144
20
2.04744027985336
30
0.177165354330709
11
2.19087485277035
21
2.104412158963
31
0.177165354330709
  0
LINE
 8
Layer0
10
9.99200722162641e-16
20
-3.04527559055118
30
0.177165354330709
11
0.0611383571108329
21
-3.03722657313915
31
0.177165354330709
  0
LINE
 8
Layer0
10
-0.815130040824607
20
0.879666674074265
30
0.177165354330709
11
-0.81888402403558
21
0.884558960244026
31
0.177165354330709
  0
LINE
 8
Layer0
10
9.71445146547012e-17
20
1.16338582677165
30
0.177165354330709
11
0.0122276714221664
21
1.16499563025406
31
0.177165354330709
  0
LINE
 8
Layer0
10
-1.90073762710668
20
2.00922880665909
30
0.177165354330709
11
-1.90958707398209
21
2.0305932613252
31
0.177165354330709
  0
LINE
 8
Layer0
10
-2.92716535433071
20
-0.204572930027823
30
0.177165354330709
11
-2.87019347522107
21
-0.228171455028917
31
0.177165354330709
  0
LINE
 8
Layer0
10
-2.80905511811024
20
0.236220472440945
30
0.177165354330709
11
-2.87019347522107
21
0.228171455028914
31
0.177165354330709
  0
LINE
 8
Layer0
10
0.696808325879357
20
-1.32832908459659
30
0.177165354330709
11
0.871277712059227
21
-1.2053439078954
31
0.177165354330709
  0
LINE
 8
Layer0
10
0.896959212835735
20
0.832422579586076
30
0.177165354330709
11
0.901678917835954
21
0.843816955408004
31
0.177165354330709
  0
LINE
 8
Layer0
10
0.0767148487604336
20
-2.76476377952756
30
0.177165354330709
11
0.0626374117192819
21
-2.74641770639096
31
0.177165354330709
  0
LINE
 8
Layer0
10
-0.856044626830171
20
0.808800532341982
30
0.177165354330709
11
-0.843816955408004
21
0.810410335824388
31
0.177165354330709
  0
LINE
 8
Layer0
10
1.94201058415985
20
-2.06301677150296
30
0.177165354330709
11
1.96337503882596
21
-2.07186621837837
31
0.177165354330709
  0
LINE
 8
Layer0
10
-0.889451246413788
20
-0.822638007246553
30
0.177165354330709
11
-0.896959212835736
21
-0.832422579586075
31
0.177165354330709
  0
LINE
 8
Layer0
10
2.89461941374608
20
0.0229268839165629
30
0.177165354330709
11
2.88576996687067
21
0.0442913385826781
31
0.177165354330709
  0
LINE
 8
Layer0
10
0.868272298252337
20
0.901678917835953
30
0.177165354330709
11
0.856044626830171
21
0.903288721318359
31
0.177165354330709
  0
LINE
 8
Layer0
10
0.118110236220472
20
3.01362804813806
30
0.177165354330709
11
0.0611383571108305
21
3.03722657313915
31
0.177165354330709
  0
LINE
 8
Layer0
10
2.97608821602832
20
0.167033097918084
30
0.177165354330709
11
2.92716535433071
21
0.204572930027822
31
0.177165354330709
  0
LINE
 8
Layer0
10
-2.104412158963
20
-2.19087485277035
30
0.177165354330709
11
-2.04744027985336
21
-2.21447337777144
31
0.177165354330709
  0
LINE
 8
Layer0
10
0.815130040824607
20
0.879666674074265
30
0.177165354330709
11
0.810410335824388
21
0.868272298252337
31
0.177165354330709
  0
LINE
 8
Layer0
10
0.120162546778176
20
-0.937210087416559
30
0.177165354330709
11
0.358635927171313
21
-0.874175072480075
31
0.177165354330709
  0
LINE
 8
Layer0
10
2.92716535433071
20
0.204572930027822
30
0.177165354330709
11
2.87019347522107
21
0.228171455028916
31
0.177165354330709
  0
LINE
 8
Layer0
10
-2.87019347522107
20
-0.228171455028917
30
0.177165354330709
11
-2.80905511811024
21
-0.236220472440948
31
0.177165354330709
  0
LINE
 8
Layer0
10
-1.43198839578211
20
0.446552610949026
30
0.177165354330709
11
-1.46839322942851
21
0.236220472440948
31
0.177165354330709
  0
LINE
 8
Layer0
10
-0.832422579586077
20
-0.815130040824606
30
0.177165354330709
11
-0.843816955408005
21
-0.810410335824387
31
0.177165354330709
  0
LINE
 8
Layer0
10
-0.0122276714221676
20
-1.25626421226563
30
0.177165354330709
11
-1.33226762955019e-15
21
-1.25787401574803
31
0.177165354330709
  0
LINE
 8
Layer0
10
2.8319820020268
20
0.0855642956358436
30
0.177165354330709
11
2.80905511811024
21
0.088582677165355
31
0.177165354330709
  0
LINE
 8
Layer0
10
-0.896959212835735
20
0.879666674074265
30
0.177165354330709
11
-0.901678917835953
21
0.868272298252337
31
0.177165354330709
  0
LINE
 8
Layer0
10
0.0409145860055641
20
1.18700787401575
30
0.177165354330709
11
0.0456342910057829
21
1.19840224983768
31
0.177165354330709
  0
LINE
 8
Layer0
10
0.0409145860055629
20
-1.18700787401575
30
0.177165354330709
11
0.0334066195836151
21
-1.17722330167623
31
0.177165354330709
  0
LINE
 8
Layer0
10
-1.92366451102325
20
2.04893933446181
30
0.177165354330709
11
-1.94201058415985
21
2.06301677150296
31
0.177165354330709
  0
LINE
 8
Layer0
10
1.19840224983768
20
0.0456342910057822
30
0.177165354330709
11
1.18700787401575
21
0.0409145860055634
31
0.177165354330709
  0
LINE
 8
Layer0
10
0.884558960244026
20
0.81888402403558
30
0.177165354330709
11
0.889451246413788
21
0.822638007246554
31
0.177165354330709
  0
LINE
 8
Layer0
10
-0.884558960244027
20
-0.81888402403558
30
0.177165354330709
11
-0.889451246413788
21
-0.822638007246553
31
0.177165354330709
  0
LINE
 8
Layer0
10
-1.20451608554876
20
-0.0464391927469858
30
0.177165354330709
11
-1.19840224983768
21
-0.0456342910057827
31
0.177165354330709
  0
LINE
 8
Layer0
10
-1.19840224983768
20
0.0456342910057829
30
0.177165354330709
11
-1.20451608554876
21
0.046439192746986
31
0.177165354330709
  0
LINE
 8
Layer0
10
-2.87169252982952
20
-0.0626374117192823
30
0.177165354330709
11
-2.85334645669291
21
-0.0767148487604339
31
0.177165354330709
  0
LINE
 8
Layer0
10
2.87019347522107
20
0.228171455028916
30
0.177165354330709
11
2.80905511811024
21
0.236220472440947
31
0.177165354330709
  0
LINE
 8
Layer0
10
-0.0236220472440944
20
1.16971533525428
30
0.177165354330709
11
-0.0122276714221663
21
1.16499563025406
31
0.177165354330709
  0
LINE
 8
Layer0
10
1.89771924557717
20
-1.98630192274253
30
0.177165354330709
11
1.90073762710668
21
-2.00922880665909
31
0.177165354330709
  0
LINE
 8
Layer0
10
-2.21447337777144
20
1.92516356563169
30
0.177165354330709
11
-2.19087485277035
21
1.86819168652205
31
0.177165354330709
  0
LINE
 8
Layer0
10
-1.91662579250267
20
2.0397662978935
30
0.177165354330709
11
-1.92366451102325
21
2.04893933446181
31
0.177165354330709
  0
LINE
 8
Layer0
10
0.889451246413788
20
0.822638007246554
30
0.177165354330709
11
0.896959212835735
21
0.832422579586076
31
0.177165354330709
  0
LINE
 8
Layer0
10
-2.85334645669291
20
0.0767148487604312
30
0.177165354330709
11
-2.87169252982952
21
0.0626374117192796
31
0.177165354330709
  0
LINE
 8
Layer0
10
-1.16338582677165
20
1.66533453693773e-16
30
0.177165354330709
11
-1.16499563025406
21
0.0122276714221665
31
0.177165354330709
  0
LINE
 8
Layer0
10
1.24403654084346
20
0.0334066195836159
30
0.177165354330709
11
1.23425196850394
21
0.0409145860055634
31
0.177165354330709
  0
LINE
 8
Layer0
10
-0.0122276714221662
20
1.25626421226563
30
0.177165354330709
11
-0.0236220472440944
21
1.25154450726541
31
0.177165354330709
  0
LINE
 8
Layer0
10
1.86819168652205
20
2.19087485277035
30
0.177165354330709
11
1.81926882482444
21
2.15333502066061
31
0.177165354330709
  0
LINE
 8
Layer0
10
-0.0472440944881889
20
1.21062992125984
30
0.177165354330709
11
-0.0464391927469858
21
1.20451608554876
31
0.177165354330709
  0
LINE
 8
Layer0
10
3.03722657313915
20
-0.0611383571108313
30
0.177165354330709
11
3.04527559055118
21
9.99200722162641e-16
31
0.177165354330709
  0
LINE
 8
Layer0
10
0.751566470996686
20
0.572668861801616
30
0.177165354330709
11
0.577739856537191
21
0.74767535988018
31
0.177165354330709
  0
LINE
 8
Layer0
10
-1.81926882482444
20
2.15333502066061
30
0.177165354330709
11
-0.871277712059228
21
1.2053439078954
31
0.177165354330709
  0
LINE
 8
Layer0
10
-2.0305932613252
20
2.06301677150296
30
0.177165354330709
11
-2.04893933446181
21
2.04893933446181
31
0.177165354330709
  0
LINE
 8
Layer0
10
-2.104412158963
20
2.19087485277035
30
0.177165354330709
11
-2.15333502066061
21
2.15333502066061
31
0.177165354330709
  0
LINE
 8
Layer0
10
0.0334066195836165
20
1.17722330167623
30
0.177165354330709
11
0.0409145860055641
21
1.18700787401575
31
0.177165354330709
  0
LINE
 8
Layer0
10
-0.810410335824388
20
0.868272298252337
30
0.177165354330709
11
-0.815130040824607
21
0.879666674074265
31
0.177165354330709
  0
LINE
 8
Layer0
10
2.22252239518347
20
1.98630192274253
30
0.177165354330709
11
2.21447337777144
21
2.04744027985336
31
0.177165354330709
  0
LINE
 8
Layer0
10
2.15333502066061
20
1.81926882482444
30
0.177165354330709
11
2.19087485277035
21
1.86819168652205
31
0.177165354330709
  0
LINE
 8
Layer0
10
-1.6092368412409e-15
20
3.04527559055118
30
0.177165354330709
11
-0.0611383571108337
21
3.03722657313915
31
0.177165354330709
  0
LINE
 8
Layer0
10
-0.0456342910057827
20
1.19840224983768
30
0.177165354330709
11
-0.040914586005564
21
1.18700787401575
31
0.177165354330709
  0
LINE
 8
Layer0
10
-0.815130040824608
20
-0.879666674074264
30
0.177165354330709
11
-0.810410335824389
21
-0.868272298252336
31
0.177165354330709
  0
LINE
 8
Layer0
10
0.868272298252338
20
0.810410335824388
30
0.177165354330709
11
0.879666674074265
21
0.815130040824606
31
0.177165354330709
  0
LINE
 8
Layer0
10
-3.01362804813806
20
0.118110236220472
30
0.177165354330709
11
-3.03722657313915
21
0.0611383571108309
31
0.177165354330709
  0
LINE
 8
Layer0
10
-2.21447337777144
20
2.04744027985336
30
0.177165354330709
11
-2.22252239518347
21
1.98630192274253
31
0.177165354330709
  0
LINE
 8
Layer0
10
-0.856044626830171
20
0.90328872131836
30
0.177165354330709
11
-0.868272298252337
21
0.901678917835954
31
0.177165354330709
  0
LINE
 8
Layer0
10
2.88576996687067
20
0.0442913385826781
30
0.177165354330709
11
2.87169252982952
21
0.0626374117192816
31
0.177165354330709
  0
LINE
 8
Layer0
10
-2.19087485277035
20
-1.86819168652205
30
0.177165354330709
11
-2.21447337777144
21
-1.92516356563169
31
0.177165354330709
  0
LINE
 8
Layer0
10
1.91662579250267
20
-2.0397662978935
30
0.177165354330709
11
1.92366451102325
21
-2.04893933446181
31
0.177165354330709
  0
LINE
 8
Layer0
10
-0.118110236220475
20
3.01362804813806
30
0.177165354330709
11
-0.167033097918085
21
2.97608821602832
31
0.177165354330709
  0
LINE
 8
Layer0
10
-2.97608821602832
20
0.167033097918082
30
0.177165354330709
11
-3.01362804813806
21
0.118110236220472
31
0.177165354330709
  0
LINE
 8
Layer0
10
-1.46341463414634
20
-0.329268292682927
30
0.177165354330709
11
-1.32832908459659
21
-0.696808325879357
31
0.177165354330709
  0
LINE
 8
Layer0
10
-0.204572930027821
20
-2.92716535433071
30
0.177165354330709
11
-0.167033097918082
21
-2.97608821602832
31
0.177165354330709
  0
LINE
 8
Layer0
10
-0.0626374117192823
20
2.87169252982952
30
0.177165354330709
11
-0.0767148487604343
21
2.85334645669291
31
0.177165354330709
  0
LINE
 8
Layer0
10
0.843816955408005
20
0.901678917835953
30
0.177165354330709
11
0.832422579586077
21
0.896959212835734
31
0.177165354330709
  0
LINE
 8
Layer0
10
-0.0611383571108312
20
-3.03722657313915
30
0.177165354330709
11
9.99200722162641e-16
21
-3.04527559055118
31
0.177165354330709
  0
LINE
 8
Layer0
10
-1.22285759268201
20
0.045634291005783
30
0.177165354330709
11
-1.23425196850394
21
0.0409145860055643
31
0.177165354330709
  0
LINE
 8
Layer0
10
-0.118110236220472
20
-3.01362804813806
30
0.177165354330709
11
-0.0611383571108312
21
-3.03722657313915
31
0.177165354330709
  0
LINE
 8
Layer0
10
0.126499712599895
20
0.936375783708504
30
0.177165354330709
11
-0.120162546778177
21
0.937210087416559
31
0.177165354330709
  0
LINE
 8
Layer0
10
2.06301677150296
20
-1.94201058415985
30
0.177165354330709
11
2.04893933446181
21
-1.92366451102325
31
0.177165354330709
  0
LINE
 8
Layer0
10
-0.801962568906694
20
-1.26761825407832
30
0.177165354330709
11
-0.446552610949027
21
-1.43198839578211
31
0.177165354330709
  0
LINE
 8
Layer0
10
0.74767535988018
20
-0.577739856537192
30
0.177165354330709
11
0.871729017774863
21
-0.364541225614943
31
0.177165354330709
  0
LINE
 8
Layer0
10
-0.0442913385826759
20
-2.88576996687067
30
0.177165354330709
11
-0.0229268839165606
21
-2.89461941374608
31
0.177165354330709
  0
LINE
 8
Layer0
10
0.0334066195836165
20
1.24403654084346
30
0.177165354330709
11
0.0236220472440946
21
1.25154450726541
31
0.177165354330709
  0
LINE
 8
Layer0
10
-0.0236220472440944
20
1.25154450726541
30
0.177165354330709
11
-0.0334066195836163
21
1.24403654084346
31
0.177165354330709
  0
LINE
 8
Layer0
10
-0.868272298252337
20
0.901678917835954
30
0.177165354330709
11
-0.879666674074265
21
0.896959212835735
31
0.177165354330709
  0
LINE
 8
Layer0
10
-1.96337503882597
20
1.90073762710668
30
0.177165354330709
11
-1.94201058415985
21
1.90958707398209
31
0.177165354330709
  0
LINE
 8
Layer0
10
-1.17722330167623
20
-0.0334066195836163
30
0.177165354330709
11
-1.16971533525428
21
-0.0236220472440943
31
0.177165354330709
  0
LINE
 8
Layer0
10
-1.20451608554876
20
0.046439192746986
30
0.177165354330709
11
-1.21062992125984
21
0.0472440944881892
31
0.177165354330709
  0
LINE
 8
Layer0
10
0.856044626830171
20
0.903288721318359
30
0.177165354330709
11
0.843816955408005
21
0.901678917835953
31
0.177165354330709
  0
LINE
 8
Layer0
10
1.25787401574803
20
-5.55111512312578e-16
30
0.177165354330709
11
1.25626421226563
21
0.0122276714221657
31
0.177165354330709
  0
LINE
 8
Layer0
10
2.80905511811024
20
-0.236220472440946
30
0.177165354330709
11
1.46839322942851
21
-0.236220472440949
31
0.177165354330709
  0
LINE
 8
Layer0
10
-0.204572930027823
20
2.92716535433071
30
0.177165354330709
11
-0.228171455028917
21
2.87019347522107
31
0.177165354330709
  0
LINE
 8
Layer0
10
-2.87019347522107
20
0.228171455028914
30
0.177165354330709
11
-2.92716535433071
21
0.204572930027821
31
0.177165354330709
  0
LINE
 8
Layer0
10
2.21447337777144
20
-2.04744027985336
30
0.177165354330709
11
2.22252239518347
21
-1.98630192274253
31
0.177165354330709
  0
LINE
 8
Layer0
10
-2.19087485277035
20
-2.104412158963
30
0.177165354330709
11
-2.15333502066061
21
-2.15333502066061
31
0.177165354330709
  0
LINE
 8
Layer0
10
-0.879666674074266
20
-0.815130040824606
30
0.177165354330709
11
-0.884558960244027
21
-0.81888402403558
31
0.177165354330709
  0
LINE
 8
Layer0
10
2.15333502066061
20
-1.81926882482444
30
0.177165354330709
11
1.20778858805916
21
-0.873722392222997
31
0.177165354330709
  0
LINE
 8
Layer0
10
-2.15333502066061
20
-2.15333502066061
30
0.177165354330709
11
-2.104412158963
21
-2.19087485277035
31
0.177165354330709
  0
LINE
 8
Layer0
10
-0.879666674074265
20
0.815130040824607
30
0.177165354330709
11
-0.868272298252337
21
0.810410335824388
31
0.177165354330709
  0
LINE
 8
Layer0
10
-0.818884024035582
20
-0.884558960244025
30
0.177165354330709
11
-0.815130040824608
21
-0.879666674074264
31
0.177165354330709
  0
LINE
 8
Layer0
10
-0.364541225614943
20
-0.871729017774863
30
0.177165354330709
11
-0.126499712599895
21
-0.936375783708504
31
0.177165354330709
  0
LINE
 8
Layer0
10
-0.0626374117192797
20
-2.87169252982952
30
0.177165354330709
11
-0.0442913385826759
21
-2.88576996687067
31
0.177165354330709
  0
LINE
 8
Layer0
10
-2.21447337777144
20
-2.04744027985336
30
0.177165354330709
11
-2.19087485277035
21
-2.104412158963
31
0.177165354330709
  0
LINE
 8
Layer0
10
-1.25626421226563
20
0.0122276714221666
30
0.177165354330709
11
-1.25787401574803
21
1.80411241501588e-16
31
0.177165354330709
  0
LINE
 8
Layer0
10
-0.236220472440948
20
2.80905511811024
30
0.177165354330709
11
-0.236220472440945
21
1.47185052927177
31
0.177165354330709
  0
LINE
 8
Layer0
10
3.04527559055118
20
9.99200722162641e-16
30
0.177165354330709
11
3.03722657313915
21
0.0611383571108328
31
0.177165354330709
  0
LINE
 8
Layer0
10
0.0855642956358407
20
2.8319820020268
30
0.177165354330709
11
0.0767148487604307
21
2.85334645669291
31
0.177165354330709
  0
LINE
 8
Layer0
10
-1.94201058415985
20
1.90958707398209
30
0.177165354330709
11
-1.92366451102325
21
1.92366451102325
31
0.177165354330709
  0
LINE
 8
Layer0
10
-0.0334066195836176
20
-1.17722330167623
30
0.177165354330709
11
-0.0409145860055655
21
-1.18700787401575
31
0.177165354330709
  0
LINE
 8
Layer0
10
-0.832422579586076
20
0.896959212835735
30
0.177165354330709
11
-0.843816955408004
21
0.901678917835954
31
0.177165354330709
  0
LINE
 8
Layer0
10
0.0767148487604307
20
2.85334645669291
30
0.177165354330709
11
0.0626374117192793
21
2.87169252982952
31
0.177165354330709
  0
LINE
 8
Layer0
10
-1.98630192274253
20
-2.22252239518347
30
0.177165354330709
11
-1.9251635656317
21
-2.21447337777144
31
0.177165354330709
  0
LINE
 8
Layer0
10
-0.937210087416559
20
-0.120162546778176
30
0.177165354330709
11
-0.874175072480075
21
-0.358635927171313
31
0.177165354330709
  0
LINE
 8
Layer0
10
-0.896959212835735
20
0.832422579586076
30
0.177165354330709
11
-0.889451246413787
21
0.822638007246554
31
0.177165354330709
  0
LINE
 8
Layer0
10
-1.55431223447522e-15
20
-1.16338582677165
30
0.177165354330709
11
-0.0122276714221676
21
-1.16499563025406
31
0.177165354330709
  0
LINE
 8
Layer0
10
-0.810410335824389
20
-0.843816955408004
30
0.177165354330709
11
-0.815130040824608
21
-0.832422579586075
31
0.177165354330709
  0
LINE
 8
Layer0
10
1.96337503882596
20
1.90073762710668
30
0.177165354330709
11
1.98630192274253
21
1.89771924557717
31
0.177165354330709
  0
LINE
 8
Layer0
10
-0.0409145860055655
20
-1.18700787401575
30
0.177165354330709
11
-0.0456342910057841
21
-1.19840224983768
31
0.177165354330709
  0
LINE
 8
Layer0
10
-1.19840224983768
20
-0.0456342910057827
30
0.177165354330709
11
-1.18700787401575
21
-0.0409145860055639
31
0.177165354330709
  0
LINE
 8
Layer0
10
0.937210087416559
20
0.120162546778176
30
0.177165354330709
11
0.874175072480075
21
0.358635927171313
31
0.177165354330709
  0
LINE
 8
Layer0
10
0.236220472440947
20
-2.80905511811024
30
0.177165354330709
11
0.236220472440944
21
-1.47185052927177
31
0.177165354330709
  0
LINE
 8
Layer0
10
0.0456342910057814
20
-1.19840224983768
30
0.177165354330709
11
0.0409145860055629
21
-1.18700787401575
31
0.177165354330709
  0
LINE
 8
Layer0
10
-0.808800532341982
20
0.856044626830171
30
0.177165354330709
11
-0.810410335824388
21
0.868272298252337
31
0.177165354330709
  0
LINE
 8
Layer0
10
-1.9251635656317
20
2.21447337777144
30
0.177165354330709
11
-1.98630192274253
21
2.22252239518347
31
0.177165354330709
  0
LINE
 8
Layer0
10
0.0855642956358439
20
-2.78612823419367
30
0.177165354330709
11
0.0767148487604336
21
-2.76476377952756
31
0.177165354330709
  0
LINE
 8
Layer0
10
-1.20778858805916
20
0.873722392222997
30
0.177165354330709
11
-1.26761825407832
21
0.801962568906694
31
0.177165354330709
  0
LINE
 8
Layer0
10
-0.0456342910057827
20
1.22285759268201
30
0.177165354330709
11
-0.0472440944881889
21
1.21062992125984
31
0.177165354330709
  0
LINE
 8
Layer0
10
-0.843816955408004
20
0.810410335824388
30
0.177165354330709
11
-0.832422579586076
21
0.815130040824607
31
0.177165354330709
  0
LINE
 8
Layer0
10
0.873722392222997
20
1.20778858805916
30
0.177165354330709
11
0.801962568906694
21
1.26761825407832
31
0.177165354330709
  0
LINE
 8
Layer0
10
-0.901678917835955
20
-0.868272298252336
30
0.177165354330709
11
-0.896959212835736
21
-0.879666674074264
31
0.177165354330709
  0
LINE
 8
Layer0
10
-0.903288721318361
20
-0.85604462683017
30
0.177165354330709
11
-0.901678917835955
21
-0.868272298252336
31
0.177165354330709
  0
LINE
 8
Layer0
10
2.19087485277035
20
1.86819168652205
30
0.177165354330709
11
2.21447337777144
21
1.92516356563169
31
0.177165354330709
  0
LINE
 8
Layer0
10
0.358635927171313
20
-0.874175072480075
30
0.177165354330709
11
0.572668861801616
21
-0.751566470996686
31
0.177165354330709
  0
LINE
 8
Layer0
10
-0.0334066195836163
20
1.24403654084346
30
0.177165354330709
11
-0.0409145860055639
21
1.23425196850394
31
0.177165354330709
  0
LINE
 8
Layer0
10
2.72349082247439
20
0.0229268839165627
30
0.177165354330709
11
2.72047244094488
21
9.0205620750794e-16
31
0.177165354330709
  0
LINE
 8
Layer0
10
-0.0236220472440958
20
-1.16971533525428
30
0.177165354330709
11
-0.0334066195836176
21
-1.17722330167623
31
0.177165354330709
  0
LINE
 8
Layer0
10
1.81926882482444
20
2.15333502066061
30
0.177165354330709
11
0.873722392222997
21
1.20778858805916
31
0.177165354330709
  0
LINE
 8
Layer0
10
1.98630192274253
20
1.89771924557717
30
0.177165354330709
11
2.00922880665909
21
1.90073762710668
31
0.177165354330709
  0
LINE
 8
Layer0
10
0.012227671422165
20
-1.16499563025406
30
0.177165354330709
11
-1.55431223447522e-15
21
-1.16338582677165
31
0.177165354330709
  0
LINE
 8
Layer0
10
-0.884558960244026
20
0.818884024035581
30
0.177165354330709
11
-0.879666674074265
21
0.815130040824607
31
0.177165354330709
  0
LINE
 8
Layer0
10
1.86819168652205
20
-2.19087485277035
30
0.177165354330709
11
1.92516356563169
21
-2.21447337777144
31
0.177165354330709
  0
LINE
 8
Layer0
10
-1.16499563025406
20
-0.0122276714221662
30
0.177165354330709
11
-1.16338582677165
21
1.66533453693773e-16
31
0.177165354330709
  0
LINE
 8
Layer0
10
2.15333502066061
20
2.15333502066061
30
0.177165354330709
11
2.104412158963
21
2.19087485277035
31
0.177165354330709
  0
LINE
 8
Layer0
10
-0.0229268839165605
20
-2.72349082247439
30
0.177165354330709
11
-0.0442913385826759
21
-2.7323402693498
31
0.177165354330709
  0
LINE
 8
Layer0
10
-2.00922880665909
20
2.07186621837837
30
0.177165354330709
11
-2.0305932613252
21
2.06301677150296
31
0.177165354330709
  0
LINE
 8
Layer0
10
1.81926882482444
20
-2.15333502066061
30
0.177165354330709
11
0.871277712059227
21
-1.2053439078954
31
0.177165354330709
  0
LINE
 8
Layer0
10
2.92716535433071
20
-0.204572930027821
30
0.177165354330709
11
2.97608821602832
21
-0.167033097918082
31
0.177165354330709
  0
LINE
 8
Layer0
10
0.832422579586077
20
0.815130040824606
30
0.177165354330709
11
0.843816955408005
21
0.810410335824387
31
0.177165354330709
  0
LINE
 8
Layer0
10
1.25626421226563
20
-0.0122276714221671
30
0.177165354330709
11
1.25787401574803
21
-5.55111512312578e-16
31
0.177165354330709
  0
LINE
 8
Layer0
10
-1.25154450726541
20
0.0236220472440947
30
0.177165354330709
11
-1.25626421226563
21
0.0122276714221666
31
0.177165354330709
  0
LINE
 8
Layer0
10
0.228171455028914
20
2.87019347522107
30
0.177165354330709
11
0.20457293002782
21
2.92716535433071
31
0.177165354330709
  0
LINE
 8
Layer0
10
-0.879666674074265
20
0.896959212835735
30
0.177165354330709
11
-0.889451246413787
21
0.889451246413787
31
0.177165354330709
  0
LINE
 8
Layer0
10
-0.843816955408005
20
-0.810410335824387
30
0.177165354330709
11
-0.856044626830172
21
-0.808800532341981
31
0.177165354330709
  0
LINE
 8
Layer0
10
-0.822638007246555
20
-0.822638007246553
30
0.177165354330709
11
-0.832422579586077
21
-0.815130040824606
31
0.177165354330709
  0
LINE
 8
Layer0
10
0.0236220472440945
20
1.16971533525428
30
0.177165354330709
11
0.0334066195836165
21
1.17722330167623
31
0.177165354330709
  0
LINE
 8
Layer0
10
-0.889451246413788
20
-0.889451246413786
30
0.177165354330709
11
-0.879666674074266
21
-0.896959212835734
31
0.177165354330709
  0
LINE
 8
Layer0
10
-1.81926882482444
20
2.15333502066061
30
0.177165354330709
11
-1.86819168652205
21
2.19087485277035
31
0.177165354330709
  0
LINE
 8
Layer0
10
-0.822638007246554
20
0.822638007246554
30
0.177165354330709
11
-0.815130040824607
21
0.832422579586076
31
0.177165354330709
  0
LINE
 8
Layer0
10
-0.896959212835736
20
-0.832422579586075
30
0.177165354330709
11
-0.901678917835954
21
-0.843816955408003
31
0.177165354330709
  0
LINE
 8
Layer0
10
-2.22252239518347
20
1.98630192274253
30
0.177165354330709
11
-2.21447337777144
21
1.92516356563169
31
0.177165354330709
  0
LINE
 8
Layer0
10
0.0472440944881878
20
-1.21062992125984
30
0.177165354330709
11
0.0464391927469845
21
-1.20451608554876
31
0.177165354330709
  0
LINE
 8
Layer0
10
0.90328872131836
20
0.85604462683017
30
0.177165354330709
11
0.901678917835954
21
0.868272298252337
31
0.177165354330709
  0
LINE
 8
Layer0
10
2.104412158963
20
2.19087485277035
30
0.177165354330709
11
2.04744027985336
21
2.21447337777144
31
0.177165354330709
  0
LINE
 8
Layer0
10
0.810410335824388
20
0.843816955408004
30
0.177165354330709
11
0.815130040824607
21
0.832422579586076
31
0.177165354330709
  0
LINE
 8
Layer0
10
0.572668861801616
20
-0.751566470996686
30
0.177165354330709
11
0.74767535988018
21
-0.577739856537192
31
0.177165354330709
  0
LINE
 8
Layer0
10
-1.18700787401575
20
0.0409145860055642
30
0.177165354330709
11
-1.19840224983768
21
0.0456342910057829
31
0.177165354330709
  0
LINE
 8
Layer0
10
-3.04527559055118
20
-1.36696209906972e-15
30
0.177165354330709
11
-3.03722657313915
21
-0.0611383571108333
31
0.177165354330709
  0
LINE
 8
Layer0
10
0.810410335824388
20
0.868272298252337
30
0.177165354330709
11
0.808800532341982
21
0.85604462683017
31
0.177165354330709
  0
LINE
 8
Layer0
10
-0.889451246413787
20
0.822638007246554
30
0.177165354330709
11
-0.884558960244026
21
0.818884024035581
31
0.177165354330709
  0
LINE
 8
Layer0
10
-1.21062992125984
20
-0.0472440944881889
30
0.177165354330709
11
-1.20451608554876
21
-0.0464391927469858
31
0.177165354330709
  0
LINE
 8
Layer0
10
-0.810410335824389
20
-0.868272298252336
30
0.177165354330709
11
-0.808800532341983
21
-0.85604462683017
31
0.177165354330709
  0
LINE
 8
Layer0
10
0.0456342910057829
20
1.19840224983768
30
0.177165354330709
11
0.0464391927469859
21
1.20451608554876
31
0.177165354330709
  0
LINE
 8
Layer0
10
-2.80905511811024
20
-0.236220472440948
30
0.177165354330709
11
-1.47185052927177
21
-0.236220472440945
31
0.177165354330709
  0
LINE
 8
Layer0
10
-1.32832908459659
20
-0.696808325879357
30
0.177165354330709
11
-1.2053439078954
21
-0.871277712059227
31
0.177165354330709
  0
LINE
 8
Layer0
10
0.236220472440945
20
2.80905511811024
30
0.177165354330709
11
0.228171455028914
21
2.87019347522107
31
0.177165354330709
  0
LINE
 8
Layer0
10
-0.0626374117192794
20
-2.74641770639096
30
0.177165354330709
11
-0.0767148487604314
21
-2.76476377952756
31
0.177165354330709
  0
LINE
 8
Layer0
10
0.167033097918082
20
2.97608821602832
30
0.177165354330709
11
0.118110236220472
21
3.01362804813806
31
0.177165354330709
  0
LINE
 8
Layer0
10
-2.79759167615196
20
0.0870734864005969
30
0.177165354330709
11
-2.80905511811024
21
0.0885826771653528
31
0.177165354330709
  0
LINE
 8
Layer0
10
0.815130040824607
20
0.832422579586076
30
0.177165354330709
11
0.822638007246555
21
0.822638007246554
31
0.177165354330709
  0
LINE
 8
Layer0
10
1.46341463414634
20
0.329268292682927
30
0.177165354330709
11
1.32832908459659
21
0.696808325879357
31
0.177165354330709
  0
LINE
 8
Layer0
10
0.0236220472440946
20
1.25154450726541
30
0.177165354330709
11
0.0122276714221665
21
1.25626421226563
31
0.177165354330709
  0
LINE
 8
Layer0
10
-0.822638007246555
20
-0.889451246413786
30
0.177165354330709
11
-0.818884024035582
21
-0.884558960244025
31
0.177165354330709
  0
LINE
 8
Layer0
10
-1.23425196850394
20
-0.0409145860055638
30
0.177165354330709
11
-1.22285759268201
21
-0.0456342910057826
31
0.177165354330709
  0
LINE
 8
Layer0
10
0.896959212835735
20
0.879666674074265
30
0.177165354330709
11
0.889451246413788
21
0.889451246413787
31
0.177165354330709
  0
LINE
 8
Layer0
10
2.87019347522107
20
-0.228171455028914
30
0.177165354330709
11
2.92716535433071
21
-0.204572930027821
31
0.177165354330709
  0
LINE
 8
Layer0
10
-0.901678917835954
20
-0.843816955408003
30
0.177165354330709
11
-0.903288721318361
21
-0.85604462683017
31
0.177165354330709
  0
LINE
 8
Layer0
10
-0.126499712599895
20
-0.936375783708504
30
0.177165354330709
11
0.120162546778176
21
-0.937210087416559
31
0.177165354330709
  0
LINE
 8
Layer0
10
-1.9251635656317
20
-2.21447337777144
30
0.177165354330709
11
-1.86819168652205
21
-2.19087485277035
31
0.177165354330709
  0
LINE
 8
Layer0
10
1.04083408558608e-16
20
1.25787401574803
30
0.177165354330709
11
-0.0122276714221662
21
1.25626421226563
31
0.177165354330709
  0
LINE
 8
Layer0
10
0.329268292682926
20
-1.46341463414634
30
0.177165354330709
11
0.696808325879357
21
-1.32832908459659
31
0.177165354330709
  0
LINE
 8
Layer0
10
-0.868272298252338
20
-0.810410335824387
30
0.177165354330709
11
-0.879666674074266
21
-0.815130040824606
31
0.177165354330709
  0
LINE
 8
Layer0
10
0.889451246413788
20
0.889451246413787
30
0.177165354330709
11
0.879666674074266
21
0.896959212835734
31
0.177165354330709
  0
LINE
 8
Layer0
10
0.818884024035581
20
0.884558960244026
30
0.177165354330709
11
0.815130040824607
21
0.879666674074265
31
0.177165354330709
  0
LINE
 8
Layer0
10
-0.868272298252338
20
-0.901678917835953
30
0.177165354330709
11
-0.856044626830172
21
-0.903288721318359
31
0.177165354330709
  0
LINE
 8
Layer0
10
0.20457293002782
20
2.92716535433071
30
0.177165354330709
11
0.167033097918082
21
2.97608821602832
31
0.177165354330709
  0
LINE
 8
Layer0
10
-0.843816955408005
20
-0.901678917835953
30
0.177165354330709
11
-0.832422579586077
21
-0.896959212835734
31
0.177165354330709
  0
LINE
 8
Layer0
10
0.871729017774863
20
-0.364541225614943
30
0.177165354330709
11
0.936375783708504
21
-0.126499712599895
31
0.177165354330709
  0
LINE
 8
Layer0
10
0.874175072480075
20
0.358635927171313
30
0.177165354330709
11
0.751566470996686
21
0.572668861801616
31
0.177165354330709
  0
LINE
 8
Layer0
10
2.19087485277035
20
-2.104412158963
30
0.177165354330709
11
2.21447337777144
21
-2.04744027985336
31
0.177165354330709
  0
LINE
 8
Layer0
10
-0.0122276714221676
20
-1.16499563025406
30
0.177165354330709
11
-0.0236220472440958
21
-1.16971533525428
31
0.177165354330709
  0
LINE
 8
Layer0
10
0.0236220472440931
20
-1.16971533525428
30
0.177165354330709
11
0.012227671422165
21
-1.16499563025406
31
0.177165354330709
  0
LINE
 8
Layer0
10
0.808800532341982
20
0.85604462683017
30
0.177165354330709
11
0.810410335824388
21
0.843816955408004
31
0.177165354330709
  0
LINE
 8
Layer0
10
-1.24403654084346
20
-0.0334066195836163
30
0.177165354330709
11
-1.23425196850394
21
-0.0409145860055638
31
0.177165354330709
  0
LINE
 8
Layer0
10
-1.16971533525428
20
0.0236220472440946
30
0.177165354330709
11
-1.17722330167623
21
0.0334066195836166
31
0.177165354330709
  0
LINE
 8
Layer0
10
-0.832422579586077
20
-0.896959212835734
30
0.177165354330709
11
-0.822638007246555
21
-0.889451246413786
31
0.177165354330709
  0
LINE
 8
Layer0
10
1.98630192274253
20
-2.22252239518347
30
0.177165354330709
11
2.04744027985336
21
-2.21447337777144
31
0.177165354330709
  0
LINE
 8
Layer0
10
-0.81888402403558
20
0.884558960244026
30
0.177165354330709
11
-0.822638007246554
21
0.889451246413787
31
0.177165354330709
  0
LINE
 8
Layer0
10
-2.15333502066061
20
2.15333502066061
30
0.177165354330709
11
-2.19087485277035
21
2.104412158963
31
0.177165354330709
  0
LINE
 8
Layer0
10
-0.0229268839165606
20
-2.89461941374608
30
0.177165354330709
11
1.4432899320127e-15
21
-2.89763779527559
31
0.177165354330709
  0
LINE
 8
Layer0
10
-0.856044626830172
20
-0.808800532341981
30
0.177165354330709
11
-0.868272298252338
21
-0.810410335824387
31
0.177165354330709
  0
LINE
 8
Layer0
10
3.01362804813806
20
-0.118110236220472
30
0.177165354330709
11
3.03722657313915
21
-0.0611383571108313
31
0.177165354330709
  0
LINE
 8
Layer0
10
-1.94201058415985
20
2.06301677150296
30
0.177165354330709
11
-1.96337503882597
21
2.07186621837837
31
0.177165354330709
  0
LINE
 8
Layer0
10
-0.856044626830172
20
-0.903288721318359
30
0.177165354330709
11
-0.843816955408005
21
-0.901678917835953
31
0.177165354330709
  0
LINE
 8
Layer0
10
-1.25626421226563
20
-0.0122276714221661
30
0.177165354330709
11
-1.25154450726541
21
-0.0236220472440943
31
0.177165354330709
  0
LINE
 8
Layer0
10
-2.00922880665909
20
1.90073762710668
30
0.177165354330709
11
-1.98630192274253
21
1.89771924557717
31
0.177165354330709
  0
LINE
 8
Layer0
10
-0.358635927171313
20
0.874175072480075
30
0.177165354330709
11
-0.572668861801616
21
0.751566470996686
31
0.177165354330709
  0
LINE
 8
Layer0
10
0.0442913385826755
20
2.88576996687067
30
0.177165354330709
11
0.0229268839165603
21
2.89461941374608
31
0.177165354330709
  0
LINE
 8
Layer0
10
2.80905511811024
20
-0.236220472440946
30
0.177165354330709
11
2.87019347522107
21
-0.228171455028914
31
0.177165354330709
  0
LINE
 8
Layer0
10
0.901678917835954
20
0.868272298252337
30
0.177165354330709
11
0.896959212835735
21
0.879666674074265
31
0.177165354330709
  0
LINE
 8
Layer0
10
1.25626421226563
20
0.0122276714221657
30
0.177165354330709
11
1.25154450726541
21
0.0236220472440939
31
0.177165354330709
  0
LINE
 8
Layer0
10
0.843816955408005
20
0.810410335824387
30
0.177165354330709
11
0.856044626830171
21
0.808800532341981
31
0.177165354330709
  0
LINE
 8
Layer0
10
-0.446552610949027
20
-1.43198839578211
30
0.177165354330709
11
-0.236220472440949
21
-1.46839322942851
31
0.177165354330709
  0
LINE
 8
Layer0
10
2.89763779527559
20
8.18789480661053e-16
30
0.177165354330709
11
2.89461941374608
21
0.0229268839165629
31
0.177165354330709
  0
LINE
 8
Layer0
10
-1.92366451102325
20
-2.04893933446181
30
0.177165354330709
11
-1.91662579250267
21
-2.0397662978935
31
0.177165354330709
  0
LINE
 8
Layer0
10
0.0122276714221665
20
1.25626421226563
30
0.177165354330709
11
1.04083408558608e-16
21
1.25787401574803
31
0.177165354330709
  0
LINE
 8
Layer0
10
3.03722657313915
20
0.0611383571108328
30
0.177165354330709
11
3.01362804813806
21
0.118110236220474
31
0.177165354330709
  0
LINE
 8
Layer0
10
-0.0409145860055639
20
1.23425196850394
30
0.177165354330709
11
-0.0456342910057827
21
1.22285759268201
31
0.177165354330709
  0
LINE
 8
Layer0
10
-0.751566470996686
20
-0.572668861801616
30
0.177165354330709
11
-0.577739856537191
21
-0.74767535988018
31
0.177165354330709
  0
LINE
 8
Layer0
10
-0.815130040824608
20
-0.832422579586075
30
0.177165354330709
11
-0.822638007246555
21
-0.822638007246553
31
0.177165354330709
  0
LINE
 8
Layer0
10
-0.167033097918082
20
-2.97608821602832
30
0.177165354330709
11
-0.118110236220472
21
-3.01362804813806
31
0.177165354330709
  0
LINE
 8
Layer0
10
-0.889451246413787
20
0.889451246413787
30
0.177165354330709
11
-0.896959212835735
21
0.879666674074265
31
0.177165354330709
  0
LINE
 8
Layer0
10
-0.329268292682927
20
1.46341463414634
30
0.177165354330709
11
-0.696808325879358
21
1.32832908459659
31
0.177165354330709
  0
LINE
 8
Layer0
10
-1.24403654084346
20
0.0334066195836166
30
0.177165354330709
11
-1.25154450726541
21
0.0236220472440947
31
0.177165354330709
  0
LINE
 8
Layer0
10
-2.0305932613252
20
1.90958707398209
30
0.177165354330709
11
-2.00922880665909
21
1.90073762710668
31
0.177165354330709
  0
LINE
 8
Layer0
10
-1.16971533525428
20
-0.0236220472440943
30
0.177165354330709
11
-1.16499563025406
21
-0.0122276714221662
31
0.177165354330709
  0
LINE
 8
Layer0
10
1.81926882482444
20
-2.15333502066061
30
0.177165354330709
11
1.86819168652205
21
-2.19087485277035
31
0.177165354330709
  0
LINE
 8
Layer0
10
-0.808800532341983
20
-0.85604462683017
30
0.177165354330709
11
-0.810410335824389
21
-0.843816955408004
31
0.177165354330709
  0
LINE
 8
Layer0
10
-2.07186621837837
20
2.00922880665909
30
0.177165354330709
11
-2.07488459990788
21
1.98630192274253
31
0.177165354330709
  0
LINE
 8
Layer0
10
0.0611383571108329
20
-3.03722657313915
30
0.177165354330709
11
0.118110236220474
21
-3.01362804813806
31
0.177165354330709
  0
LINE
 8
Layer0
10
3.01362804813806
20
0.118110236220474
30
0.177165354330709
11
2.97608821602832
21
0.167033097918084
31
0.177165354330709
  0
LINE
 8
Layer0
10
2.22252239518347
20
-1.98630192274253
30
0.177165354330709
11
2.21447337777144
21
-1.92516356563169
31
0.177165354330709
  0
LINE
 8
Layer0
10
2.04744027985336
20
2.21447337777144
30
0.177165354330709
11
1.98630192274253
21
2.22252239518347
31
0.177165354330709
  0
LINE
 8
Layer0
10
-1.22285759268201
20
-0.0456342910057826
30
0.177165354330709
11
-1.21062992125984
21
-0.0472440944881889
31
0.177165354330709
  0
LINE
 8
Layer0
10
1.43198839578211
20
-0.446552610949027
30
0.177165354330709
11
1.46839322942851
21
-0.236220472440949
31
0.177165354330709
  0
LINE
 8
Layer0
10
-0.896959212835736
20
-0.879666674074264
30
0.177165354330709
11
-0.889451246413788
21
-0.889451246413786
31
0.177165354330709
  0
LINE
 8
Layer0
10
-0.228171455028915
20
-2.87019347522107
30
0.177165354330709
11
-0.204572930027821
21
-2.92716535433071
31
0.177165354330709
  0
LINE
 8
Layer0
10
1.26761825407832
20
-0.801962568906694
30
0.177165354330709
11
1.43198839578211
21
-0.446552610949027
31
0.177165354330709
  0
LINE
 8
Layer0
10
0.879666674074265
20
0.815130040824606
30
0.177165354330709
11
0.884558960244026
21
0.81888402403558
31
0.177165354330709
  0
LINE
 8
Layer0
10
-0.236220472440945
20
1.47185052927177
30
0.177165354330709
11
-0.329268292682927
21
1.46341463414634
31
0.177165354330709
  0
LINE
 8
Layer0
10
0.0409145860055642
20
1.23425196850394
30
0.177165354330709
11
0.0334066195836165
21
1.24403654084346
31
0.177165354330709
  0
LINE
 8
Layer0
10
-2.04893933446181
20
2.04893933446181
30
0.177165354330709
11
-2.06301677150296
21
2.0305932613252
31
0.177165354330709
  0
LINE
 8
Layer0
10
0.0464391927469845
20
-1.20451608554876
30
0.177165354330709
11
0.0456342910057814
21
-1.19840224983768
31
0.177165354330709
  0
LINE
 8
Layer0
10
2.15333502066061
20
1.81926882482444
30
0.177165354330709
11
1.2053439078954
21
0.871277712059227
31
0.177165354330709
  0
LINE
 8
Layer0
10
2.21447337777144
20
-1.92516356563169
30
0.177165354330709
11
2.19087485277035
21
-1.86819168652205
31
0.177165354330709
  0
LINE
 8
Layer0
10
-2.04744027985336
20
2.21447337777144
30
0.177165354330709
11
-2.104412158963
21
2.19087485277035
31
0.177165354330709
  0
LINE
 8
Layer0
10
0.228171455028917
20
-2.87019347522107
30
0.177165354330709
11
0.236220472440947
21
-2.80905511811024
31
0.177165354330709
  0
LINE
 8
Layer0
10
0.167033097918084
20
-2.97608821602832
30
0.177165354330709
11
0.204572930027823
21
-2.92716535433071
31
0.177165354330709
  0
LINE
 8
Layer0
10
2.19087485277035
20
2.104412158963
30
0.177165354330709
11
2.15333502066061
21
2.15333502066061
31
0.177165354330709
  0
LINE
 8
Layer0
10
1.92516356563169
20
2.21447337777144
30
0.177165354330709
11
1.86819168652205
21
2.19087485277035
31
0.177165354330709
  0
LINE
 8
Layer0
10
1.20451608554876
20
0.0464391927469853
30
0.177165354330709
11
1.19840224983768
21
0.0456342910057822
31
0.177165354330709
  0
LINE
 8
Layer0
10
1.20778858805916
20
-0.873722392222997
30
0.177165354330709
11
1.26761825407832
21
-0.801962568906694
31
0.177165354330709
  0
LINE
 8
Layer0
10
-1.26761825407832
20
0.801962568906694
30
0.177165354330709
11
-1.43198839578211
21
0.446552610949026
31
0.177165354330709
  0
LINE
 8
Layer0
10
-0.577739856537191
20
-0.74767535988018
30
0.177165354330709
11
-0.364541225614943
21
-0.871729017774863
31
0.177165354330709
  0
LINE
 8
Layer0
10
0.856044626830171
20
0.808800532341981
30
0.177165354330709
11
0.868272298252338
21
0.810410335824388
31
0.177165354330709
  0
LINE
 8
Layer0
10
0.879666674074266
20
0.896959212835734
30
0.177165354330709
11
0.868272298252337
21
0.901678917835953
31
0.177165354330709
  0
LINE
 8
Layer0
10
1.90073762710668
20
-1.96337503882596
30
0.177165354330709
11
1.89771924557717
21
-1.98630192274253
31
0.177165354330709
  0
LINE
 8
Layer0
10
-1.23425196850394
20
0.0409145860055643
30
0.177165354330709
11
-1.24403654084346
21
0.0334066195836166
31
0.177165354330709
  0
LINE
 8
Layer0
10
-0.167033097918085
20
2.97608821602832
30
0.177165354330709
11
-0.204572930027823
21
2.92716535433071
31
0.177165354330709
  0
LINE
 8
Layer0
10
1.92516356563169
20
-2.21447337777144
30
0.177165354330709
11
1.98630192274253
21
-2.22252239518347
31
0.177165354330709
  0
LINE
 8
Layer0
10
-1.21062992125984
20
0.0472440944881892
30
0.177165354330709
11
-1.22285759268201
21
0.045634291005783
31
0.177165354330709
  0
LINE
 8
Layer0
10
-0.901678917835953
20
0.843816955408004
30
0.177165354330709
11
-0.896959212835735
21
0.832422579586076
31
0.177165354330709
  0
LINE
 8
Layer0
10
-0.0456342910057841
20
-1.19840224983768
30
0.177165354330709
11
-0.0464391927469872
21
-1.20451608554876
31
0.177165354330709
  0
LINE
 8
Layer0
10
-0.815130040824607
20
0.832422579586076
30
0.177165354330709
11
-0.810410335824388
21
0.843816955408004
31
0.177165354330709
  0
LINE
 8
Layer0
10
1.18700787401575
20
0.0409145860055634
30
0.177165354330709
11
1.17722330167623
21
0.0334066195836158
31
0.177165354330709
  0
LINE
 8
Layer0
10
-3.03722657313915
20
-0.0611383571108333
30
0.177165354330709
11
-3.01362804813806
21
-0.118110236220475
31
0.177165354330709
  0
LINE
 8
Layer0
10
-0.0611383571108337
20
3.03722657313915
30
0.177165354330709
11
-0.118110236220475
21
3.01362804813806
31
0.177165354330709
  0
LINE
 8
Layer0
10
2.19087485277035
20
-1.86819168652205
30
0.177165354330709
11
2.15333502066061
21
-1.81926882482444
31
0.177165354330709
  0
LINE
 8
Layer0
10
-2.07488459990788
20
1.98630192274253
30
0.177165354330709
11
-2.07186621837837
21
1.96337503882596
31
0.177165354330709
  0
LINE
 8
Layer0
10
-2.97608821602832
20
-0.167033097918084
30
0.177165354330709
11
-2.92716535433071
21
-0.204572930027823
31
0.177165354330709
  0
LINE
 8
Layer0
10
-0.236220472440946
20
-2.80905511811024
30
0.177165354330709
11
-0.236220472440949
21
-1.46839322942851
31
0.177165354330709
  0
LINE
 8
Layer0
10
-0.936375783708504
20
0.126499712599895
30
0.177165354330709
11
-0.937210087416559
21
-0.120162546778176
31
0.177165354330709
  0
LINE
 8
Layer0
10
-0.868272298252337
20
0.810410335824388
30
0.177165354330709
11
-0.856044626830171
21
0.808800532341982
31
0.177165354330709
  0
LINE
 8
Layer0
10
0.822638007246555
20
0.822638007246554
30
0.177165354330709
11
0.832422579586077
21
0.815130040824606
31
0.177165354330709
  0
LINE
 8
Layer0
10
0.901678917835954
20
0.843816955408004
30
0.177165354330709
11
0.90328872131836
21
0.85604462683017
31
0.177165354330709
  0
LINE
 8
Layer0
10
-2.15333502066061
20
1.81926882482444
30
0.177165354330709
11
-1.20778858805916
21
0.873722392222997
31
0.177165354330709
  0
LINE
 8
Layer0
10
-0.843816955408004
20
0.901678917835954
30
0.177165354330709
11
-0.856044626830171
21
0.90328872131836
31
0.177165354330709
  0
LINE
 8
Layer0
10
0.0611383571108305
20
3.03722657313915
30
0.177165354330709
11
-1.6092368412409e-15
21
3.04527559055118
31
0.177165354330709
  0
LINE
 8
Layer0
10
2.97608821602832
20
-0.167033097918082
30
0.177165354330709
11
3.01362804813806
21
-0.118110236220472
31
0.177165354330709
  0
LINE
 8
Layer0
10
-0.0334066195836163
20
1.17722330167623
30
0.177165354330709
11
-0.0236220472440944
21
1.16971533525428
31
0.177165354330709
  0
LINE
 8
Layer0
10
-1.98630192274253
20
2.22252239518347
30
0.177165354330709
11
-2.04744027985336
21
2.21447337777144
31
0.177165354330709
  0
LINE
 8
Layer0
10
-2.80905511811024
20
0.236220472440945
30
0.177165354330709
11
-1.46839322942851
21
0.236220472440948
31
0.177165354330709
  0
LINE
 8
Layer0
10
0.577739856537191
20
0.74767535988018
30
0.177165354330709
11
0.364541225614943
21
0.871729017774863
31
0.177165354330709
  0
LINE
 8
Layer0
10
-2.7323402693498
20
-0.0442913385826786
30
0.177165354330709
11
-2.72349082247439
21
-0.0229268839165631
31
0.177165354330709
  0
LINE
 8
Layer0
10
-2.21447337777144
20
-1.92516356563169
30
0.177165354330709
11
-2.22252239518347
21
-1.98630192274253
31
0.177165354330709
  0
LINE
 8
Layer0
10
-1.25787401574803
20
1.80411241501588e-16
30
0.177165354330709
11
-1.25626421226563
21
-0.0122276714221661
31
0.177165354330709
  0
LINE
 8
Layer0
10
0.936375783708504
20
-0.126499712599895
30
0.177165354330709
11
0.937210087416559
21
0.120162546778176
31
0.177165354330709
  0
LINE
 8
Layer0
10
0.236220472440944
20
-1.47185052927177
30
0.177165354330709
11
0.329268292682926
21
-1.46341463414634
31
0.177165354330709
  0
LINE
 8
Layer0
10
2.15333502066061
20
-2.15333502066061
30
0.177165354330709
11
2.19087485277035
21
-2.104412158963
31
0.177165354330709
  0
LINE
 8
Layer0
10
-2.15333502066061
20
-1.81926882482444
30
0.177165354330709
11
-1.2053439078954
21
-0.871277712059227
31
0.177165354330709
  0
LINE
 8
Layer0
10
-0.572668861801616
20
0.751566470996686
30
0.177165354330709
11
-0.74767535988018
21
0.577739856537192
31
0.177165354330709
  0
LINE
 8
Layer0
10
2.03976629789351
20
-1.91662579250267
30
0.177165354330709
11
2.0305932613252
21
-1.90958707398209
31
0.177165354330709
  0
LINE
 8
Layer0
10
-1.86819168652205
20
-2.19087485277035
30
0.177165354330709
11
-1.81926882482444
21
-2.15333502066061
31
0.177165354330709
  0
LINE
 8
Layer0
10
-0.810410335824388
20
0.843816955408004
30
0.177165354330709
11
-0.808800532341982
21
0.856044626830171
31
0.177165354330709
  0
LINE
 8
Layer0
10
0.0456342910057829
20
1.22285759268201
30
0.177165354330709
11
0.0409145860055642
21
1.23425196850394
31
0.177165354330709
  0
LINE
 8
Layer0
10
-0.822638007246554
20
0.889451246413787
30
0.177165354330709
11
-0.832422579586076
21
0.896959212835735
31
0.177165354330709
  0
LINE
 8
Layer0
10
2.78612823419367
20
-0.0855642956358417
30
0.177165354330709
11
2.79759167615196
21
-0.0870734864005974
31
0.177165354330709
  0
LINE
 8
Layer0
10
-0.879666674074266
20
-0.896959212835734
30
0.177165354330709
11
-0.868272298252338
21
-0.901678917835953
31
0.177165354330709
  0
LINE
 8
Layer0
10
-3.01362804813806
20
-0.118110236220475
30
0.177165354330709
11
-2.97608821602832
21
-0.167033097918084
31
0.177165354330709
  0
LINE
 8
Layer0
10
-3.03722657313915
20
0.0611383571108309
30
0.177165354330709
11
-3.04527559055118
21
-1.36696209906972e-15
31
0.177165354330709
  0
LINE
 8
Layer0
10
-1.47185052927177
20
-0.236220472440945
30
0.177165354330709
11
-1.46341463414634
21
-0.329268292682927
31
0.177165354330709
  0
LINE
 8
Layer0
10
-2.19087485277035
20
1.86819168652205
30
0.177165354330709
11
-2.15333502066061
21
1.81926882482444
31
0.177165354330709
  0
LINE
 8
Layer0
10
-0.236220472440946
20
-2.80905511811024
30
0.177165354330709
11
-0.228171455028915
21
-2.87019347522107
31
0.177165354330709
  0
LINE
 8
Layer0
10
-0.90328872131836
20
0.856044626830171
30
0.177165354330709
11
-0.901678917835953
21
0.843816955408004
31
0.177165354330709
  0
LINE
 8
Layer0
10
-0.901678917835953
20
0.868272298252337
30
0.177165354330709
11
-0.90328872131836
21
0.856044626830171
31
0.177165354330709
  0
LINE
 8
Layer0
10
-0.873722392222998
20
-1.20778858805916
30
0.177165354330709
11
-0.801962568906694
21
-1.26761825407832
31
0.177165354330709
  0
LINE
 8
Layer0
10
1.21062992125984
20
0.0472440944881883
30
0.177165354330709
11
1.20451608554876
21
0.0464391927469853
31
0.177165354330709
  0
LINE
 8
Layer0
10
2.04744027985336
20
-2.21447337777144
30
0.177165354330709
11
2.104412158963
21
-2.19087485277035
31
0.177165354330709
  0
LINE
 8
Layer0
10
-2.06301677150296
20
1.94201058415985
30
0.177165354330709
11
-2.04893933446181
21
1.92366451102324
31
0.177165354330709
  0
LINE
 8
Layer0
10
1.23425196850394
20
0.0409145860055634
30
0.177165354330709
11
1.22285759268201
21
0.0456342910057822
31
0.177165354330709
  0
LINE
 8
Layer0
10
-0.040914586005564
20
1.18700787401575
30
0.177165354330709
11
-0.0334066195836163
21
1.17722330167623
31
0.177165354330709
  0
LINE
 8
Layer0
10
-1.81926882482444
20
-2.15333502066061
30
0.177165354330709
11
-0.873722392222998
21
-1.20778858805916
31
0.177165354330709
  0
LINE
 8
Layer0
10
-1.25154450726541
20
-0.0236220472440943
30
0.177165354330709
11
-1.24403654084346
21
-0.0334066195836163
31
0.177165354330709
  0
LINE
 8
Layer0
10
-1.16499563025406
20
0.0122276714221665
30
0.177165354330709
11
-1.16971533525428
21
0.0236220472440946
31
0.177165354330709
  0
LINE
 8
Layer0
10
-1.18700787401575
20
-0.0409145860055639
30
0.177165354330709
11
-1.17722330167623
21
-0.0334066195836163
31
0.177165354330709
  0
LINE
 8
Layer0
10
-1.17722330167623
20
0.0334066195836166
30
0.177165354330709
11
-1.18700787401575
21
0.0409145860055642
31
0.177165354330709
  0
LINE
 8
Layer0
10
-1.86819168652205
20
2.19087485277035
30
0.177165354330709
11
-1.9251635656317
21
2.21447337777144
31
0.177165354330709
  0
LINE
 8
Layer0
10
-0.832422579586076
20
0.815130040824607
30
0.177165354330709
11
-0.822638007246554
21
0.822638007246554
31
0.177165354330709
 0
ENDSEC
 0
EOF
