<?xml version="1.0" standalone="no"?>
<!DOCTYPE svg PUBLIC "-//W3C//DTD SVG 1.1//EN" "http://www.w3.org/Graphics/SVG/1.1/DTD/svg11.dtd">
<svg width="173.589599572252mm" height="202.020975380663mm"
 viewBox="0 0 173.589599572252 202.020975380663"
 xmlns="http://www.w3.org/2000/svg" version="1.1"
 xmlns:xlink="http://www.w3.org/1999/xlink">
<desc>Output from Flights of Ideas SVG Sketchup Plugin</desc>

  <g id="face0" fill="none" stroke="rgb(0,0,255)" stroke-width="1">
    <line x1="20.0" y1="10.0" x2="10.0" y2="10.0"/>
    <line x1="10.0" y1="10.0" x2="10.0" y2="20.0"/>
    <line x1="10.0" y1="20.0" x2="20.0" y2="20.0"/>
    <line x1="20.0" y1="20.0" x2="20.0" y2="10.0"/>
  </g>
  <g id="face1" fill="none" stroke="rgb(0,0,255)" stroke-width="1">
    <line x1="28.4282651860622" y1="41.4598636085503" x2="28.4282651860622" y2="41.9"/>
    <line x1="28.4282651860622" y1="41.9" x2="34.9210085014476" y2="41.9"/>
    <line x1="34.9210085014476" y1="41.9" x2="34.5740728286134" y2="39.2647619362185"/>
    <line x1="34.5740728286134" y1="39.2647619362185" x2="33.3253175473055" y2="36.25"/>
    <line x1="33.3253175473055" y1="36.25" x2="31.3388347648318" y2="33.6611652351681"/>
    <line x1="31.3388347648318" y1="33.6611652351681" x2="28.75" y2="31.6746824526945"/>
    <line x1="28.75" y1="31.6746824526945" x2="25.7352380637815" y2="30.4259271713866"/>
    <line x1="25.7352380637815" y1="30.4259271713866" x2="22.5" y2="30.0"/>
    <line x1="22.5" y1="30.0" x2="19.2647619362185" y2="30.4259271713866"/>
    <line x1="19.2647619362185" y1="30.4259271713866" x2="16.25" y2="31.6746824526945"/>
    <line x1="16.25" y1="31.6746824526945" x2="13.6611652351682" y2="33.6611652351682"/>
    <line x1="13.6611652351682" y1="33.6611652351682" x2="11.6746824526945" y2="36.25"/>
    <line x1="11.6746824526945" y1="36.25" x2="10.4259271713866" y2="39.2647619362185"/>
    <line x1="10.4259271713866" y1="39.2647619362185" x2="10.0" y2="42.5"/>
    <line x1="10.0" y1="42.5" x2="10.4259271713867" y2="45.7352380637815"/>
    <line x1="10.4259271713867" y1="45.7352380637815" x2="11.6746824526945" y2="48.75"/>
    <line x1="11.6746824526945" y1="48.75" x2="13.6611652351682" y2="51.3388347648318"/>
    <line x1="13.6611652351682" y1="51.3388347648318" x2="16.25" y2="53.3253175473055"/>
    <line x1="16.25" y1="53.3253175473055" x2="19.2647619362185" y2="54.5740728286134"/>
    <line x1="19.2647619362185" y1="54.5740728286134" x2="22.5" y2="55.0"/>
    <line x1="22.5" y1="55.0" x2="25.7352380637815" y2="54.5740728286134"/>
    <line x1="25.7352380637815" y1="54.5740728286134" x2="28.75" y2="53.3253175473055"/>
    <line x1="28.75" y1="53.3253175473055" x2="31.3388347648318" y2="51.3388347648318"/>
    <line x1="31.3388347648318" y1="51.3388347648318" x2="33.3253175473055" y2="48.75"/>
    <line x1="33.3253175473055" y1="48.75" x2="34.5740728286134" y2="45.7352380637815"/>
    <line x1="34.5740728286134" y1="45.7352380637815" x2="34.9210085014476" y2="43.1"/>
    <line x1="34.9210085014476" y1="43.1" x2="28.4603478308202" y2="43.1"/>
    <line x1="28.4603478308202" y1="43.1" x2="28.1374036186983" y2="44.5541860772304"/>
    <line x1="28.1374036186983" y1="44.5541860772304" x2="27.4136512695445" y2="45.9432588054492"/>
    <line x1="27.4136512695445" y1="45.9432588054492" x2="26.3550417065639" y2="47.097679136331"/>
    <line x1="26.3550417065639" y1="47.097679136331" x2="25.0337174220386" y2="47.9387752320958"/>
    <line x1="25.0337174220386" y1="47.9387752320958" x2="23.5397244823674" y2="48.4092277837943"/>
    <line x1="23.5397244823674" y1="48.4092277837943" x2="21.9748760374488" y2="48.4769762274878"/>
    <line x1="21.9748760374488" y1="48.4769762274878" x2="20.4458139227696" y2="48.1374036186983"/>
    <line x1="20.4458139227696" y1="48.1374036186983" x2="19.0567411945508" y2="47.4136512695445"/>
    <line x1="19.0567411945508" y1="47.4136512695445" x2="17.902320863669" y2="46.3550417065639"/>
    <line x1="17.902320863669" y1="46.3550417065639" x2="17.0612247679042" y2="45.0337174220386"/>
    <line x1="17.0612247679042" y1="45.0337174220386" x2="16.5907722162057" y2="43.5397244823674"/>
    <line x1="16.5907722162057" y1="43.5397244823674" x2="16.5230237725122" y2="41.9748760374488"/>
    <line x1="16.5230237725122" y1="41.9748760374488" x2="16.8625963813017" y2="40.4458139227696"/>
    <line x1="16.8625963813017" y1="40.4458139227696" x2="17.5863487304555" y2="39.0567411945508"/>
    <line x1="17.5863487304555" y1="39.0567411945508" x2="18.6449582934361" y2="37.902320863669"/>
    <line x1="18.6449582934361" y1="37.902320863669" x2="19.9662825779614" y2="37.0612247679042"/>
    <line x1="19.9662825779614" y1="37.0612247679042" x2="21.4602755176326" y2="36.5907722162057"/>
    <line x1="21.4602755176326" y1="36.5907722162057" x2="23.0251239625513" y2="36.5230237725122"/>
    <line x1="23.0251239625513" y1="36.5230237725122" x2="24.5541860772304" y2="36.8625963813017"/>
    <line x1="24.5541860772304" y1="36.8625963813017" x2="25.9432588054492" y2="37.5863487304555"/>
    <line x1="25.9432588054492" y1="37.5863487304555" x2="27.097679136331" y2="38.6449582934361"/>
    <line x1="27.097679136331" y1="38.6449582934361" x2="27.9387752320958" y2="39.9662825779614"/>
    <line x1="27.9387752320958" y1="39.9662825779614" x2="28.4282651860622" y2="41.4598636085503"/>
    <line x1="24.1391436171434" y1="52.362950407764" x2="23.924647913563" y2="52.7663062148686"/>
    <line x1="23.924647913563" y1="52.7663062148686" x2="23.6130648090153" y2="53.1004024329554"/>
    <line x1="23.6130648090153" y1="53.1004024329554" x2="23.2256281771597" y2="53.3424709568817"/>
    <line x1="23.2256281771597" y1="53.3424709568817" x2="22.788741184188" y2="53.4760152167793"/>
    <line x1="22.788741184188" y1="53.4760152167793" x2="22.3321769566812" y2="53.4919343920284"/>
    <line x1="22.3321769566812" y1="53.4919343920284" x2="21.887049592236" y2="53.3891436171434"/>
    <line x1="21.887049592236" y1="53.3891436171434" x2="21.4836937851314" y2="53.174647913563"/>
    <line x1="21.4836937851314" y1="53.174647913563" x2="21.1495975670446" y2="52.8630648090153"/>
    <line x1="21.1495975670446" y1="52.8630648090153" x2="20.9075290431183" y2="52.4756281771597"/>
    <line x1="20.9075290431183" y1="52.4756281771597" x2="20.7739847832207" y2="52.038741184188"/>
    <line x1="20.7739847832207" y1="52.038741184188" x2="20.7739847832207" y2="51.5818995114178"/>
    <line x1="20.7739847832207" y1="51.5818995114178" x2="20.8767755581057" y2="51.1367721469725"/>
    <line x1="20.8767755581057" y1="51.1367721469725" x2="21.0912712616861" y2="50.7334163398679"/>
    <line x1="21.0912712616861" y1="50.7334163398679" x2="21.4028543662338" y2="50.3993201217812"/>
    <line x1="21.4028543662338" y1="50.3993201217812" x2="21.7902909980893" y2="50.1572515978548"/>
    <line x1="21.7902909980893" y1="50.1572515978548" x2="22.2271779910611" y2="50.0237073379573"/>
    <line x1="22.2271779910611" y1="50.0237073379573" x2="22.6837422185678" y2="50.0077881627082"/>
    <line x1="22.6837422185678" y1="50.0077881627082" x2="23.1288695830131" y2="50.1105789375932"/>
    <line x1="23.1288695830131" y1="50.1105789375932" x2="23.5322253901177" y2="50.3250746411736"/>
    <line x1="23.5322253901177" y1="50.3250746411736" x2="23.8663216082044" y2="50.6366577457213"/>
    <line x1="23.8663216082044" y1="50.6366577457213" x2="24.1083901321308" y2="51.0240943775769"/>
    <line x1="24.1083901321308" y1="51.0240943775769" x2="24.2419343920284" y2="51.4609813705486"/>
    <line x1="24.2419343920284" y1="51.4609813705486" x2="24.2419343920284" y2="51.9178230433187"/>
    <line x1="24.2419343920284" y1="51.9178230433187" x2="24.1391436171434" y2="52.362950407764"/>
    <line x1="24.0155444566228" y1="34.125" x2="23.7374368670765" y2="34.4874368670765"/>
    <line x1="23.7374368670765" y1="34.4874368670765" x2="23.375" y2="34.7655444566228"/>
    <line x1="23.375" y1="34.7655444566228" x2="22.9529333289294" y2="34.9403701960059"/>
    <line x1="22.9529333289294" y1="34.9403701960059" x2="22.5" y2="35.0"/>
    <line x1="22.5" y1="35.0" x2="22.0470666710706" y2="34.9403701960059"/>
    <line x1="22.0470666710706" y1="34.9403701960059" x2="21.625" y2="34.7655444566228"/>
    <line x1="21.625" y1="34.7655444566228" x2="21.2625631329235" y2="34.4874368670765"/>
    <line x1="21.2625631329235" y1="34.4874368670765" x2="20.9844555433772" y2="34.125"/>
    <line x1="20.9844555433772" y1="34.125" x2="20.8096298039941" y2="33.7029333289294"/>
    <line x1="20.8096298039941" y1="33.7029333289294" x2="20.75" y2="33.25"/>
    <line x1="20.75" y1="33.25" x2="20.8096298039941" y2="32.7970666710706"/>
    <line x1="20.8096298039941" y1="32.7970666710706" x2="20.9844555433772" y2="32.375"/>
    <line x1="20.9844555433772" y1="32.375" x2="21.2625631329235" y2="32.0125631329235"/>
    <line x1="21.2625631329235" y1="32.0125631329235" x2="21.625" y2="31.7344555433772"/>
    <line x1="21.625" y1="31.7344555433772" x2="22.0470666710706" y2="31.5596298039941"/>
    <line x1="22.0470666710706" y1="31.5596298039941" x2="22.5" y2="31.5"/>
    <line x1="22.5" y1="31.5" x2="22.9529333289294" y2="31.5596298039941"/>
    <line x1="22.9529333289294" y1="31.5596298039941" x2="23.375" y2="31.7344555433772"/>
    <line x1="23.375" y1="31.7344555433772" x2="23.7374368670765" y2="32.0125631329235"/>
    <line x1="23.7374368670765" y1="32.0125631329235" x2="24.0155444566228" y2="32.375"/>
    <line x1="24.0155444566228" y1="32.375" x2="24.1903701960059" y2="32.7970666710706"/>
    <line x1="24.1903701960059" y1="32.7970666710706" x2="24.25" y2="33.25"/>
    <line x1="24.25" y1="33.25" x2="24.1903701960059" y2="33.7029333289294"/>
    <line x1="24.1903701960059" y1="33.7029333289294" x2="24.0155444566228" y2="34.125"/>
  </g>
  <g id="face2" fill="none" stroke="rgb(0,0,255)" stroke-width="1">
    <line x1="38.0884712329846" y1="86.5747353495402" x2="54.2312898729777" y2="86.5747353495402"/>
    <line x1="54.2312898729777" y1="86.5747353495402" x2="54.067149688158" y2="83.2017397006272"/>
    <line x1="54.067149688158" y1="83.2017397006272" x2="52.2928968189841" y2="77.6709424704113"/>
    <line x1="52.2928968189841" y1="77.6709424704113" x2="49.1476244925014" y2="72.7878130191476"/>
    <line x1="49.1476244925014" y1="72.7878130191476" x2="46.5616576799327" y2="70.4418489039617"/>
    <line x1="46.5616576799327" y1="70.4418489039617" x2="44.8456778199515" y2="68.8851285491869"/>
    <line x1="44.8456778199515" y1="68.8851285491869" x2="39.6802273577654" y2="66.228850557666"/>
    <line x1="39.6802273577654" y1="66.228850557666" x2="34.0032900186309" y2="65.0"/>
    <line x1="34.0032900186309" y1="65.0" x2="28.2017397006272" y2="65.2823210109224"/>
    <line x1="28.2017397006272" y1="65.2823210109224" x2="22.6709424704113" y2="67.0565738800962"/>
    <line x1="22.6709424704113" y1="67.0565738800962" x2="17.7878130191476" y2="70.2018462065789"/>
    <line x1="17.7878130191476" y1="70.2018462065789" x2="13.8851285491869" y2="74.5037928791289"/>
    <line x1="13.8851285491869" y1="74.5037928791289" x2="11.228850557666" y2="79.6692433413149"/>
    <line x1="11.228850557666" y1="79.6692433413149" x2="10.0" y2="85.3461806804495"/>
    <line x1="10.0" y1="85.3461806804495" x2="10.2823210109224" y2="91.1477309984531"/>
    <line x1="10.2823210109224" y1="91.1477309984531" x2="12.0565738800962" y2="96.6785282286691"/>
    <line x1="12.0565738800962" y1="96.6785282286691" x2="15.2018462065789" y2="101.561657679933"/>
    <line x1="15.2018462065789" y1="101.561657679933" x2="19.5037928791289" y2="105.464342149893"/>
    <line x1="19.5037928791289" y1="105.464342149893" x2="24.6692433413149" y2="108.120620141414"/>
    <line x1="24.6692433413149" y1="108.120620141414" x2="30.3461806804495" y2="109.34947069908"/>
    <line x1="30.3461806804495" y1="109.34947069908" x2="36.1477309984531" y2="109.067149688158"/>
    <line x1="36.1477309984531" y1="109.067149688158" x2="41.6785282286691" y2="107.292896818984"/>
    <line x1="41.6785282286691" y1="107.292896818984" x2="46.5616576799328" y2="104.147624492501"/>
    <line x1="46.5616576799328" y1="104.147624492501" x2="50.4643421498935" y2="99.8456778199514"/>
    <line x1="50.4643421498935" y1="99.8456778199514" x2="53.1206201414144" y2="94.6802273577654"/>
    <line x1="53.1206201414144" y1="94.6802273577654" x2="54.3494706990804" y2="89.0032900186308"/>
    <line x1="54.3494706990804" y1="89.0032900186308" x2="54.2896855076851" y2="87.7747353495402"/>
    <line x1="54.2896855076851" y1="87.7747353495402" x2="38.1205538777426" y2="87.7747353495402"/>
    <line x1="38.1205538777426" y1="87.7747353495402" x2="37.7976096656207" y2="89.2289214267705"/>
    <line x1="37.7976096656207" y1="89.2289214267705" x2="37.0738573164669" y2="90.6179941549894"/>
    <line x1="37.0738573164669" y1="90.6179941549894" x2="36.0152477534863" y2="91.7724144858711"/>
    <line x1="36.0152477534863" y1="91.7724144858711" x2="34.693923468961" y2="92.6135105816359"/>
    <line x1="34.693923468961" y1="92.6135105816359" x2="33.1999305292898" y2="93.0839631333344"/>
    <line x1="33.1999305292898" y1="93.0839631333344" x2="31.6350820843712" y2="93.151711577028"/>
    <line x1="31.6350820843712" y1="93.151711577028" x2="30.106019969692" y2="92.8121389682385"/>
    <line x1="30.106019969692" y1="92.8121389682385" x2="28.7169472414732" y2="92.0883866190847"/>
    <line x1="28.7169472414732" y1="92.0883866190847" x2="27.5625269105914" y2="91.0297770561041"/>
    <line x1="27.5625269105914" y1="91.0297770561041" x2="26.7214308148266" y2="89.7084527715787"/>
    <line x1="26.7214308148266" y1="89.7084527715787" x2="26.2509782631281" y2="88.2144598319075"/>
    <line x1="26.2509782631281" y1="88.2144598319075" x2="26.1832298194346" y2="86.6496113869889"/>
    <line x1="26.1832298194346" y1="86.6496113869889" x2="26.5228024282241" y2="85.1205492723098"/>
    <line x1="26.5228024282241" y1="85.1205492723098" x2="27.2465547773779" y2="83.7314765440909"/>
    <line x1="27.2465547773779" y1="83.7314765440909" x2="28.3051643403585" y2="82.5770562132092"/>
    <line x1="28.3051643403585" y1="82.5770562132092" x2="29.6264886248838" y2="81.7359601174444"/>
    <line x1="29.6264886248838" y1="81.7359601174444" x2="31.120481564555" y2="81.2655075657459"/>
    <line x1="31.120481564555" y1="81.2655075657459" x2="32.6853300094736" y2="81.1977591220523"/>
    <line x1="32.6853300094736" y1="81.1977591220523" x2="34.2143921241527" y2="81.5373317308418"/>
    <line x1="34.2143921241527" y1="81.5373317308418" x2="35.6034648523716" y2="82.2610840799957"/>
    <line x1="35.6034648523716" y1="82.2610840799957" x2="36.7578851832533" y2="83.3196936429763"/>
    <line x1="36.7578851832533" y1="83.3196936429763" x2="37.5989812790181" y2="84.6410179275016"/>
    <line x1="37.5989812790181" y1="84.6410179275016" x2="38.0694338307166" y2="86.1350108671728"/>
    <line x1="38.0694338307166" y1="86.1350108671728" x2="38.0884712329846" y2="86.5747353495402"/>
    <line x1="33.7993496640658" y1="97.0376857573042" x2="33.5848539604854" y2="97.4410415644088"/>
    <line x1="33.5848539604854" y1="97.4410415644088" x2="33.2732708559376" y2="97.7751377824955"/>
    <line x1="33.2732708559376" y1="97.7751377824955" x2="32.8858342240821" y2="98.0172063064219"/>
    <line x1="32.8858342240821" y1="98.0172063064219" x2="32.4489472311104" y2="98.1507505663195"/>
    <line x1="32.4489472311104" y1="98.1507505663195" x2="31.9923830036036" y2="98.1666697415685"/>
    <line x1="31.9923830036036" y1="98.1666697415685" x2="31.5472556391583" y2="98.0638789666835"/>
    <line x1="31.5472556391583" y1="98.0638789666835" x2="31.1438998320537" y2="97.8493832631031"/>
    <line x1="31.1438998320537" y1="97.8493832631031" x2="30.809803613967" y2="97.5378001585554"/>
    <line x1="30.809803613967" y1="97.5378001585554" x2="30.5677350900406" y2="97.1503635266999"/>
    <line x1="30.5677350900406" y1="97.1503635266999" x2="30.4341908301431" y2="96.7134765337282"/>
    <line x1="30.4341908301431" y1="96.7134765337282" x2="30.4341908301431" y2="96.256634860958"/>
    <line x1="30.4341908301431" y1="96.256634860958" x2="30.536981605028" y2="95.8115074965127"/>
    <line x1="30.536981605028" y1="95.8115074965127" x2="30.7514773086084" y2="95.4081516894081"/>
    <line x1="30.7514773086084" y1="95.4081516894081" x2="31.0630604131562" y2="95.0740554713214"/>
    <line x1="31.0630604131562" y1="95.0740554713214" x2="31.4504970450117" y2="94.831986947395"/>
    <line x1="31.4504970450117" y1="94.831986947395" x2="31.8873840379834" y2="94.6984426874974"/>
    <line x1="31.8873840379834" y1="94.6984426874974" x2="32.3439482654902" y2="94.6825235122484"/>
    <line x1="32.3439482654902" y1="94.6825235122484" x2="32.7890756299355" y2="94.7853142871334"/>
    <line x1="32.7890756299355" y1="94.7853142871334" x2="33.1924314370401" y2="94.9998099907138"/>
    <line x1="33.1924314370401" y1="94.9998099907138" x2="33.5265276551268" y2="95.3113930952615"/>
    <line x1="33.5265276551268" y1="95.3113930952615" x2="33.7685961790532" y2="95.698829727117"/>
    <line x1="33.7685961790532" y1="95.698829727117" x2="33.9021404389507" y2="96.1357167200887"/>
    <line x1="33.9021404389507" y1="96.1357167200887" x2="33.9021404389507" y2="96.5925583928589"/>
    <line x1="33.9021404389507" y1="96.5925583928589" x2="33.7993496640658" y2="97.0376857573042"/>
    <line x1="33.6757505035451" y1="78.7997353495402" x2="33.3976429139988" y2="79.1621722166166"/>
    <line x1="33.3976429139988" y1="79.1621722166166" x2="33.0352060469224" y2="79.4402798061629"/>
    <line x1="33.0352060469224" y1="79.4402798061629" x2="32.6131393758518" y2="79.615105545546"/>
    <line x1="32.6131393758518" y1="79.615105545546" x2="32.1602060469224" y2="79.6747353495402"/>
    <line x1="32.1602060469224" y1="79.6747353495402" x2="31.707272717993" y2="79.615105545546"/>
    <line x1="31.707272717993" y1="79.615105545546" x2="31.2852060469224" y2="79.4402798061629"/>
    <line x1="31.2852060469224" y1="79.4402798061629" x2="30.9227691798459" y2="79.1621722166166"/>
    <line x1="30.9227691798459" y1="79.1621722166166" x2="30.6446615902996" y2="78.7997353495402"/>
    <line x1="30.6446615902996" y1="78.7997353495402" x2="30.4698358509165" y2="78.3776686784696"/>
    <line x1="30.4698358509165" y1="78.3776686784696" x2="30.4102060469224" y2="77.9247353495402"/>
    <line x1="30.4102060469224" y1="77.9247353495402" x2="30.4698358509165" y2="77.4718020206108"/>
    <line x1="30.4698358509165" y1="77.4718020206108" x2="30.6446615902996" y2="77.0497353495402"/>
    <line x1="30.6446615902996" y1="77.0497353495402" x2="30.9227691798459" y2="76.6872984824637"/>
    <line x1="30.9227691798459" y1="76.6872984824637" x2="31.2852060469224" y2="76.4091908929174"/>
    <line x1="31.2852060469224" y1="76.4091908929174" x2="31.707272717993" y2="76.2343651535343"/>
    <line x1="31.707272717993" y1="76.2343651535343" x2="32.1602060469224" y2="76.1747353495402"/>
    <line x1="32.1602060469224" y1="76.1747353495402" x2="32.6131393758518" y2="76.2343651535343"/>
    <line x1="32.6131393758518" y1="76.2343651535343" x2="33.0352060469224" y2="76.4091908929174"/>
    <line x1="33.0352060469224" y1="76.4091908929174" x2="33.3976429139988" y2="76.6872984824637"/>
    <line x1="33.3976429139988" y1="76.6872984824637" x2="33.6757505035451" y2="77.0497353495402"/>
    <line x1="33.6757505035451" y1="77.0497353495402" x2="33.8505762429282" y2="77.4718020206108"/>
    <line x1="33.8505762429282" y1="77.4718020206108" x2="33.9102060469224" y2="77.9247353495402"/>
    <line x1="33.9102060469224" y1="77.9247353495402" x2="33.8505762429282" y2="78.3776686784696"/>
    <line x1="33.8505762429282" y1="78.3776686784696" x2="33.6757505035451" y2="78.7997353495402"/>
  </g>
  <g id="face3" fill="none" stroke="rgb(0,0,255)" stroke-width="1">
    <line x1="163.589599572252" y1="119.34947069908" x2="138.2917" y2="132.184515999998"/>
    <line x1="138.2917" y1="132.184515999998" x2="21.2639851886116" y2="132.184515999998"/>
    <line x1="21.2639851886116" y1="132.184515999998" x2="19.4843" y2="131.950215999998"/>
    <line x1="19.4843" y1="131.950215999998" x2="17.0295825305342" y2="132.273385685725"/>
    <line x1="17.0295825305342" y1="132.273385685725" x2="14.74215" y2="133.220871262885"/>
    <line x1="14.74215" y1="133.220871262885" x2="12.7778871551924" y2="134.72810315519"/>
    <line x1="12.7778871551924" y1="134.72810315519" x2="11.2706552628872" y2="136.692365999998"/>
    <line x1="11.2706552628872" y1="136.692365999998" x2="10.3231696857266" y2="138.979798530532"/>
    <line x1="10.3231696857266" y1="138.979798530532" x2="10.0" y2="141.434515999998"/>
    <line x1="10.0" y1="141.434515999998" x2="10.3231696857266" y2="143.889233469464"/>
    <line x1="10.3231696857266" y1="143.889233469464" x2="11.2706552628872" y2="146.176665999998"/>
    <line x1="11.2706552628872" y1="146.176665999998" x2="12.7778871551924" y2="148.140928844806"/>
    <line x1="12.7778871551924" y1="148.140928844806" x2="14.74215" y2="149.648160737111"/>
    <line x1="14.74215" y1="149.648160737111" x2="17.0295825305342" y2="150.595646314271"/>
    <line x1="17.0295825305342" y1="150.595646314271" x2="19.4843" y2="150.918815999998"/>
    <line x1="19.4843" y1="150.918815999998" x2="21.2639851886116" y2="150.684515999998"/>
    <line x1="21.2639851886116" y1="150.684515999998" x2="138.2917" y2="150.684515999998"/>
    <line x1="138.2917" y1="150.684515999998" x2="163.589599572252" y2="163.520975380663"/>
    <line x1="163.589599572252" y1="163.520975380663" x2="163.589599572252" y2="152.084515999998"/>
    <line x1="163.589599572252" y1="152.084515999998" x2="158.189599572252" y2="152.084515999998"/>
    <line x1="158.189599572252" y1="152.084515999998" x2="158.189599572252" y2="153.434515999998"/>
    <line x1="158.189599572252" y1="153.434515999998" x2="155.789599572252" y2="153.434515999998"/>
    <line x1="155.789599572252" y1="153.434515999998" x2="155.789599572252" y2="152.084515999998"/>
    <line x1="155.789599572252" y1="152.084515999998" x2="151.589599572252" y2="152.084515999998"/>
    <line x1="151.589599572252" y1="152.084515999998" x2="151.589599572252" y2="149.284515999998"/>
    <line x1="151.589599572252" y1="149.284515999998" x2="155.789599572252" y2="149.284515999998"/>
    <line x1="155.789599572252" y1="149.284515999998" x2="155.789599572252" y2="147.934515999998"/>
    <line x1="155.789599572252" y1="147.934515999998" x2="158.189599572252" y2="147.934515999998"/>
    <line x1="158.189599572252" y1="147.934515999998" x2="158.189599572252" y2="149.284515999998"/>
    <line x1="158.189599572252" y1="149.284515999998" x2="163.589599572252" y2="149.284515999998"/>
    <line x1="163.589599572252" y1="149.284515999998" x2="163.589599572252" y2="146.948915999998"/>
    <line x1="163.589599572252" y1="146.948915999998" x2="162.162367829939" y2="146.761017376487"/>
    <line x1="162.162367829939" y1="146.761017376487" x2="160.832399572252" y2="146.210126486627"/>
    <line x1="160.832399572252" y1="146.210126486627" x2="159.690329938077" y2="145.333785634173"/>
    <line x1="159.690329938077" y1="145.333785634173" x2="158.813989085624" y2="144.191715999998"/>
    <line x1="158.813989085624" y1="144.191715999998" x2="158.263098195764" y2="142.861747742312"/>
    <line x1="158.263098195764" y1="142.861747742312" x2="158.075199572252" y2="141.434515999998"/>
    <line x1="158.075199572252" y1="141.434515999998" x2="158.263098195764" y2="140.007284257685"/>
    <line x1="158.263098195764" y1="140.007284257685" x2="158.813989085624" y2="138.677315999998"/>
    <line x1="158.813989085624" y1="138.677315999998" x2="159.690329938077" y2="137.535246365823"/>
    <line x1="159.690329938077" y1="137.535246365823" x2="160.832399572252" y2="136.658905513369"/>
    <line x1="160.832399572252" y1="136.658905513369" x2="162.162367829939" y2="136.10801462351"/>
    <line x1="162.162367829939" y1="136.10801462351" x2="163.589599572252" y2="135.920115999998"/>
    <line x1="163.589599572252" y1="135.920115999998" x2="163.589599572252" y2="133.584515999998"/>
    <line x1="163.589599572252" y1="133.584515999998" x2="158.189599572252" y2="133.584515999998"/>
    <line x1="158.189599572252" y1="133.584515999998" x2="158.189599572252" y2="134.934515999998"/>
    <line x1="158.189599572252" y1="134.934515999998" x2="155.789599572253" y2="134.934515999998"/>
    <line x1="155.789599572253" y1="134.934515999998" x2="155.789599572253" y2="133.584515999998"/>
    <line x1="155.789599572253" y1="133.584515999998" x2="151.589599572252" y2="133.584515999998"/>
    <line x1="151.589599572252" y1="133.584515999998" x2="151.589599572252" y2="130.784515999998"/>
    <line x1="151.589599572252" y1="130.784515999998" x2="155.789599572252" y2="130.784515999998"/>
    <line x1="155.789599572252" y1="130.784515999998" x2="155.789599572252" y2="129.434515999998"/>
    <line x1="155.789599572252" y1="129.434515999998" x2="158.189599572252" y2="129.434515999998"/>
    <line x1="158.189599572252" y1="129.434515999998" x2="158.189599572252" y2="130.784515999998"/>
    <line x1="158.189599572252" y1="130.784515999998" x2="163.589599572252" y2="130.784515999998"/>
    <line x1="163.589599572252" y1="130.784515999998" x2="163.589599572252" y2="119.34947069908"/>
    <line x1="27.3322018340855" y1="137.60346098777" x2="28.0369036614198" y2="137.510685232147"/>
    <line x1="28.0369036614198" y1="137.510685232147" x2="28.3587299307712" y2="137.468315999998"/>
    <line x1="28.3587299307712" y1="137.468315999998" x2="29.3852580274568" y2="137.60346098777"/>
    <line x1="29.3852580274568" y1="137.60346098777" x2="30.3418299307712" y2="137.999686043508"/>
    <line x1="30.3418299307712" y1="137.999686043508" x2="31.1632568463133" y2="138.629989084456"/>
    <line x1="31.1632568463133" y1="138.629989084456" x2="31.793559887261" y2="139.451415999998"/>
    <line x1="31.793559887261" y1="139.451415999998" x2="32.1897849429989" y2="140.407987903312"/>
    <line x1="32.1897849429989" y1="140.407987903312" x2="32.3249299307712" y2="141.434515999998"/>
    <line x1="32.3249299307712" y1="141.434515999998" x2="32.1897849429989" y2="142.461044096684"/>
    <line x1="32.1897849429989" y1="142.461044096684" x2="31.793559887261" y2="143.417615999998"/>
    <line x1="31.793559887261" y1="143.417615999998" x2="31.1632568463133" y2="144.23904291554"/>
    <line x1="31.1632568463133" y1="144.23904291554" x2="30.3418299307712" y2="144.869345956488"/>
    <line x1="30.3418299307712" y1="144.869345956488" x2="29.3852580274568" y2="145.265571012226"/>
    <line x1="29.3852580274568" y1="145.265571012226" x2="28.3587299307712" y2="145.400715999998"/>
    <line x1="28.3587299307712" y1="145.400715999998" x2="28.0369036614198" y2="145.358346767849"/>
    <line x1="28.0369036614198" y1="145.358346767849" x2="27.3322018340855" y2="145.265571012226"/>
    <line x1="27.3322018340855" y1="145.265571012226" x2="26.3756299307712" y2="144.869345956488"/>
    <line x1="26.3756299307712" y1="144.869345956488" x2="25.5542030152291" y2="144.23904291554"/>
    <line x1="25.5542030152291" y1="144.23904291554" x2="24.9238999742813" y2="143.417615999998"/>
    <line x1="24.9238999742813" y1="143.417615999998" x2="24.5276749185435" y2="142.461044096684"/>
    <line x1="24.5276749185435" y1="142.461044096684" x2="24.3925299307712" y2="141.434515999998"/>
    <line x1="24.3925299307712" y1="141.434515999998" x2="24.5276749185435" y2="140.407987903312"/>
    <line x1="24.5276749185435" y1="140.407987903312" x2="24.9238999742813" y2="139.451415999998"/>
    <line x1="24.9238999742813" y1="139.451415999998" x2="25.5542030152291" y2="138.629989084456"/>
    <line x1="25.5542030152291" y1="138.629989084456" x2="26.3756299307712" y2="137.999686043508"/>
    <line x1="26.3756299307712" y1="137.999686043508" x2="27.3322018340855" y2="137.60346098777"/>
    <line x1="74.3453929002705" y1="142.934515999998" x2="65.0146909340208" y2="142.934515999998"/>
    <line x1="65.0146909340208" y1="142.934515999998" x2="65.0146909340208" y2="139.934515999998"/>
    <line x1="65.0146909340208" y1="139.934515999998" x2="74.3453929002705" y2="139.934515999998"/>
    <line x1="74.3453929002705" y1="139.934515999998" x2="74.3453929002705" y2="142.934515999998"/>
  </g>
  <g id="face4" fill="none" stroke="rgb(0,0,255)" stroke-width="1">
    <line x1="12.7092622740244" y1="189.311713106638" x2="14.625" y2="190.781710365669"/>
    <line x1="14.625" y1="190.781710365669" x2="16.8559238328017" y2="191.705789273837"/>
    <line x1="16.8559238328017" y1="191.705789273837" x2="19.25" y2="192.020975380663"/>
    <line x1="19.25" y1="192.020975380663" x2="21.6440761671983" y2="191.705789273837"/>
    <line x1="21.6440761671983" y1="191.705789273837" x2="23.875" y2="190.781710365669"/>
    <line x1="23.875" y1="190.781710365669" x2="25.7907377259756" y2="189.311713106638"/>
    <line x1="25.7907377259756" y1="189.311713106638" x2="27.2607349850061" y2="187.395975380663"/>
    <line x1="27.2607349850061" y1="187.395975380663" x2="28.1848138931739" y2="185.165051547861"/>
    <line x1="28.1848138931739" y1="185.165051547861" x2="28.5" y2="182.770975380663"/>
    <line x1="28.5" y1="182.770975380663" x2="28.1848138931739" y2="180.376899213464"/>
    <line x1="28.1848138931739" y1="180.376899213464" x2="27.2607349850061" y2="178.145975380663"/>
    <line x1="27.2607349850061" y1="178.145975380663" x2="25.7907377259756" y2="176.230237654687"/>
    <line x1="25.7907377259756" y1="176.230237654687" x2="23.875" y2="174.760240395657"/>
    <line x1="23.875" y1="174.760240395657" x2="21.6440761671983" y2="173.836161487489"/>
    <line x1="21.6440761671983" y1="173.836161487489" x2="19.25" y2="173.520975380663"/>
    <line x1="19.25" y1="173.520975380663" x2="16.8559238328017" y2="173.836161487489"/>
    <line x1="16.8559238328017" y1="173.836161487489" x2="14.625" y2="174.760240395657"/>
    <line x1="14.625" y1="174.760240395657" x2="12.7092622740244" y2="176.230237654687"/>
    <line x1="12.7092622740244" y1="176.230237654687" x2="11.2392650149939" y2="178.145975380663"/>
    <line x1="11.2392650149939" y1="178.145975380663" x2="10.3151861068261" y2="180.376899213464"/>
    <line x1="10.3151861068261" y1="180.376899213464" x2="10.0" y2="182.770975380663"/>
    <line x1="10.0" y1="182.770975380663" x2="10.3151861068261" y2="185.165051547861"/>
    <line x1="10.3151861068261" y1="185.165051547861" x2="11.2392650149939" y2="187.395975380663"/>
    <line x1="11.2392650149939" y1="187.395975380663" x2="12.7092622740244" y2="189.311713106638"/>
    <line x1="18.5" y1="184.070013486339" x2="18.1893398282202" y2="183.831635552443"/>
    <line x1="18.1893398282202" y1="183.831635552443" x2="17.9509618943233" y2="183.520975380663"/>
    <line x1="17.9509618943233" y1="183.520975380663" x2="17.8011112605664" y2="183.159203948317"/>
    <line x1="17.8011112605664" y1="183.159203948317" x2="17.75" y2="182.770975380663"/>
    <line x1="17.75" y1="182.770975380663" x2="17.8011112605664" y2="182.382746813009"/>
    <line x1="17.8011112605664" y1="182.382746813009" x2="17.9509618943233" y2="182.020975380663"/>
    <line x1="17.9509618943233" y1="182.020975380663" x2="18.1893398282202" y2="181.710315208883"/>
    <line x1="18.1893398282202" y1="181.710315208883" x2="18.5" y2="181.471937274986"/>
    <line x1="18.5" y1="181.471937274986" x2="18.8617714323462" y2="181.322086641229"/>
    <line x1="18.8617714323462" y1="181.322086641229" x2="19.25" y2="181.270975380663"/>
    <line x1="19.25" y1="181.270975380663" x2="19.6382285676538" y2="181.322086641229"/>
    <line x1="19.6382285676538" y1="181.322086641229" x2="20.0" y2="181.471937274986"/>
    <line x1="20.0" y1="181.471937274986" x2="20.3106601717798" y2="181.710315208883"/>
    <line x1="20.3106601717798" y1="181.710315208883" x2="20.5490381056767" y2="182.020975380663"/>
    <line x1="20.5490381056767" y1="182.020975380663" x2="20.6988887394336" y2="182.382746813009"/>
    <line x1="20.6988887394336" y1="182.382746813009" x2="20.75" y2="182.770975380663"/>
    <line x1="20.75" y1="182.770975380663" x2="20.6988887394336" y2="183.159203948317"/>
    <line x1="20.6988887394336" y1="183.159203948317" x2="20.5490381056767" y2="183.520975380663"/>
    <line x1="20.5490381056767" y1="183.520975380663" x2="20.3106601717798" y2="183.831635552443"/>
    <line x1="20.3106601717798" y1="183.831635552443" x2="20.0" y2="184.070013486339"/>
    <line x1="20.0" y1="184.070013486339" x2="19.6382285676538" y2="184.219864120096"/>
    <line x1="19.6382285676538" y1="184.219864120096" x2="19.25" y2="184.270975380663"/>
    <line x1="19.25" y1="184.270975380663" x2="18.8617714323462" y2="184.219864120096"/>
    <line x1="18.8617714323462" y1="184.219864120096" x2="18.5" y2="184.070013486339"/>
  </g>
</svg>
