<?xml version="1.0" standalone="no"?>
<!DOCTYPE svg PUBLIC "-//W3C//DTD SVG 1.1//EN" "http://www.w3.org/Graphics/SVG/1.1/DTD/svg11.dtd">
<svg width="75.0mm" height="419.047597471245mm"
 viewBox="0 0 75.0 419.047597471245"
 xmlns="http://www.w3.org/2000/svg" version="1.1"
 xmlns:xlink="http://www.w3.org/1999/xlink">
<desc>Output from Flights of Ideas SVG Sketchup Plugin</desc>

  <g id="face0" fill="none" stroke="rgb(0,0,255)" stroke-width="1">
    <line x1="10.0" y1="14.0" x2="10.0" y2="61.0"/>
    <line x1="10.0" y1="61.0" x2="10.0342205545048" y2="61.5221047688802"/>
    <line x1="10.0342205545048" y1="61.5221047688802" x2="10.1362966948438" y2="62.0352761804101"/>
    <line x1="10.1362966948438" y1="62.0352761804101" x2="10.3044818699549" y2="62.5307337294604"/>
    <line x1="10.3044818699549" y1="62.5307337294604" x2="10.5358983848623" y2="63.0"/>
    <line x1="10.5358983848623" y1="63.0" x2="10.8265866388351" y2="63.4350457160349"/>
    <line x1="10.8265866388351" y1="63.4350457160349" x2="11.1715728752538" y2="63.8284271247462"/>
    <line x1="11.1715728752538" y1="63.8284271247462" x2="11.5649542839652" y2="64.1734133611649"/>
    <line x1="11.5649542839652" y1="64.1734133611649" x2="12.0" y2="64.4641016151377"/>
    <line x1="12.0" y1="64.4641016151377" x2="12.4692662705397" y2="64.6955181300451"/>
    <line x1="12.4692662705397" y1="64.6955181300451" x2="12.96472381959" y2="64.8637033051563"/>
    <line x1="12.96472381959" y1="64.8637033051563" x2="13.4778952311198" y2="64.9657794454952"/>
    <line x1="13.4778952311198" y1="64.9657794454952" x2="14.0" y2="65.0"/>
    <line x1="14.0" y1="65.0" x2="61.0092728108622" y2="65.0"/>
    <line x1="61.0092728108622" y1="65.0" x2="61.5309338642767" y2="64.9657578644864"/>
    <line x1="61.5309338642767" y1="64.9657578644864" x2="62.0436427946683" y2="64.8636190805172"/>
    <line x1="62.0436427946683" y1="64.8636190805172" x2="62.5386011046416" y2="64.6953364317314"/>
    <line x1="62.5386011046416" y1="64.6953364317314" x2="63.0073149117167" y2="64.463797783659"/>
    <line x1="63.0073149117167" y1="64.463797783659" x2="63.4417407101804" y2="64.1729765256272"/>
    <line x1="63.4417407101804" y1="64.1729765256272" x2="63.8344234041105" y2="63.8278633842057"/>
    <line x1="63.8344234041105" y1="63.8278633842057" x2="64.1786242428143" y2="63.4343807783263"/>
    <line x1="64.1786242428143" y1="63.4343807783263" x2="64.4684364632078" y2="62.9992811858137"/>
    <line x1="64.4684364632078" y1="62.9992811858137" x2="64.6988866546186" y2="62.5300312654379"/>
    <line x1="64.6988866546186" y1="62.5300312654379" x2="64.8660201065107" y2="62.0346837230471"/>
    <line x1="64.8660201065107" y1="62.0346837230471" x2="64.9669686744965" y2="61.5217391206623"/>
    <line x1="64.9669686744965" y1="61.5217391206623" x2="65.0" y2="61.0"/>
    <line x1="65.0" y1="61.0" x2="65.0" y2="14.0"/>
    <line x1="65.0" y1="14.0" x2="64.9657794454953" y2="13.4778952311198"/>
    <line x1="64.9657794454953" y1="13.4778952311198" x2="64.8637033051563" y2="12.9647238195899"/>
    <line x1="64.8637033051563" y1="12.9647238195899" x2="64.6955181300452" y2="12.4692662705396"/>
    <line x1="64.6955181300452" y1="12.4692662705396" x2="64.4641016151378" y2="12.0"/>
    <line x1="64.4641016151378" y1="12.0" x2="64.173413361165" y2="11.5649542839651"/>
    <line x1="64.173413361165" y1="11.5649542839651" x2="63.8284271247462" y2="11.1715728752538"/>
    <line x1="63.8284271247462" y1="11.1715728752538" x2="63.4350457160349" y2="10.826586638835"/>
    <line x1="63.4350457160349" y1="10.826586638835" x2="63.0" y2="10.5358983848622"/>
    <line x1="63.0" y1="10.5358983848622" x2="62.5307337294604" y2="10.3044818699549"/>
    <line x1="62.5307337294604" y1="10.3044818699549" x2="62.0352761804101" y2="10.1362966948437"/>
    <line x1="62.0352761804101" y1="10.1362966948437" x2="61.5221047688802" y2="10.0342205545048"/>
    <line x1="61.5221047688802" y1="10.0342205545048" x2="61.0" y2="10.0"/>
    <line x1="61.0" y1="10.0" x2="14.0000000000001" y2="10.0"/>
    <line x1="14.0000000000001" y1="10.0" x2="13.4778952311199" y2="10.0342205545048"/>
    <line x1="13.4778952311199" y1="10.0342205545048" x2="12.96472381959" y2="10.1362966948437"/>
    <line x1="12.96472381959" y1="10.1362966948437" x2="12.4692662705397" y2="10.3044818699549"/>
    <line x1="12.4692662705397" y1="10.3044818699549" x2="12.0000000000001" y2="10.5358983848622"/>
    <line x1="12.0000000000001" y1="10.5358983848622" x2="11.5649542839652" y2="10.8265866388351"/>
    <line x1="11.5649542839652" y1="10.8265866388351" x2="11.1715728752539" y2="11.1715728752538"/>
    <line x1="11.1715728752539" y1="11.1715728752538" x2="10.8265866388352" y2="11.5649542839651"/>
    <line x1="10.8265866388352" y1="11.5649542839651" x2="10.5358983848623" y2="12.0"/>
    <line x1="10.5358983848623" y1="12.0" x2="10.304481869955" y2="12.4692662705396"/>
    <line x1="10.304481869955" y1="12.4692662705396" x2="10.1362966948438" y2="12.9647238195899"/>
    <line x1="10.1362966948438" y1="12.9647238195899" x2="10.0342205545049" y2="13.4778952311198"/>
    <line x1="10.0342205545049" y1="13.4778952311198" x2="10.0" y2="14.0"/>
    <line x1="15.3056580615441" y1="11.868039159289" x2="15.8129609109367" y2="12.2786131360395"/>
    <line x1="15.8129609109367" y1="12.2786131360395" x2="16.1967134703086" y2="12.8064967828426"/>
    <line x1="16.1967134703086" y1="12.8064967828426" x2="16.4307636369197" y2="13.4157157015377"/>
    <line x1="16.4307636369197" y1="13.4157157015377" x2="16.4991612787015" y2="14.0647526295975"/>
    <line x1="16.4991612787015" y1="14.0647526295975" x2="16.397245209399" y2="14.7093767729591"/>
    <line x1="16.397245209399" y1="14.7093767729591" x2="16.1319608407111" y2="15.305658061544"/>
    <line x1="16.1319608407111" y1="15.305658061544" x2="15.7213868639606" y2="15.8129609109367"/>
    <line x1="15.7213868639606" y1="15.8129609109367" x2="15.1935032171575" y2="16.1967134703085"/>
    <line x1="15.1935032171575" y1="16.1967134703085" x2="14.5842842984624" y2="16.4307636369196"/>
    <line x1="14.5842842984624" y1="16.4307636369196" x2="13.9352473704026" y2="16.4991612787014"/>
    <line x1="13.9352473704026" y1="16.4991612787014" x2="13.290623227041" y2="16.3972452093989"/>
    <line x1="13.290623227041" y1="16.3972452093989" x2="12.6943419384561" y2="16.131960840711"/>
    <line x1="12.6943419384561" y1="16.131960840711" x2="12.1870390890634" y2="15.7213868639605"/>
    <line x1="12.1870390890634" y1="15.7213868639605" x2="11.8032865296915" y2="15.1935032171574"/>
    <line x1="11.8032865296915" y1="15.1935032171574" x2="11.5692363630805" y2="14.5842842984623"/>
    <line x1="11.5692363630805" y1="14.5842842984623" x2="11.5008387212987" y2="13.9352473704025"/>
    <line x1="11.5008387212987" y1="13.9352473704025" x2="11.6027547906012" y2="13.2906232270409"/>
    <line x1="11.6027547906012" y1="13.2906232270409" x2="11.8680391592891" y2="12.694341938456"/>
    <line x1="11.8680391592891" y1="12.694341938456" x2="12.2786131360396" y2="12.1870390890634"/>
    <line x1="12.2786131360396" y1="12.1870390890634" x2="12.8064967828427" y2="11.8032865296915"/>
    <line x1="12.8064967828427" y1="11.8032865296915" x2="13.4157157015378" y2="11.5692363630804"/>
    <line x1="13.4157157015378" y1="11.5692363630804" x2="14.0647526295976" y2="11.5008387212986"/>
    <line x1="14.0647526295976" y1="11.5008387212986" x2="14.7093767729592" y2="11.6027547906011"/>
    <line x1="14.7093767729592" y1="11.6027547906011" x2="15.3056580615441" y2="11.868039159289"/>
    <line x1="62.7677669529664" y1="12.2322330470336" x2="63.1650635094611" y2="12.75"/>
    <line x1="63.1650635094611" y1="12.75" x2="63.4148145657227" y2="13.3529523872437"/>
    <line x1="63.4148145657227" y1="13.3529523872437" x2="63.5" y2="14.0"/>
    <line x1="63.5" y1="14.0" x2="63.4148145657227" y2="14.6470476127563"/>
    <line x1="63.4148145657227" y1="14.6470476127563" x2="63.1650635094611" y2="15.25"/>
    <line x1="63.1650635094611" y1="15.25" x2="62.7677669529664" y2="15.7677669529664"/>
    <line x1="62.7677669529664" y1="15.7677669529664" x2="62.25" y2="16.1650635094611"/>
    <line x1="62.25" y1="16.1650635094611" x2="61.6470476127563" y2="16.4148145657227"/>
    <line x1="61.6470476127563" y1="16.4148145657227" x2="61.0" y2="16.5"/>
    <line x1="61.0" y1="16.5" x2="60.3529523872438" y2="16.4148145657227"/>
    <line x1="60.3529523872438" y1="16.4148145657227" x2="59.75" y2="16.1650635094611"/>
    <line x1="59.75" y1="16.1650635094611" x2="59.2322330470337" y2="15.7677669529664"/>
    <line x1="59.2322330470337" y1="15.7677669529664" x2="58.834936490539" y2="15.25"/>
    <line x1="58.834936490539" y1="15.25" x2="58.5851854342774" y2="14.6470476127563"/>
    <line x1="58.5851854342774" y1="14.6470476127563" x2="58.5" y2="14.0"/>
    <line x1="58.5" y1="14.0" x2="58.5851854342774" y2="13.3529523872437"/>
    <line x1="58.5851854342774" y1="13.3529523872437" x2="58.834936490539" y2="12.75"/>
    <line x1="58.834936490539" y1="12.75" x2="59.2322330470337" y2="12.2322330470336"/>
    <line x1="59.2322330470337" y1="12.2322330470336" x2="59.75" y2="11.8349364905389"/>
    <line x1="59.75" y1="11.8349364905389" x2="60.3529523872438" y2="11.5851854342773"/>
    <line x1="60.3529523872438" y1="11.5851854342773" x2="61.0" y2="11.5"/>
    <line x1="61.0" y1="11.5" x2="61.6470476127563" y2="11.5851854342773"/>
    <line x1="61.6470476127563" y1="11.5851854342773" x2="62.25" y2="11.8349364905389"/>
    <line x1="62.25" y1="11.8349364905389" x2="62.7677669529664" y2="12.2322330470336"/>
    <line x1="15.7677669529664" y1="59.2322330470336" x2="16.1650635094612" y2="59.75"/>
    <line x1="16.1650635094612" y1="59.75" x2="16.4148145657227" y2="60.3529523872437"/>
    <line x1="16.4148145657227" y1="60.3529523872437" x2="16.5000000000001" y2="61.0"/>
    <line x1="16.5000000000001" y1="61.0" x2="16.4148145657227" y2="61.6470476127563"/>
    <line x1="16.4148145657227" y1="61.6470476127563" x2="16.1650635094612" y2="62.25"/>
    <line x1="16.1650635094612" y1="62.25" x2="15.7677669529664" y2="62.7677669529664"/>
    <line x1="15.7677669529664" y1="62.7677669529664" x2="15.2500000000001" y2="63.1650635094611"/>
    <line x1="15.2500000000001" y1="63.1650635094611" x2="14.6470476127564" y2="63.4148145657227"/>
    <line x1="14.6470476127564" y1="63.4148145657227" x2="14.0000000000001" y2="63.5"/>
    <line x1="14.0000000000001" y1="63.5" x2="13.3529523872438" y2="63.4148145657227"/>
    <line x1="13.3529523872438" y1="63.4148145657227" x2="12.7500000000001" y2="63.1650635094611"/>
    <line x1="12.7500000000001" y1="63.1650635094611" x2="12.2322330470337" y2="62.7677669529664"/>
    <line x1="12.2322330470337" y1="62.7677669529664" x2="11.834936490539" y2="62.25"/>
    <line x1="11.834936490539" y1="62.25" x2="11.5851854342774" y2="61.6470476127563"/>
    <line x1="11.5851854342774" y1="61.6470476127563" x2="11.5000000000001" y2="61.0"/>
    <line x1="11.5000000000001" y1="61.0" x2="11.5851854342774" y2="60.3529523872437"/>
    <line x1="11.5851854342774" y1="60.3529523872437" x2="11.834936490539" y2="59.75"/>
    <line x1="11.834936490539" y1="59.75" x2="12.2322330470337" y2="59.2322330470336"/>
    <line x1="12.2322330470337" y1="59.2322330470336" x2="12.7500000000001" y2="58.8349364905389"/>
    <line x1="12.7500000000001" y1="58.8349364905389" x2="13.3529523872438" y2="58.5851854342773"/>
    <line x1="13.3529523872438" y1="58.5851854342773" x2="14.0000000000001" y2="58.5"/>
    <line x1="14.0000000000001" y1="58.5" x2="14.6470476127564" y2="58.5851854342773"/>
    <line x1="14.6470476127564" y1="58.5851854342773" x2="15.2500000000001" y2="58.8349364905389"/>
    <line x1="15.2500000000001" y1="58.8349364905389" x2="15.7677669529664" y2="59.2322330470336"/>
    <line x1="59.75" y1="63.165063509461" x2="59.2322330470337" y2="62.7677669529663"/>
    <line x1="59.2322330470337" y1="62.7677669529663" x2="58.8349364905389" y2="62.25"/>
    <line x1="58.8349364905389" y1="62.25" x2="58.5851854342774" y2="61.6470476127563"/>
    <line x1="58.5851854342774" y1="61.6470476127563" x2="58.5" y2="60.9999999999999"/>
    <line x1="58.5" y1="60.9999999999999" x2="58.5851854342774" y2="60.3529523872436"/>
    <line x1="58.5851854342774" y1="60.3529523872436" x2="58.8349364905389" y2="59.75"/>
    <line x1="58.8349364905389" y1="59.75" x2="59.2322330470337" y2="59.2322330470336"/>
    <line x1="59.2322330470337" y1="59.2322330470336" x2="59.75" y2="58.8349364905389"/>
    <line x1="59.75" y1="58.8349364905389" x2="60.3529523872437" y2="58.5851854342773"/>
    <line x1="60.3529523872437" y1="58.5851854342773" x2="61.0" y2="58.5"/>
    <line x1="61.0" y1="58.5" x2="61.6470476127563" y2="58.5851854342773"/>
    <line x1="61.6470476127563" y1="58.5851854342773" x2="62.25" y2="58.8349364905389"/>
    <line x1="62.25" y1="58.8349364905389" x2="62.7677669529664" y2="59.2322330470336"/>
    <line x1="62.7677669529664" y1="59.2322330470336" x2="63.1650635094611" y2="59.75"/>
    <line x1="63.1650635094611" y1="59.75" x2="63.4148145657227" y2="60.3529523872437"/>
    <line x1="63.4148145657227" y1="60.3529523872437" x2="63.5" y2="61.0"/>
    <line x1="63.5" y1="61.0" x2="63.4148145657227" y2="61.6470476127563"/>
    <line x1="63.4148145657227" y1="61.6470476127563" x2="63.1650635094611" y2="62.25"/>
    <line x1="63.1650635094611" y1="62.25" x2="62.7677669529664" y2="62.7677669529663"/>
    <line x1="62.7677669529664" y1="62.7677669529663" x2="62.25" y2="63.1650635094611"/>
    <line x1="62.25" y1="63.1650635094611" x2="61.6470476127563" y2="63.4148145657227"/>
    <line x1="61.6470476127563" y1="63.4148145657227" x2="61.0" y2="63.5"/>
    <line x1="61.0" y1="63.5" x2="60.3529523872437" y2="63.4148145657227"/>
    <line x1="60.3529523872437" y1="63.4148145657227" x2="59.75" y2="63.165063509461"/>
    <line x1="34.4801508502979" y1="57.7987460247545" x2="34.6854170848125" y2="57.4313445097443"/>
    <line x1="34.6854170848125" y1="57.4313445097443" x2="34.8939571216043" y2="57.0580832880984"/>
    <line x1="34.8939571216043" y1="57.0580832880984" x2="35.187319588072" y2="56.7563274869404"/>
    <line x1="35.187319588072" y1="56.7563274869404" x2="35.4853609083838" y2="56.4497589661893"/>
    <line x1="35.4853609083838" y1="56.4497589661893" x2="35.8468274395194" y2="56.2342130380579"/>
    <line x1="35.8468274395194" y1="56.2342130380579" x2="36.2140590199086" y2="56.0152293562618"/>
    <line x1="36.2140590199086" y1="56.0152293562618" x2="36.6189962689649" y2="55.9005823999536"/>
    <line x1="36.6189962689649" y1="55.9005823999536" x2="37.0303918841085" y2="55.7841069331383"/>
    <line x1="37.0303918841085" y1="55.7841069331383" x2="37.4512040467539" y2="55.778171949262"/>
    <line x1="37.4512040467539" y1="55.778171949262" x2="37.8787277653424" y2="55.7721423080069"/>
    <line x1="37.8787277653424" y1="55.7721423080069" x2="38.2867371881186" y2="55.8753237559058"/>
    <line x1="38.2867371881186" y1="55.8753237559058" x2="38.7012539752455" y2="55.9801508502977"/>
    <line x1="38.7012539752455" y1="55.9801508502977" x2="39.0686554902567" y2="56.1854170848129"/>
    <line x1="39.0686554902567" y1="56.1854170848129" x2="39.4419167119016" y2="56.3939571216041"/>
    <line x1="39.4419167119016" y1="56.3939571216041" x2="39.7436725130603" y2="56.6873195880725"/>
    <line x1="39.7436725130603" y1="56.6873195880725" x2="40.0502410338107" y2="56.9853609083837"/>
    <line x1="40.0502410338107" y1="56.9853609083837" x2="40.0502410338107" y2="57.0325637431897"/>
    <line x1="40.0502410338107" y1="57.0325637431897" x2="40.24161140813" y2="57.3534883181376"/>
    <line x1="40.24161140813" y1="57.3534883181376" x2="40.4605950899257" y2="57.720719898526"/>
    <line x1="40.4605950899257" y1="57.720719898526" x2="40.5752420462343" y2="58.125657147584"/>
    <line x1="40.5752420462343" y1="58.125657147584" x2="40.6917175130492" y2="58.537052762726"/>
    <line x1="40.6917175130492" y1="58.537052762726" x2="40.6917175130492" y2="58.9579067757348"/>
    <line x1="40.6917175130492" y1="58.9579067757348" x2="40.6917175130492" y2="59.3854730121564"/>
    <line x1="40.6917175130492" y1="59.3854730121564" x2="40.5885360651503" y2="59.7934824349322"/>
    <line x1="40.5885360651503" y1="59.7934824349322" x2="40.4837089707583" y2="60.2079992220594"/>
    <line x1="40.4837089707583" y1="60.2079992220594" x2="40.2784427362437" y2="60.5754007370696"/>
    <line x1="40.2784427362437" y1="60.5754007370696" x2="40.0699026994519" y2="60.9486619587155"/>
    <line x1="40.0699026994519" y1="60.9486619587155" x2="39.7765402329856" y2="61.2504177598721"/>
    <line x1="39.7765402329856" y1="61.2504177598721" x2="39.4784989126723" y2="61.5569862806247"/>
    <line x1="39.4784989126723" y1="61.5569862806247" x2="39.1170323815385" y2="61.772532208755"/>
    <line x1="39.1170323815385" y1="61.772532208755" x2="38.7498008011476" y2="61.9915158905522"/>
    <line x1="38.7498008011476" y1="61.9915158905522" x2="38.3448635520913" y2="62.1061628468603"/>
    <line x1="38.3448635520913" y1="62.1061628468603" x2="37.9334679369476" y2="62.2226383136756"/>
    <line x1="37.9334679369476" y1="62.2226383136756" x2="37.5126557743016" y2="62.2285732975519"/>
    <line x1="37.5126557743016" y1="62.2285732975519" x2="37.0851320557137" y2="62.234602938807"/>
    <line x1="37.0851320557137" y1="62.234602938807" x2="36.6771226329376" y2="62.1314214909081"/>
    <line x1="36.6771226329376" y1="62.1314214909081" x2="36.2626058458107" y2="62.0265943965162"/>
    <line x1="36.2626058458107" y1="62.0265943965162" x2="35.8952043307995" y2="61.821328162001"/>
    <line x1="35.8952043307995" y1="61.821328162001" x2="35.5219431091546" y2="61.6127881252098"/>
    <line x1="35.5219431091546" y1="61.6127881252098" x2="35.2201873079959" y2="61.3194256587414"/>
    <line x1="35.2201873079959" y1="61.3194256587414" x2="34.9136187872454" y2="61.0213843384302"/>
    <line x1="34.9136187872454" y1="61.0213843384302" x2="34.6980728591141" y2="60.6599178072947"/>
    <line x1="34.6980728591141" y1="60.6599178072947" x2="34.4790891773179" y2="60.2926862269055"/>
    <line x1="34.4790891773179" y1="60.2926862269055" x2="34.3644422210093" y2="59.8877489778476"/>
    <line x1="34.3644422210093" y1="59.8877489778476" x2="34.2479667541945" y2="59.4763533627055"/>
    <line x1="34.2479667541945" y1="59.4763533627055" x2="34.2479667541945" y2="59.0554993496967"/>
    <line x1="34.2479667541945" y1="59.0554993496967" x2="34.2479667541945" y2="58.6279331132752"/>
    <line x1="34.2479667541945" y1="58.6279331132752" x2="34.3511482020933" y2="58.2199236904993"/>
    <line x1="34.3511482020933" y1="58.2199236904993" x2="34.4801508502979" y2="57.7987460247545"/>
    <line x1="43.8397854768665" y1="31.0085998479386" x2="45.2700530802475" y2="32.8725608786175"/>
    <line x1="45.2700530802475" y1="32.8725608786175" x2="46.1691568827891" y2="35.0431894726949"/>
    <line x1="46.1691568827891" y1="35.0431894726949" x2="46.4758244461875" y2="37.3725608786175"/>
    <line x1="46.4758244461875" y1="37.3725608786175" x2="46.1691568827891" y2="39.7019322845402"/>
    <line x1="46.1691568827891" y1="39.7019322845402" x2="45.2700530802475" y2="41.8725608786175"/>
    <line x1="45.2700530802475" y1="41.8725608786175" x2="43.8397854768665" y2="43.7365219092965"/>
    <line x1="43.8397854768665" y1="43.7365219092965" x2="41.9758244461875" y2="45.1667895126775"/>
    <line x1="41.9758244461875" y1="45.1667895126775" x2="39.8051958521102" y2="46.0658933152192"/>
    <line x1="39.8051958521102" y1="46.0658933152192" x2="37.4758244461875" y2="46.3725608786175"/>
    <line x1="37.4758244461875" y1="46.3725608786175" x2="35.1464530402648" y2="46.0658933152192"/>
    <line x1="35.1464530402648" y1="46.0658933152192" x2="32.9758244461875" y2="45.1667895126775"/>
    <line x1="32.9758244461875" y1="45.1667895126775" x2="31.1118634155086" y2="43.7365219092965"/>
    <line x1="31.1118634155086" y1="43.7365219092965" x2="29.6815958121276" y2="41.8725608786176"/>
    <line x1="29.6815958121276" y1="41.8725608786176" x2="28.7824920095859" y2="39.7019322845402"/>
    <line x1="28.7824920095859" y1="39.7019322845402" x2="28.4758244461875" y2="37.3725608786175"/>
    <line x1="28.4758244461875" y1="37.3725608786175" x2="28.7824920095859" y2="35.0431894726949"/>
    <line x1="28.7824920095859" y1="35.0431894726949" x2="29.6815958121276" y2="32.8725608786175"/>
    <line x1="29.6815958121276" y1="32.8725608786175" x2="31.1118634155086" y2="31.0085998479386"/>
    <line x1="31.1118634155086" y1="31.0085998479386" x2="32.9758244461875" y2="29.5783322445576"/>
    <line x1="32.9758244461875" y1="29.5783322445576" x2="35.1464530402648" y2="28.6792284420159"/>
    <line x1="35.1464530402648" y1="28.6792284420159" x2="37.4758244461875" y2="28.3725608786176"/>
    <line x1="37.4758244461875" y1="28.3725608786176" x2="39.8051958521102" y2="28.6792284420159"/>
    <line x1="39.8051958521102" y1="28.6792284420159" x2="41.9758244461875" y2="29.5783322445576"/>
    <line x1="41.9758244461875" y1="29.5783322445576" x2="43.8397854768665" y2="31.0085998479386"/>
  </g>
  <g id="face1" fill="none" stroke="rgb(0,0,255)" stroke-width="1">
    <line x1="13.9999999999999" y1="157.047597471245" x2="19.9999999999999" y2="157.047597471245"/>
    <line x1="19.9999999999999" y1="157.047597471245" x2="19.9999999999999" y2="222.047597471245"/>
    <line x1="19.9999999999999" y1="222.047597471245" x2="55.0" y2="222.047597471245"/>
    <line x1="55.0" y1="222.047597471245" x2="55.0000000000001" y2="157.047597471245"/>
    <line x1="55.0000000000001" y1="157.047597471245" x2="61.0" y2="157.047597471245"/>
    <line x1="61.0" y1="157.047597471245" x2="61.0" y2="128.0"/>
    <line x1="61.0" y1="128.0" x2="65.0" y2="128.0"/>
    <line x1="65.0" y1="128.0" x2="65.0" y2="75.0"/>
    <line x1="65.0" y1="75.0" x2="10.0" y2="75.0"/>
    <line x1="10.0" y1="75.0" x2="10.0" y2="128.0"/>
    <line x1="10.0" y1="128.0" x2="13.9999999999998" y2="128.0"/>
    <line x1="13.9999999999998" y1="128.0" x2="13.9999999999999" y2="157.047597471245"/>
    <line x1="35.268945301773" y1="146.696737831811" x2="34.6469995365979" y2="146.02740927191"/>
    <line x1="34.6469995365979" y1="146.02740927191" x2="34.2194810381974" y2="145.219916120581"/>
    <line x1="34.2194810381974" y1="145.219916120581" x2="34.0155244857297" y2="144.329287701641"/>
    <line x1="34.0155244857297" y1="144.329287701641" x2="34.0490291811917" y2="143.416218870008"/>
    <line x1="34.0490291811917" y1="143.416218870008" x2="34.3177118349564" y2="142.54293375764"/>
    <line x1="34.3177118349564" y1="142.54293375764" x2="34.8032621681891" y2="141.768945301773"/>
    <line x1="34.8032621681891" y1="141.768945301773" x2="35.4725907280896" y2="141.146999536598"/>
    <line x1="35.4725907280896" y1="141.146999536598" x2="36.2800838794186" y2="140.719481038198"/>
    <line x1="36.2800838794186" y1="140.719481038198" x2="37.1707122983585" y2="140.51552448573"/>
    <line x1="37.1707122983585" y1="140.51552448573" x2="38.0837811299916" y2="140.549029181192"/>
    <line x1="38.0837811299916" y1="140.549029181192" x2="38.9570662423596" y2="140.817711834957"/>
    <line x1="38.9570662423596" y1="140.817711834957" x2="39.7310546982267" y2="141.303262168189"/>
    <line x1="39.7310546982267" y1="141.303262168189" x2="40.3530004634018" y2="141.97259072809"/>
    <line x1="40.3530004634018" y1="141.97259072809" x2="40.7805189618024" y2="142.780083879419"/>
    <line x1="40.7805189618024" y1="142.780083879419" x2="40.9844755142699" y2="143.670712298359"/>
    <line x1="40.9844755142699" y1="143.670712298359" x2="40.9509708188081" y2="144.583781129992"/>
    <line x1="40.9509708188081" y1="144.583781129992" x2="40.6822881650433" y2="145.45706624236"/>
    <line x1="40.6822881650433" y1="145.45706624236" x2="40.1967378318107" y2="146.231054698227"/>
    <line x1="40.1967378318107" y1="146.231054698227" x2="39.5274092719101" y2="146.853000463402"/>
    <line x1="39.5274092719101" y1="146.853000463402" x2="38.7199161205813" y2="147.280518961802"/>
    <line x1="38.7199161205813" y1="147.280518961802" x2="37.8292877016413" y2="147.48447551427"/>
    <line x1="37.8292877016413" y1="147.48447551427" x2="36.9162188700082" y2="147.450970818808"/>
    <line x1="36.9162188700082" y1="147.450970818808" x2="36.0429337576401" y2="147.182288165043"/>
    <line x1="36.0429337576401" y1="147.182288165043" x2="35.268945301773" y2="146.696737831811"/>
    <line x1="52.4681879365255" y1="152.573559365568" x2="52.8299593688719" y2="152.423708731811"/>
    <line x1="52.8299593688719" y1="152.423708731811" x2="53.2181879365256" y2="152.372597471245"/>
    <line x1="53.2181879365256" y1="152.372597471245" x2="53.6064165041793" y2="152.423708731812"/>
    <line x1="53.6064165041793" y1="152.423708731812" x2="53.9681879365255" y2="152.573559365568"/>
    <line x1="53.9681879365255" y1="152.573559365568" x2="54.2788481083053" y2="152.811937299465"/>
    <line x1="54.2788481083053" y1="152.811937299465" x2="54.5172260422021" y2="153.122597471245"/>
    <line x1="54.5172260422021" y1="153.122597471245" x2="54.6670766759593" y2="153.484368903591"/>
    <line x1="54.6670766759593" y1="153.484368903591" x2="54.7181879365256" y2="153.872597471245"/>
    <line x1="54.7181879365256" y1="153.872597471245" x2="54.6670766759592" y2="154.260826038899"/>
    <line x1="54.6670766759592" y1="154.260826038899" x2="54.5172260422023" y2="154.622597471245"/>
    <line x1="54.5172260422023" y1="154.622597471245" x2="54.2788481083054" y2="154.933257643025"/>
    <line x1="54.2788481083054" y1="154.933257643025" x2="53.9681879365256" y2="155.171635576922"/>
    <line x1="53.9681879365256" y1="155.171635576922" x2="53.6064165041794" y2="155.321486210679"/>
    <line x1="53.6064165041794" y1="155.321486210679" x2="53.2181879365256" y2="155.372597471245"/>
    <line x1="53.2181879365256" y1="155.372597471245" x2="52.8299593688719" y2="155.321486210679"/>
    <line x1="52.8299593688719" y1="155.321486210679" x2="52.4681879365256" y2="155.171635576922"/>
    <line x1="52.4681879365256" y1="155.171635576922" x2="52.1575277647458" y2="154.933257643025"/>
    <line x1="52.1575277647458" y1="154.933257643025" x2="51.9191498308489" y2="154.622597471245"/>
    <line x1="51.9191498308489" y1="154.622597471245" x2="51.7692991970919" y2="154.260826038899"/>
    <line x1="51.7692991970919" y1="154.260826038899" x2="51.7181879365255" y2="153.872597471245"/>
    <line x1="51.7181879365255" y1="153.872597471245" x2="51.7692991970919" y2="153.484368903591"/>
    <line x1="51.7692991970919" y1="153.484368903591" x2="51.9191498308488" y2="153.122597471245"/>
    <line x1="51.9191498308488" y1="153.122597471245" x2="52.1575277647457" y2="152.811937299465"/>
    <line x1="52.1575277647457" y1="152.811937299465" x2="52.4681879365255" y2="152.573559365568"/>
    <line x1="21.1294664225274" y1="152.423708731812" x2="21.4912378548737" y2="152.573559365568"/>
    <line x1="21.4912378548737" y1="152.573559365568" x2="21.8018980266536" y2="152.811937299465"/>
    <line x1="21.8018980266536" y1="152.811937299465" x2="22.0402759605504" y2="153.122597471245"/>
    <line x1="22.0402759605504" y1="153.122597471245" x2="22.1901265943072" y2="153.484368903591"/>
    <line x1="22.1901265943072" y1="153.484368903591" x2="22.2412378548736" y2="153.872597471245"/>
    <line x1="22.2412378548736" y1="153.872597471245" x2="22.1901265943072" y2="154.260826038899"/>
    <line x1="22.1901265943072" y1="154.260826038899" x2="22.0402759605502" y2="154.622597471245"/>
    <line x1="22.0402759605502" y1="154.622597471245" x2="21.8018980266534" y2="154.933257643025"/>
    <line x1="21.8018980266534" y1="154.933257643025" x2="21.4912378548737" y2="155.171635576922"/>
    <line x1="21.4912378548737" y1="155.171635576922" x2="21.1294664225275" y2="155.321486210679"/>
    <line x1="21.1294664225275" y1="155.321486210679" x2="20.7412378548736" y2="155.372597471245"/>
    <line x1="20.7412378548736" y1="155.372597471245" x2="20.3530092872199" y2="155.321486210679"/>
    <line x1="20.3530092872199" y1="155.321486210679" x2="19.9912378548737" y2="155.171635576922"/>
    <line x1="19.9912378548737" y1="155.171635576922" x2="19.6805776830938" y2="154.933257643025"/>
    <line x1="19.6805776830938" y1="154.933257643025" x2="19.4421997491971" y2="154.622597471245"/>
    <line x1="19.4421997491971" y1="154.622597471245" x2="19.2923491154401" y2="154.260826038899"/>
    <line x1="19.2923491154401" y1="154.260826038899" x2="19.2412378548738" y2="153.872597471245"/>
    <line x1="19.2412378548738" y1="153.872597471245" x2="19.29234911544" y2="153.484368903591"/>
    <line x1="19.29234911544" y1="153.484368903591" x2="19.4421997491971" y2="153.122597471245"/>
    <line x1="19.4421997491971" y1="153.122597471245" x2="19.6805776830939" y2="152.811937299465"/>
    <line x1="19.6805776830939" y1="152.811937299465" x2="19.9912378548737" y2="152.573559365568"/>
    <line x1="19.9912378548737" y1="152.573559365568" x2="20.3530092872198" y2="152.423708731812"/>
    <line x1="20.3530092872198" y1="152.423708731812" x2="20.7412378548736" y2="152.372597471245"/>
    <line x1="20.7412378548736" y1="152.372597471245" x2="21.1294664225274" y2="152.423708731812"/>
    <line x1="19.9912378548736" y1="129.875961894323" x2="20.3530092872197" y2="129.726111260567"/>
    <line x1="20.3530092872197" y1="129.726111260567" x2="20.7412378548737" y2="129.675"/>
    <line x1="20.7412378548737" y1="129.675" x2="21.1294664225274" y2="129.726111260567"/>
    <line x1="21.1294664225274" y1="129.726111260567" x2="21.4912378548736" y2="129.875961894323"/>
    <line x1="21.4912378548736" y1="129.875961894323" x2="21.8018980266535" y2="130.11433982822"/>
    <line x1="21.8018980266535" y1="130.11433982822" x2="22.0402759605504" y2="130.425"/>
    <line x1="22.0402759605504" y1="130.425" x2="22.1901265943073" y2="130.786771432346"/>
    <line x1="22.1901265943073" y1="130.786771432346" x2="22.2412378548737" y2="131.175"/>
    <line x1="22.2412378548737" y1="131.175" x2="22.1901265943072" y2="131.563228567654"/>
    <line x1="22.1901265943072" y1="131.563228567654" x2="22.0402759605504" y2="131.925"/>
    <line x1="22.0402759605504" y1="131.925" x2="21.8018980266535" y2="132.23566017178"/>
    <line x1="21.8018980266535" y1="132.23566017178" x2="21.4912378548737" y2="132.474038105677"/>
    <line x1="21.4912378548737" y1="132.474038105677" x2="21.1294664225275" y2="132.623888739434"/>
    <line x1="21.1294664225275" y1="132.623888739434" x2="20.7412378548736" y2="132.675"/>
    <line x1="20.7412378548736" y1="132.675" x2="20.3530092872199" y2="132.623888739434"/>
    <line x1="20.3530092872199" y1="132.623888739434" x2="19.9912378548737" y2="132.474038105677"/>
    <line x1="19.9912378548737" y1="132.474038105677" x2="19.6805776830938" y2="132.23566017178"/>
    <line x1="19.6805776830938" y1="132.23566017178" x2="19.442199749197" y2="131.925"/>
    <line x1="19.442199749197" y1="131.925" x2="19.2923491154401" y2="131.563228567654"/>
    <line x1="19.2923491154401" y1="131.563228567654" x2="19.2412378548737" y2="131.175"/>
    <line x1="19.2412378548737" y1="131.175" x2="19.2923491154401" y2="130.786771432346"/>
    <line x1="19.2923491154401" y1="130.786771432346" x2="19.442199749197" y2="130.425"/>
    <line x1="19.442199749197" y1="130.425" x2="19.6805776830938" y2="130.11433982822"/>
    <line x1="19.6805776830938" y1="130.11433982822" x2="19.9912378548736" y2="129.875961894323"/>
    <line x1="53.9681879365256" y1="129.875961894323" x2="54.2788481083053" y2="130.11433982822"/>
    <line x1="54.2788481083053" y1="130.11433982822" x2="54.5172260422021" y2="130.425"/>
    <line x1="54.5172260422021" y1="130.425" x2="54.6670766759591" y2="130.786771432346"/>
    <line x1="54.6670766759591" y1="130.786771432346" x2="54.7181879365255" y2="131.175"/>
    <line x1="54.7181879365255" y1="131.175" x2="54.6670766759591" y2="131.563228567654"/>
    <line x1="54.6670766759591" y1="131.563228567654" x2="54.5172260422024" y2="131.925"/>
    <line x1="54.5172260422024" y1="131.925" x2="54.2788481083053" y2="132.23566017178"/>
    <line x1="54.2788481083053" y1="132.23566017178" x2="53.9681879365256" y2="132.474038105676"/>
    <line x1="53.9681879365256" y1="132.474038105676" x2="53.6064165041793" y2="132.623888739433"/>
    <line x1="53.6064165041793" y1="132.623888739433" x2="53.2181879365256" y2="132.675"/>
    <line x1="53.2181879365256" y1="132.675" x2="52.8299593688719" y2="132.623888739433"/>
    <line x1="52.8299593688719" y1="132.623888739433" x2="52.4681879365256" y2="132.474038105676"/>
    <line x1="52.4681879365256" y1="132.474038105676" x2="52.1575277647457" y2="132.23566017178"/>
    <line x1="52.1575277647457" y1="132.23566017178" x2="51.9191498308489" y2="131.925"/>
    <line x1="51.9191498308489" y1="131.925" x2="51.769299197092" y2="131.563228567654"/>
    <line x1="51.769299197092" y1="131.563228567654" x2="51.7181879365256" y2="131.175"/>
    <line x1="51.7181879365256" y1="131.175" x2="51.769299197092" y2="130.786771432346"/>
    <line x1="51.769299197092" y1="130.786771432346" x2="51.9191498308488" y2="130.425"/>
    <line x1="51.9191498308488" y1="130.425" x2="52.1575277647457" y2="130.11433982822"/>
    <line x1="52.1575277647457" y1="130.11433982822" x2="52.4681879365256" y2="129.875961894323"/>
    <line x1="52.4681879365256" y1="129.875961894323" x2="52.8299593688718" y2="129.726111260566"/>
    <line x1="52.8299593688718" y1="129.726111260566" x2="53.2181879365256" y2="129.675"/>
    <line x1="53.2181879365256" y1="129.675" x2="53.6064165041794" y2="129.726111260566"/>
    <line x1="53.6064165041794" y1="129.726111260566" x2="53.9681879365256" y2="129.875961894323"/>
  </g>
  <g id="face2" fill="none" stroke="rgb(0,0,255)" stroke-width="1">
    <line x1="10.0" y1="232.047597471245" x2="10.0" y2="279.047597471245"/>
    <line x1="10.0" y1="279.047597471245" x2="39.0475974712451" y2="279.047597471245"/>
    <line x1="39.0475974712451" y1="279.047597471245" x2="39.0475974712451" y2="232.047597471245"/>
    <line x1="39.0475974712451" y1="232.047597471245" x2="10.0" y2="232.047597471245"/>
    <line x1="37.1716355769218" y1="272.015785407771" x2="36.9332576430249" y2="272.326445579551"/>
    <line x1="36.9332576430249" y1="272.326445579551" x2="36.6225974712451" y2="272.564823513447"/>
    <line x1="36.6225974712451" y1="272.564823513447" x2="36.2608260388989" y2="272.714674147204"/>
    <line x1="36.2608260388989" y1="272.714674147204" x2="35.8725974712451" y2="272.765785407771"/>
    <line x1="35.8725974712451" y1="272.765785407771" x2="35.4843689035913" y2="272.714674147204"/>
    <line x1="35.4843689035913" y1="272.714674147204" x2="35.1225974712451" y2="272.564823513447"/>
    <line x1="35.1225974712451" y1="272.564823513447" x2="34.8119372994653" y2="272.326445579551"/>
    <line x1="34.8119372994653" y1="272.326445579551" x2="34.5735593655685" y2="272.015785407771"/>
    <line x1="34.5735593655685" y1="272.015785407771" x2="34.4237087318115" y2="271.654013975425"/>
    <line x1="34.4237087318115" y1="271.654013975425" x2="34.3725974712451" y2="271.265785407771"/>
    <line x1="34.3725974712451" y1="271.265785407771" x2="34.4237087318115" y2="270.877556840117"/>
    <line x1="34.4237087318115" y1="270.877556840117" x2="34.5735593655685" y2="270.515785407771"/>
    <line x1="34.5735593655685" y1="270.515785407771" x2="34.8119372994653" y2="270.205125235991"/>
    <line x1="34.8119372994653" y1="270.205125235991" x2="35.1225974712451" y2="269.966747302094"/>
    <line x1="35.1225974712451" y1="269.966747302094" x2="35.4843689035913" y2="269.816896668337"/>
    <line x1="35.4843689035913" y1="269.816896668337" x2="35.8725974712451" y2="269.765785407771"/>
    <line x1="35.8725974712451" y1="269.765785407771" x2="36.2608260388989" y2="269.816896668337"/>
    <line x1="36.2608260388989" y1="269.816896668337" x2="36.6225974712451" y2="269.966747302094"/>
    <line x1="36.6225974712451" y1="269.966747302094" x2="36.9332576430249" y2="270.205125235991"/>
    <line x1="36.9332576430249" y1="270.205125235991" x2="37.1716355769218" y2="270.515785407771"/>
    <line x1="37.1716355769218" y1="270.515785407771" x2="37.3214862106787" y2="270.877556840117"/>
    <line x1="37.3214862106787" y1="270.877556840117" x2="37.3725974712451" y2="271.265785407771"/>
    <line x1="37.3725974712451" y1="271.265785407771" x2="37.3214862106787" y2="271.654013975425"/>
    <line x1="37.3214862106787" y1="271.654013975425" x2="37.1716355769218" y2="272.015785407771"/>
    <line x1="37.1716355769218" y1="238.038835326119" x2="37.3214862106787" y2="238.400606758465"/>
    <line x1="37.3214862106787" y1="238.400606758465" x2="37.3725974712451" y2="238.788835326119"/>
    <line x1="37.3725974712451" y1="238.788835326119" x2="37.3214862106787" y2="239.177063893773"/>
    <line x1="37.3214862106787" y1="239.177063893773" x2="37.1716355769218" y2="239.538835326119"/>
    <line x1="37.1716355769218" y1="239.538835326119" x2="36.9332576430249" y2="239.849495497899"/>
    <line x1="36.9332576430249" y1="239.849495497899" x2="36.6225974712451" y2="240.087873431796"/>
    <line x1="36.6225974712451" y1="240.087873431796" x2="36.2608260388989" y2="240.237724065552"/>
    <line x1="36.2608260388989" y1="240.237724065552" x2="35.8725974712451" y2="240.288835326119"/>
    <line x1="35.8725974712451" y1="240.288835326119" x2="35.4843689035913" y2="240.237724065552"/>
    <line x1="35.4843689035913" y1="240.237724065552" x2="35.1225974712451" y2="240.087873431796"/>
    <line x1="35.1225974712451" y1="240.087873431796" x2="34.8119372994653" y2="239.849495497899"/>
    <line x1="34.8119372994653" y1="239.849495497899" x2="34.5735593655685" y2="239.538835326119"/>
    <line x1="34.5735593655685" y1="239.538835326119" x2="34.4237087318115" y2="239.177063893773"/>
    <line x1="34.4237087318115" y1="239.177063893773" x2="34.3725974712451" y2="238.788835326119"/>
    <line x1="34.3725974712451" y1="238.788835326119" x2="34.4237087318115" y2="238.400606758465"/>
    <line x1="34.4237087318115" y1="238.400606758465" x2="34.5735593655685" y2="238.038835326119"/>
    <line x1="34.5735593655685" y1="238.038835326119" x2="34.8119372994653" y2="237.728175154339"/>
    <line x1="34.8119372994653" y1="237.728175154339" x2="35.1225974712451" y2="237.489797220442"/>
    <line x1="35.1225974712451" y1="237.489797220442" x2="35.4843689035913" y2="237.339946586685"/>
    <line x1="35.4843689035913" y1="237.339946586685" x2="35.8725974712451" y2="237.288835326119"/>
    <line x1="35.8725974712451" y1="237.288835326119" x2="36.2608260388989" y2="237.339946586685"/>
    <line x1="36.2608260388989" y1="237.339946586685" x2="36.6225974712451" y2="237.489797220442"/>
    <line x1="36.6225974712451" y1="237.489797220442" x2="36.9332576430249" y2="237.728175154339"/>
    <line x1="36.9332576430249" y1="237.728175154339" x2="37.1716355769218" y2="238.038835326119"/>
    <line x1="14.6238887394337" y1="239.177063893773" x2="14.4740381056767" y2="239.538835326119"/>
    <line x1="14.4740381056767" y1="239.538835326119" x2="14.2356601717799" y2="239.849495497899"/>
    <line x1="14.2356601717799" y1="239.849495497899" x2="13.9250000000001" y2="240.087873431796"/>
    <line x1="13.9250000000001" y1="240.087873431796" x2="13.5632285676538" y2="240.237724065553"/>
    <line x1="13.5632285676538" y1="240.237724065553" x2="13.1750000000001" y2="240.288835326119"/>
    <line x1="13.1750000000001" y1="240.288835326119" x2="12.7867714323463" y2="240.237724065553"/>
    <line x1="12.7867714323463" y1="240.237724065553" x2="12.4250000000001" y2="240.087873431796"/>
    <line x1="12.4250000000001" y1="240.087873431796" x2="12.1143398282203" y2="239.849495497899"/>
    <line x1="12.1143398282203" y1="239.849495497899" x2="11.8759618943234" y2="239.538835326119"/>
    <line x1="11.8759618943234" y1="239.538835326119" x2="11.7261112605665" y2="239.177063893773"/>
    <line x1="11.7261112605665" y1="239.177063893773" x2="11.6750000000001" y2="238.788835326119"/>
    <line x1="11.6750000000001" y1="238.788835326119" x2="11.7261112605665" y2="238.400606758465"/>
    <line x1="11.7261112605665" y1="238.400606758465" x2="11.8759618943234" y2="238.038835326119"/>
    <line x1="11.8759618943234" y1="238.038835326119" x2="12.1143398282203" y2="237.728175154339"/>
    <line x1="12.1143398282203" y1="237.728175154339" x2="12.4250000000001" y2="237.489797220442"/>
    <line x1="12.4250000000001" y1="237.489797220442" x2="12.7867714323463" y2="237.339946586685"/>
    <line x1="12.7867714323463" y1="237.339946586685" x2="13.1750000000001" y2="237.288835326119"/>
    <line x1="13.1750000000001" y1="237.288835326119" x2="13.5632285676538" y2="237.339946586685"/>
    <line x1="13.5632285676538" y1="237.339946586685" x2="13.9250000000001" y2="237.489797220442"/>
    <line x1="13.9250000000001" y1="237.489797220442" x2="14.2356601717799" y2="237.728175154339"/>
    <line x1="14.2356601717799" y1="237.728175154339" x2="14.4740381056767" y2="238.038835326119"/>
    <line x1="14.4740381056767" y1="238.038835326119" x2="14.6238887394337" y2="238.400606758465"/>
    <line x1="14.6238887394337" y1="238.400606758465" x2="14.675" y2="238.788835326119"/>
    <line x1="14.675" y1="238.788835326119" x2="14.6238887394337" y2="239.177063893773"/>
    <line x1="14.4740381056767" y1="270.515785407771" x2="14.6238887394337" y2="270.877556840117"/>
    <line x1="14.6238887394337" y1="270.877556840117" x2="14.6750000000001" y2="271.265785407771"/>
    <line x1="14.6750000000001" y1="271.265785407771" x2="14.6238887394337" y2="271.654013975425"/>
    <line x1="14.6238887394337" y1="271.654013975425" x2="14.4740381056767" y2="272.015785407771"/>
    <line x1="14.4740381056767" y1="272.015785407771" x2="14.2356601717799" y2="272.326445579551"/>
    <line x1="14.2356601717799" y1="272.326445579551" x2="13.9250000000001" y2="272.564823513447"/>
    <line x1="13.9250000000001" y1="272.564823513447" x2="13.5632285676539" y2="272.714674147204"/>
    <line x1="13.5632285676539" y1="272.714674147204" x2="13.1750000000001" y2="272.765785407771"/>
    <line x1="13.1750000000001" y1="272.765785407771" x2="12.7867714323463" y2="272.714674147204"/>
    <line x1="12.7867714323463" y1="272.714674147204" x2="12.4250000000001" y2="272.564823513447"/>
    <line x1="12.4250000000001" y1="272.564823513447" x2="12.1143398282203" y2="272.326445579551"/>
    <line x1="12.1143398282203" y1="272.326445579551" x2="11.8759618943234" y2="272.015785407771"/>
    <line x1="11.8759618943234" y1="272.015785407771" x2="11.7261112605665" y2="271.654013975425"/>
    <line x1="11.7261112605665" y1="271.654013975425" x2="11.6750000000001" y2="271.265785407771"/>
    <line x1="11.6750000000001" y1="271.265785407771" x2="11.7261112605665" y2="270.877556840117"/>
    <line x1="11.7261112605665" y1="270.877556840117" x2="11.8759618943234" y2="270.515785407771"/>
    <line x1="11.8759618943234" y1="270.515785407771" x2="12.1143398282203" y2="270.205125235991"/>
    <line x1="12.1143398282203" y1="270.205125235991" x2="12.4250000000001" y2="269.966747302094"/>
    <line x1="12.4250000000001" y1="269.966747302094" x2="12.7867714323463" y2="269.816896668337"/>
    <line x1="12.7867714323463" y1="269.816896668337" x2="13.1750000000001" y2="269.765785407771"/>
    <line x1="13.1750000000001" y1="269.765785407771" x2="13.5632285676539" y2="269.816896668337"/>
    <line x1="13.5632285676539" y1="269.816896668337" x2="13.9250000000001" y2="269.966747302094"/>
    <line x1="13.9250000000001" y1="269.966747302094" x2="14.2356601717799" y2="270.205125235991"/>
    <line x1="14.2356601717799" y1="270.205125235991" x2="14.4740381056767" y2="270.515785407771"/>
    <line x1="25.0282712329437" y1="255.270232279271" x2="25.0282712329437" y2="255.792337048152"/>
    <line x1="25.0282712329437" y1="255.792337048152" x2="24.8972962891618" y2="256.297746737205"/>
    <line x1="24.8972962891618" y1="256.297746737205" x2="24.6399745552597" y2="256.752036198836"/>
    <line x1="24.6399745552597" y1="256.752036198836" x2="24.2738420821587" y2="257.124246356984"/>
    <line x1="24.2738420821587" y1="257.124246356984" x2="23.8238501928381" y2="257.389011704477"/>
    <line x1="23.8238501928381" y1="257.389011704477" x2="23.3206650909084" y2="257.528288920429"/>
    <line x1="23.3206650909084" y1="257.528288920429" x2="22.7985780095132" y2="257.532586492739"/>
    <line x1="22.7985780095132" y1="257.532586492739" x2="22.2931683204601" y2="257.401611548957"/>
    <line x1="22.2931683204601" y1="257.401611548957" x2="21.838878858829" y2="257.144289815055"/>
    <line x1="21.838878858829" y1="257.144289815055" x2="21.4666687006812" y2="256.778157341954"/>
    <line x1="21.4666687006812" y1="256.778157341954" x2="21.2019033531881" y2="256.328165452634"/>
    <line x1="21.2019033531881" y1="256.328165452634" x2="21.062626137236" y2="255.824980350704"/>
    <line x1="21.062626137236" y1="255.824980350704" x2="21.062626137236" y2="255.302875581824"/>
    <line x1="21.062626137236" y1="255.302875581824" x2="21.193601081018" y2="254.797465892771"/>
    <line x1="21.193601081018" y1="254.797465892771" x2="21.45092281492" y2="254.34317643114"/>
    <line x1="21.45092281492" y1="254.34317643114" x2="21.817055288021" y2="253.970966272992"/>
    <line x1="21.817055288021" y1="253.970966272992" x2="22.2670471773416" y2="253.706200925499"/>
    <line x1="22.2670471773416" y1="253.706200925499" x2="22.7702322792714" y2="253.566923709547"/>
    <line x1="22.7702322792714" y1="253.566923709547" x2="23.2923193606665" y2="253.562626137236"/>
    <line x1="23.2923193606665" y1="253.562626137236" x2="23.7977290497196" y2="253.693601081018"/>
    <line x1="23.7977290497196" y1="253.693601081018" x2="24.2520185113507" y2="253.95092281492"/>
    <line x1="24.2520185113507" y1="253.95092281492" x2="24.6242286694985" y2="254.317055288021"/>
    <line x1="24.6242286694985" y1="254.317055288021" x2="24.8889940169916" y2="254.767047177342"/>
    <line x1="24.8889940169916" y1="254.767047177342" x2="25.0282712329437" y2="255.270232279271"/>
  </g>
  <g id="face3" fill="none" stroke="rgb(0,0,255)" stroke-width="1">
    <line x1="64.9999999999999" y1="340.047597471245" x2="64.9999999999999" y2="334.000659616371"/>
    <line x1="64.9999999999999" y1="334.000659616371" x2="58.4616487071338" y2="334.000659616371"/>
    <line x1="58.4616487071338" y1="334.000659616371" x2="58.4616487071338" y2="334.967051722262"/>
    <line x1="58.4616487071338" y1="334.967051722262" x2="56.4616487071338" y2="334.967051722262"/>
    <line x1="56.4616487071338" y1="334.967051722262" x2="56.4616487071338" y2="334.000659616371"/>
    <line x1="56.4616487071338" y1="334.000659616371" x2="54.1570100387847" y2="334.000659616371"/>
    <line x1="54.1570100387847" y1="334.000659616371" x2="54.1570100387847" y2="331.000659616371"/>
    <line x1="54.1570100387847" y1="331.000659616371" x2="56.4616487071338" y2="331.000659616371"/>
    <line x1="56.4616487071338" y1="331.000659616371" x2="56.4616487071338" y2="329.967051722262"/>
    <line x1="56.4616487071338" y1="329.967051722262" x2="58.4616487071338" y2="329.967051722262"/>
    <line x1="58.4616487071338" y1="329.967051722262" x2="58.4616487071338" y2="331.000659616371"/>
    <line x1="58.4616487071338" y1="331.000659616371" x2="64.9999999999999" y2="331.000659616371"/>
    <line x1="64.9999999999999" y1="331.000659616371" x2="64.9999999999999" y2="293.047597471245"/>
    <line x1="64.9999999999999" y1="293.047597471245" x2="64.9657794454952" y2="292.525492702365"/>
    <line x1="64.9657794454952" y1="292.525492702365" x2="64.8637033051562" y2="292.012321290835"/>
    <line x1="64.8637033051562" y1="292.012321290835" x2="64.6955181300451" y2="291.516863741785"/>
    <line x1="64.6955181300451" y1="291.516863741785" x2="64.4641016151377" y2="291.047597471245"/>
    <line x1="64.4641016151377" y1="291.047597471245" x2="64.1734133611649" y2="290.61255175521"/>
    <line x1="64.1734133611649" y1="290.61255175521" x2="63.8284271247461" y2="290.219170346499"/>
    <line x1="63.8284271247461" y1="290.219170346499" x2="63.4350457160348" y2="289.87418411008"/>
    <line x1="63.4350457160348" y1="289.87418411008" x2="62.9999999999999" y2="289.583495856107"/>
    <line x1="62.9999999999999" y1="289.583495856107" x2="62.5307337294603" y2="289.3520793412"/>
    <line x1="62.5307337294603" y1="289.3520793412" x2="62.03527618041" y2="289.183894166089"/>
    <line x1="62.03527618041" y1="289.183894166089" x2="61.5221047688802" y2="289.08181802575"/>
    <line x1="61.5221047688802" y1="289.08181802575" x2="61.0" y2="289.047597471245"/>
    <line x1="61.0" y1="289.047597471245" x2="14.0" y2="289.047597471245"/>
    <line x1="14.0" y1="289.047597471245" x2="13.4778952311198" y2="289.08181802575"/>
    <line x1="13.4778952311198" y1="289.08181802575" x2="12.9647238195899" y2="289.183894166089"/>
    <line x1="12.9647238195899" y1="289.183894166089" x2="12.4692662705396" y2="289.3520793412"/>
    <line x1="12.4692662705396" y1="289.3520793412" x2="12.0" y2="289.583495856107"/>
    <line x1="12.0" y1="289.583495856107" x2="11.5649542839651" y2="289.87418411008"/>
    <line x1="11.5649542839651" y1="289.87418411008" x2="11.1715728752538" y2="290.219170346499"/>
    <line x1="11.1715728752538" y1="290.219170346499" x2="10.8265866388351" y2="290.61255175521"/>
    <line x1="10.8265866388351" y1="290.61255175521" x2="10.5358983848622" y2="291.047597471245"/>
    <line x1="10.5358983848622" y1="291.047597471245" x2="10.3044818699549" y2="291.516863741785"/>
    <line x1="10.3044818699549" y1="291.516863741785" x2="10.1362966948437" y2="292.012321290835"/>
    <line x1="10.1362966948437" y1="292.012321290835" x2="10.0342205545048" y2="292.525492702365"/>
    <line x1="10.0342205545048" y1="292.525492702365" x2="10.0" y2="293.047597471245"/>
    <line x1="10.0" y1="293.047597471245" x2="10.0" y2="340.047597471245"/>
    <line x1="10.0" y1="340.047597471245" x2="10.0342205545048" y2="340.569702240125"/>
    <line x1="10.0342205545048" y1="340.569702240125" x2="10.1362966948438" y2="341.082873651655"/>
    <line x1="10.1362966948438" y1="341.082873651655" x2="10.3044818699549" y2="341.578331200705"/>
    <line x1="10.3044818699549" y1="341.578331200705" x2="10.5358983848623" y2="342.047597471245"/>
    <line x1="10.5358983848623" y1="342.047597471245" x2="10.8265866388351" y2="342.48264318728"/>
    <line x1="10.8265866388351" y1="342.48264318728" x2="11.1715728752538" y2="342.876024595991"/>
    <line x1="11.1715728752538" y1="342.876024595991" x2="11.5649542839652" y2="343.22101083241"/>
    <line x1="11.5649542839652" y1="343.22101083241" x2="12.0" y2="343.511699086383"/>
    <line x1="12.0" y1="343.511699086383" x2="12.4692662705397" y2="343.74311560129"/>
    <line x1="12.4692662705397" y1="343.74311560129" x2="12.96472381959" y2="343.911300776401"/>
    <line x1="12.96472381959" y1="343.911300776401" x2="13.4778952311198" y2="344.01337691674"/>
    <line x1="13.4778952311198" y1="344.01337691674" x2="14.0" y2="344.047597471245"/>
    <line x1="14.0" y1="344.047597471245" x2="61.0092728108623" y2="344.047597471245"/>
    <line x1="61.0092728108623" y1="344.047597471245" x2="61.5309338642767" y2="344.013355335731"/>
    <line x1="61.5309338642767" y1="344.013355335731" x2="62.0436427946683" y2="343.911216551762"/>
    <line x1="62.0436427946683" y1="343.911216551762" x2="62.5386011046416" y2="343.742933902976"/>
    <line x1="62.5386011046416" y1="343.742933902976" x2="63.0073149117167" y2="343.511395254904"/>
    <line x1="63.0073149117167" y1="343.511395254904" x2="63.4417407101804" y2="343.220573996872"/>
    <line x1="63.4417407101804" y1="343.220573996872" x2="63.8344234041105" y2="342.875460855451"/>
    <line x1="63.8344234041105" y1="342.875460855451" x2="64.1786242428143" y2="342.481978249571"/>
    <line x1="64.1786242428143" y1="342.481978249571" x2="64.4684364632078" y2="342.046878657059"/>
    <line x1="64.4684364632078" y1="342.046878657059" x2="64.6988866546186" y2="341.577628736683"/>
    <line x1="64.6988866546186" y1="341.577628736683" x2="64.8660201065107" y2="341.082281194292"/>
    <line x1="64.8660201065107" y1="341.082281194292" x2="64.9669686744964" y2="340.569336591907"/>
    <line x1="64.9669686744964" y1="340.569336591907" x2="64.9999999999999" y2="340.047597471245"/>
    <line x1="15.3056580615441" y1="290.915636630534" x2="15.8129609109367" y2="291.326210607285"/>
    <line x1="15.8129609109367" y1="291.326210607285" x2="16.1967134703086" y2="291.854094254088"/>
    <line x1="16.1967134703086" y1="291.854094254088" x2="16.4307636369196" y2="292.463313172783"/>
    <line x1="16.4307636369196" y1="292.463313172783" x2="16.4991612787014" y2="293.112350100843"/>
    <line x1="16.4991612787014" y1="293.112350100843" x2="16.397245209399" y2="293.756974244204"/>
    <line x1="16.397245209399" y1="293.756974244204" x2="16.1319608407111" y2="294.353255532789"/>
    <line x1="16.1319608407111" y1="294.353255532789" x2="15.7213868639606" y2="294.860558382182"/>
    <line x1="15.7213868639606" y1="294.860558382182" x2="15.1935032171574" y2="295.244310941554"/>
    <line x1="15.1935032171574" y1="295.244310941554" x2="14.5842842984623" y2="295.478361108165"/>
    <line x1="14.5842842984623" y1="295.478361108165" x2="13.9352473704025" y2="295.546758749946"/>
    <line x1="13.9352473704025" y1="295.546758749946" x2="13.290623227041" y2="295.444842680644"/>
    <line x1="13.290623227041" y1="295.444842680644" x2="12.6943419384561" y2="295.179558311956"/>
    <line x1="12.6943419384561" y1="295.179558311956" x2="12.1870390890634" y2="294.768984335206"/>
    <line x1="12.1870390890634" y1="294.768984335206" x2="11.8032865296915" y2="294.241100688402"/>
    <line x1="11.8032865296915" y1="294.241100688402" x2="11.5692363630805" y2="293.631881769707"/>
    <line x1="11.5692363630805" y1="293.631881769707" x2="11.5008387212987" y2="292.982844841647"/>
    <line x1="11.5008387212987" y1="292.982844841647" x2="11.6027547906011" y2="292.338220698286"/>
    <line x1="11.6027547906011" y1="292.338220698286" x2="11.8680391592891" y2="291.741939409701"/>
    <line x1="11.8680391592891" y1="291.741939409701" x2="12.2786131360396" y2="291.234636560308"/>
    <line x1="12.2786131360396" y1="291.234636560308" x2="12.8064967828427" y2="290.850884000937"/>
    <line x1="12.8064967828427" y1="290.850884000937" x2="13.4157157015378" y2="290.616833834325"/>
    <line x1="13.4157157015378" y1="290.616833834325" x2="14.0647526295976" y2="290.548436192544"/>
    <line x1="14.0647526295976" y1="290.548436192544" x2="14.7093767729591" y2="290.650352261846"/>
    <line x1="14.7093767729591" y1="290.650352261846" x2="15.3056580615441" y2="290.915636630534"/>
    <line x1="62.7677669529664" y1="291.279830518279" x2="63.1650635094611" y2="291.797597471245"/>
    <line x1="63.1650635094611" y1="291.797597471245" x2="63.4148145657227" y2="292.400549858489"/>
    <line x1="63.4148145657227" y1="292.400549858489" x2="63.5" y2="293.047597471245"/>
    <line x1="63.5" y1="293.047597471245" x2="63.4148145657227" y2="293.694645084001"/>
    <line x1="63.4148145657227" y1="293.694645084001" x2="63.1650635094611" y2="294.297597471245"/>
    <line x1="63.1650635094611" y1="294.297597471245" x2="62.7677669529664" y2="294.815364424211"/>
    <line x1="62.7677669529664" y1="294.815364424211" x2="62.25" y2="295.212660980706"/>
    <line x1="62.25" y1="295.212660980706" x2="61.6470476127563" y2="295.462412036968"/>
    <line x1="61.6470476127563" y1="295.462412036968" x2="61.0" y2="295.547597471245"/>
    <line x1="61.0" y1="295.547597471245" x2="60.3529523872437" y2="295.462412036968"/>
    <line x1="60.3529523872437" y1="295.462412036968" x2="59.75" y2="295.212660980706"/>
    <line x1="59.75" y1="295.212660980706" x2="59.2322330470337" y2="294.815364424211"/>
    <line x1="59.2322330470337" y1="294.815364424211" x2="58.8349364905389" y2="294.297597471245"/>
    <line x1="58.8349364905389" y1="294.297597471245" x2="58.5851854342773" y2="293.694645084001"/>
    <line x1="58.5851854342773" y1="293.694645084001" x2="58.5" y2="293.047597471245"/>
    <line x1="58.5" y1="293.047597471245" x2="58.5851854342773" y2="292.400549858489"/>
    <line x1="58.5851854342773" y1="292.400549858489" x2="58.8349364905389" y2="291.797597471245"/>
    <line x1="58.8349364905389" y1="291.797597471245" x2="59.2322330470337" y2="291.279830518279"/>
    <line x1="59.2322330470337" y1="291.279830518279" x2="59.75" y2="290.882533961784"/>
    <line x1="59.75" y1="290.882533961784" x2="60.3529523872437" y2="290.632782905522"/>
    <line x1="60.3529523872437" y1="290.632782905522" x2="61.0" y2="290.547597471245"/>
    <line x1="61.0" y1="290.547597471245" x2="61.6470476127563" y2="290.632782905522"/>
    <line x1="61.6470476127563" y1="290.632782905522" x2="62.25" y2="290.882533961784"/>
    <line x1="62.25" y1="290.882533961784" x2="62.7677669529664" y2="291.279830518279"/>
    <line x1="15.7677669529664" y1="338.279830518279" x2="16.1650635094611" y2="338.797597471245"/>
    <line x1="16.1650635094611" y1="338.797597471245" x2="16.4148145657227" y2="339.400549858489"/>
    <line x1="16.4148145657227" y1="339.400549858489" x2="16.5" y2="340.047597471245"/>
    <line x1="16.5" y1="340.047597471245" x2="16.4148145657227" y2="340.694645084001"/>
    <line x1="16.4148145657227" y1="340.694645084001" x2="16.1650635094611" y2="341.297597471245"/>
    <line x1="16.1650635094611" y1="341.297597471245" x2="15.7677669529664" y2="341.815364424211"/>
    <line x1="15.7677669529664" y1="341.815364424211" x2="15.25" y2="342.212660980706"/>
    <line x1="15.25" y1="342.212660980706" x2="14.6470476127563" y2="342.462412036968"/>
    <line x1="14.6470476127563" y1="342.462412036968" x2="14.0" y2="342.547597471245"/>
    <line x1="14.0" y1="342.547597471245" x2="13.3529523872437" y2="342.462412036968"/>
    <line x1="13.3529523872437" y1="342.462412036968" x2="12.75" y2="342.212660980706"/>
    <line x1="12.75" y1="342.212660980706" x2="12.2322330470337" y2="341.815364424211"/>
    <line x1="12.2322330470337" y1="341.815364424211" x2="11.8349364905389" y2="341.297597471245"/>
    <line x1="11.8349364905389" y1="341.297597471245" x2="11.5851854342774" y2="340.694645084001"/>
    <line x1="11.5851854342774" y1="340.694645084001" x2="11.5" y2="340.047597471245"/>
    <line x1="11.5" y1="340.047597471245" x2="11.5851854342774" y2="339.400549858489"/>
    <line x1="11.5851854342774" y1="339.400549858489" x2="11.8349364905389" y2="338.797597471245"/>
    <line x1="11.8349364905389" y1="338.797597471245" x2="12.2322330470337" y2="338.279830518279"/>
    <line x1="12.2322330470337" y1="338.279830518279" x2="12.75" y2="337.882533961784"/>
    <line x1="12.75" y1="337.882533961784" x2="13.3529523872437" y2="337.632782905522"/>
    <line x1="13.3529523872437" y1="337.632782905522" x2="14.0" y2="337.547597471245"/>
    <line x1="14.0" y1="337.547597471245" x2="14.6470476127563" y2="337.632782905522"/>
    <line x1="14.6470476127563" y1="337.632782905522" x2="15.25" y2="337.882533961784"/>
    <line x1="15.25" y1="337.882533961784" x2="15.7677669529664" y2="338.279830518279"/>
    <line x1="59.75" y1="342.212660980706" x2="59.2322330470336" y2="341.815364424211"/>
    <line x1="59.2322330470336" y1="341.815364424211" x2="58.8349364905389" y2="341.297597471245"/>
    <line x1="58.8349364905389" y1="341.297597471245" x2="58.5851854342773" y2="340.694645084001"/>
    <line x1="58.5851854342773" y1="340.694645084001" x2="58.5" y2="340.047597471245"/>
    <line x1="58.5" y1="340.047597471245" x2="58.5851854342773" y2="339.400549858489"/>
    <line x1="58.5851854342773" y1="339.400549858489" x2="58.8349364905389" y2="338.797597471245"/>
    <line x1="58.8349364905389" y1="338.797597471245" x2="59.2322330470336" y2="338.279830518279"/>
    <line x1="59.2322330470336" y1="338.279830518279" x2="59.75" y2="337.882533961784"/>
    <line x1="59.75" y1="337.882533961784" x2="60.3529523872437" y2="337.632782905522"/>
    <line x1="60.3529523872437" y1="337.632782905522" x2="61.0" y2="337.547597471245"/>
    <line x1="61.0" y1="337.547597471245" x2="61.6470476127563" y2="337.632782905522"/>
    <line x1="61.6470476127563" y1="337.632782905522" x2="62.25" y2="337.882533961784"/>
    <line x1="62.25" y1="337.882533961784" x2="62.7677669529664" y2="338.279830518279"/>
    <line x1="62.7677669529664" y1="338.279830518279" x2="63.1650635094611" y2="338.797597471245"/>
    <line x1="63.1650635094611" y1="338.797597471245" x2="63.4148145657227" y2="339.400549858489"/>
    <line x1="63.4148145657227" y1="339.400549858489" x2="63.5" y2="340.047597471245"/>
    <line x1="63.5" y1="340.047597471245" x2="63.4148145657227" y2="340.694645084001"/>
    <line x1="63.4148145657227" y1="340.694645084001" x2="63.1650635094611" y2="341.297597471245"/>
    <line x1="63.1650635094611" y1="341.297597471245" x2="62.7677669529664" y2="341.815364424211"/>
    <line x1="62.7677669529664" y1="341.815364424211" x2="62.25" y2="342.212660980706"/>
    <line x1="62.25" y1="342.212660980706" x2="61.6470476127563" y2="342.462412036968"/>
    <line x1="61.6470476127563" y1="342.462412036968" x2="61.0" y2="342.547597471245"/>
    <line x1="61.0" y1="342.547597471245" x2="60.3529523872437" y2="342.462412036968"/>
    <line x1="60.3529523872437" y1="342.462412036968" x2="59.75" y2="342.212660980706"/>
    <line x1="41.2062174468785" y1="335.520559858304" x2="41.1277984536895" y2="335.539104642309"/>
    <line x1="41.1277984536895" y1="335.539104642309" x2="41.5666177769279" y2="336.280434637809"/>
    <line x1="41.5666177769279" y1="336.280434637809" x2="41.8829773984903" y2="337.411770408099"/>
    <line x1="41.8829773984903" y1="337.411770408099" x2="41.8829773984903" y2="338.586506138079"/>
    <line x1="41.8829773984903" y1="338.586506138079" x2="41.5912849823499" y2="339.724451466141"/>
    <line x1="41.5912849823499" y1="339.724451466141" x2="41.0150098210794" y2="340.748126694813"/>
    <line x1="41.0150098210794" y1="340.748126694813" x2="40.1934241145794" y2="341.587770048963"/>
    <line x1="40.1934241145794" y1="341.587770048963" x2="39.1825175710134" y2="342.186161221581"/>
    <line x1="39.1825175710134" y1="342.186161221581" x2="38.0511818007234" y2="342.502520843144"/>
    <line x1="38.0511818007234" y1="342.502520843144" x2="36.8765154668339" y2="342.515289528249"/>
    <line x1="36.8765154668339" y1="342.515289528249" x2="35.7385701387716" y2="342.223597112109"/>
    <line x1="35.7385701387716" y1="342.223597112109" x2="34.7148949101002" y2="341.647321950838"/>
    <line x1="34.7148949101002" y1="341.647321950838" x2="33.8752515559506" y2="340.825736244338"/>
    <line x1="33.8752515559506" y1="340.825736244338" x2="33.2768603833317" y2="339.814829700772"/>
    <line x1="33.2768603833317" y1="339.814829700772" x2="32.9605007617693" y2="338.683493930482"/>
    <line x1="32.9605007617693" y1="338.683493930482" x2="32.9605007617693" y2="337.508758200502"/>
    <line x1="32.9605007617693" y1="337.508758200502" x2="33.2521931779096" y2="336.37081287244"/>
    <line x1="33.2521931779096" y1="336.37081287244" x2="33.6816530657348" y2="335.607935208399"/>
    <line x1="33.6816530657348" y1="335.607935208399" x2="29.4361965575301" y2="334.334646270359"/>
    <line x1="29.4361965575301" y1="334.334646270359" x2="25.1048878764398" y2="331.660104400005"/>
    <line x1="25.1048878764398" y1="331.660104400005" x2="21.6133873327163" y2="327.955670157055"/>
    <line x1="21.6133873327163" y1="327.955670157055" x2="19.1996349184369" y2="323.473794613298"/>
    <line x1="19.1996349184369" y1="323.473794613298" x2="18.0281238717202" y2="318.519910180393"/>
    <line x1="18.0281238717202" y1="318.519910180393" x2="18.1786907343866" y2="313.431615895759"/>
    <line x1="18.1786907343866" y1="313.431615895759" x2="19.6410746235687" y2="308.555670606093"/>
    <line x1="19.6410746235687" y1="308.555670606093" x2="22.3156164939224" y2="304.224361925002"/>
    <line x1="22.3156164939224" y1="304.224361925002" x2="26.0200507368727" y2="300.732861381279"/>
    <line x1="26.0200507368727" y1="300.732861381279" x2="30.5019262806293" y2="298.319108966999"/>
    <line x1="30.5019262806293" y1="298.319108966999" x2="35.4558107135349" y2="297.147597920283"/>
    <line x1="35.4558107135349" y1="297.147597920283" x2="40.5441049981681" y2="297.298164782949"/>
    <line x1="40.5441049981681" y1="297.298164782949" x2="45.4200502878349" y2="298.760548672131"/>
    <line x1="45.4200502878349" y1="298.760548672131" x2="49.7513589689252" y2="301.435090542485"/>
    <line x1="49.7513589689252" y1="301.435090542485" x2="53.2428595126487" y2="305.139524785435"/>
    <line x1="53.2428595126487" y1="305.139524785435" x2="55.6566119269281" y2="309.621400329192"/>
    <line x1="55.6566119269281" y1="309.621400329192" x2="56.8281229736447" y2="314.575284762097"/>
    <line x1="56.8281229736447" y1="314.575284762097" x2="56.6775561109784" y2="319.663579046731"/>
    <line x1="56.6775561109784" y1="319.663579046731" x2="55.2151722217963" y2="324.539524336397"/>
    <line x1="55.2151722217963" y1="324.539524336397" x2="52.5406303514425" y2="328.870833017488"/>
    <line x1="52.5406303514425" y1="328.870833017488" x2="48.8361961084923" y2="332.362333561211"/>
    <line x1="48.8361961084923" y1="332.362333561211" x2="44.3543205647357" y2="334.776085975491"/>
    <line x1="44.3543205647357" y1="334.776085975491" x2="41.2062174468785" y2="335.520559858304"/>
    <line x1="58.2314487071338" y1="299.329409534719" x2="64.9268100387848" y2="299.329409534719"/>
    <line x1="64.9268100387848" y1="299.329409534719" x2="64.9268100387848" y2="302.329409534719"/>
    <line x1="64.9268100387848" y1="302.329409534719" x2="58.2314487071338" y2="302.329409534719"/>
    <line x1="58.2314487071338" y1="302.329409534719" x2="58.2314487071338" y2="303.29580164061"/>
    <line x1="58.2314487071338" y1="303.29580164061" x2="56.2314487071338" y2="303.29580164061"/>
    <line x1="56.2314487071338" y1="303.29580164061" x2="56.2314487071338" y2="302.329409534719"/>
    <line x1="56.2314487071338" y1="302.329409534719" x2="53.9268100387848" y2="302.329409534719"/>
    <line x1="53.9268100387848" y1="302.329409534719" x2="53.9268100387848" y2="299.329409534719"/>
    <line x1="53.9268100387848" y1="299.329409534719" x2="56.2314487071338" y2="299.329409534719"/>
    <line x1="56.2314487071338" y1="299.329409534719" x2="56.2314487071338" y2="298.29580164061"/>
    <line x1="56.2314487071338" y1="298.29580164061" x2="58.2314487071339" y2="298.29580164061"/>
    <line x1="58.2314487071339" y1="298.29580164061" x2="58.2314487071338" y2="299.329409534719"/>
    <line x1="56.2314487071339" y1="299.329409534719" x2="58.2314487071339" y2="299.329409534719"/>
    <line x1="58.2314487071339" y1="299.329409534719" x2="58.2314487071339" y2="302.329409534719"/>
    <line x1="58.2314487071339" y1="302.329409534719" x2="56.2314487071339" y2="302.329409534719"/>
    <line x1="56.2314487071339" y1="302.329409534719" x2="56.2314487071339" y2="299.329409534719"/>
  </g>
  <g id="face4" fill="none" stroke="rgb(0,0,255)" stroke-width="1">
    <line x1="10.0" y1="358.047597471245" x2="10.0" y2="405.047597471245"/>
    <line x1="10.0" y1="405.047597471245" x2="10.0342205545048" y2="405.569702240125"/>
    <line x1="10.0342205545048" y1="405.569702240125" x2="10.1362966948438" y2="406.082873651655"/>
    <line x1="10.1362966948438" y1="406.082873651655" x2="10.3044818699549" y2="406.578331200705"/>
    <line x1="10.3044818699549" y1="406.578331200705" x2="10.5358983848623" y2="407.047597471245"/>
    <line x1="10.5358983848623" y1="407.047597471245" x2="10.8265866388351" y2="407.48264318728"/>
    <line x1="10.8265866388351" y1="407.48264318728" x2="11.1715728752538" y2="407.876024595991"/>
    <line x1="11.1715728752538" y1="407.876024595991" x2="11.5649542839652" y2="408.22101083241"/>
    <line x1="11.5649542839652" y1="408.22101083241" x2="12.0" y2="408.511699086383"/>
    <line x1="12.0" y1="408.511699086383" x2="12.4692662705397" y2="408.74311560129"/>
    <line x1="12.4692662705397" y1="408.74311560129" x2="12.9647238195899" y2="408.911300776401"/>
    <line x1="12.9647238195899" y1="408.911300776401" x2="13.4778952311198" y2="409.01337691674"/>
    <line x1="13.4778952311198" y1="409.01337691674" x2="14.0" y2="409.047597471245"/>
    <line x1="14.0" y1="409.047597471245" x2="61.0092728108623" y2="409.047597471245"/>
    <line x1="61.0092728108623" y1="409.047597471245" x2="61.5309338642767" y2="409.013355335731"/>
    <line x1="61.5309338642767" y1="409.013355335731" x2="62.0436427946683" y2="408.911216551762"/>
    <line x1="62.0436427946683" y1="408.911216551762" x2="62.5386011046416" y2="408.742933902976"/>
    <line x1="62.5386011046416" y1="408.742933902976" x2="63.0073149117167" y2="408.511395254904"/>
    <line x1="63.0073149117167" y1="408.511395254904" x2="63.4417407101804" y2="408.220573996872"/>
    <line x1="63.4417407101804" y1="408.220573996872" x2="63.8344234041105" y2="407.875460855451"/>
    <line x1="63.8344234041105" y1="407.875460855451" x2="64.1786242428143" y2="407.481978249571"/>
    <line x1="64.1786242428143" y1="407.481978249571" x2="64.4684364632078" y2="407.046878657059"/>
    <line x1="64.4684364632078" y1="407.046878657059" x2="64.6988866546186" y2="406.577628736683"/>
    <line x1="64.6988866546186" y1="406.577628736683" x2="64.8660201065107" y2="406.082281194292"/>
    <line x1="64.8660201065107" y1="406.082281194292" x2="64.9669686744964" y2="405.569336591907"/>
    <line x1="64.9669686744964" y1="405.569336591907" x2="65.0" y2="405.047597471245"/>
    <line x1="65.0" y1="405.047597471245" x2="65.0" y2="358.047597471245"/>
    <line x1="65.0" y1="358.047597471245" x2="64.9657794454953" y2="357.525492702365"/>
    <line x1="64.9657794454953" y1="357.525492702365" x2="64.8637033051563" y2="357.012321290835"/>
    <line x1="64.8637033051563" y1="357.012321290835" x2="64.6955181300452" y2="356.516863741785"/>
    <line x1="64.6955181300452" y1="356.516863741785" x2="64.4641016151378" y2="356.047597471245"/>
    <line x1="64.4641016151378" y1="356.047597471245" x2="64.173413361165" y2="355.61255175521"/>
    <line x1="64.173413361165" y1="355.61255175521" x2="63.8284271247462" y2="355.219170346499"/>
    <line x1="63.8284271247462" y1="355.219170346499" x2="63.4350457160349" y2="354.87418411008"/>
    <line x1="63.4350457160349" y1="354.87418411008" x2="63.0" y2="354.583495856107"/>
    <line x1="63.0" y1="354.583495856107" x2="62.5307337294604" y2="354.3520793412"/>
    <line x1="62.5307337294604" y1="354.3520793412" x2="62.0352761804101" y2="354.183894166089"/>
    <line x1="62.0352761804101" y1="354.183894166089" x2="61.5221047688803" y2="354.08181802575"/>
    <line x1="61.5221047688803" y1="354.08181802575" x2="61.0" y2="354.047597471245"/>
    <line x1="61.0" y1="354.047597471245" x2="14.0000000000001" y2="354.047597471245"/>
    <line x1="14.0000000000001" y1="354.047597471245" x2="13.4778952311199" y2="354.08181802575"/>
    <line x1="13.4778952311199" y1="354.08181802575" x2="12.96472381959" y2="354.183894166089"/>
    <line x1="12.96472381959" y1="354.183894166089" x2="12.4692662705397" y2="354.3520793412"/>
    <line x1="12.4692662705397" y1="354.3520793412" x2="12.0000000000001" y2="354.583495856107"/>
    <line x1="12.0000000000001" y1="354.583495856107" x2="11.5649542839652" y2="354.87418411008"/>
    <line x1="11.5649542839652" y1="354.87418411008" x2="11.1715728752539" y2="355.219170346499"/>
    <line x1="11.1715728752539" y1="355.219170346499" x2="10.8265866388352" y2="355.61255175521"/>
    <line x1="10.8265866388352" y1="355.61255175521" x2="10.5358983848623" y2="356.047597471245"/>
    <line x1="10.5358983848623" y1="356.047597471245" x2="10.3044818699549" y2="356.516863741785"/>
    <line x1="10.3044818699549" y1="356.516863741785" x2="10.1362966948438" y2="357.012321290835"/>
    <line x1="10.1362966948438" y1="357.012321290835" x2="10.0342205545049" y2="357.525492702365"/>
    <line x1="10.0342205545049" y1="357.525492702365" x2="10.0" y2="358.047597471245"/>
    <line x1="15.3056580615441" y1="355.915636630534" x2="15.8129609109367" y2="356.326210607285"/>
    <line x1="15.8129609109367" y1="356.326210607285" x2="16.1967134703086" y2="356.854094254088"/>
    <line x1="16.1967134703086" y1="356.854094254088" x2="16.4307636369197" y2="357.463313172783"/>
    <line x1="16.4307636369197" y1="357.463313172783" x2="16.4991612787015" y2="358.112350100843"/>
    <line x1="16.4991612787015" y1="358.112350100843" x2="16.397245209399" y2="358.756974244204"/>
    <line x1="16.397245209399" y1="358.756974244204" x2="16.1319608407111" y2="359.353255532789"/>
    <line x1="16.1319608407111" y1="359.353255532789" x2="15.7213868639606" y2="359.860558382182"/>
    <line x1="15.7213868639606" y1="359.860558382182" x2="15.1935032171575" y2="360.244310941554"/>
    <line x1="15.1935032171575" y1="360.244310941554" x2="14.5842842984624" y2="360.478361108165"/>
    <line x1="14.5842842984624" y1="360.478361108165" x2="13.9352473704026" y2="360.546758749946"/>
    <line x1="13.9352473704026" y1="360.546758749946" x2="13.290623227041" y2="360.444842680644"/>
    <line x1="13.290623227041" y1="360.444842680644" x2="12.6943419384561" y2="360.179558311956"/>
    <line x1="12.6943419384561" y1="360.179558311956" x2="12.1870390890634" y2="359.768984335206"/>
    <line x1="12.1870390890634" y1="359.768984335206" x2="11.8032865296915" y2="359.241100688402"/>
    <line x1="11.8032865296915" y1="359.241100688402" x2="11.5692363630805" y2="358.631881769707"/>
    <line x1="11.5692363630805" y1="358.631881769707" x2="11.5008387212987" y2="357.982844841647"/>
    <line x1="11.5008387212987" y1="357.982844841647" x2="11.6027547906012" y2="357.338220698286"/>
    <line x1="11.6027547906012" y1="357.338220698286" x2="11.8680391592891" y2="356.741939409701"/>
    <line x1="11.8680391592891" y1="356.741939409701" x2="12.2786131360396" y2="356.234636560308"/>
    <line x1="12.2786131360396" y1="356.234636560308" x2="12.8064967828427" y2="355.850884000936"/>
    <line x1="12.8064967828427" y1="355.850884000936" x2="13.4157157015378" y2="355.616833834325"/>
    <line x1="13.4157157015378" y1="355.616833834325" x2="14.0647526295976" y2="355.548436192544"/>
    <line x1="14.0647526295976" y1="355.548436192544" x2="14.7093767729592" y2="355.650352261846"/>
    <line x1="14.7093767729592" y1="355.650352261846" x2="15.3056580615441" y2="355.915636630534"/>
    <line x1="62.7677669529664" y1="356.279830518279" x2="63.1650635094611" y2="356.797597471245"/>
    <line x1="63.1650635094611" y1="356.797597471245" x2="63.4148145657227" y2="357.400549858489"/>
    <line x1="63.4148145657227" y1="357.400549858489" x2="63.5" y2="358.047597471245"/>
    <line x1="63.5" y1="358.047597471245" x2="63.4148145657227" y2="358.694645084001"/>
    <line x1="63.4148145657227" y1="358.694645084001" x2="63.1650635094611" y2="359.297597471245"/>
    <line x1="63.1650635094611" y1="359.297597471245" x2="62.7677669529664" y2="359.815364424211"/>
    <line x1="62.7677669529664" y1="359.815364424211" x2="62.25" y2="360.212660980706"/>
    <line x1="62.25" y1="360.212660980706" x2="61.6470476127564" y2="360.462412036968"/>
    <line x1="61.6470476127564" y1="360.462412036968" x2="61.0" y2="360.547597471245"/>
    <line x1="61.0" y1="360.547597471245" x2="60.3529523872437" y2="360.462412036968"/>
    <line x1="60.3529523872437" y1="360.462412036968" x2="59.75" y2="360.212660980706"/>
    <line x1="59.75" y1="360.212660980706" x2="59.2322330470337" y2="359.815364424211"/>
    <line x1="59.2322330470337" y1="359.815364424211" x2="58.834936490539" y2="359.297597471245"/>
    <line x1="58.834936490539" y1="359.297597471245" x2="58.5851854342774" y2="358.694645084001"/>
    <line x1="58.5851854342774" y1="358.694645084001" x2="58.5" y2="358.047597471245"/>
    <line x1="58.5" y1="358.047597471245" x2="58.5851854342774" y2="357.400549858489"/>
    <line x1="58.5851854342774" y1="357.400549858489" x2="58.834936490539" y2="356.797597471245"/>
    <line x1="58.834936490539" y1="356.797597471245" x2="59.2322330470337" y2="356.279830518279"/>
    <line x1="59.2322330470337" y1="356.279830518279" x2="59.75" y2="355.882533961784"/>
    <line x1="59.75" y1="355.882533961784" x2="60.3529523872437" y2="355.632782905522"/>
    <line x1="60.3529523872437" y1="355.632782905522" x2="61.0" y2="355.547597471245"/>
    <line x1="61.0" y1="355.547597471245" x2="61.6470476127564" y2="355.632782905522"/>
    <line x1="61.6470476127564" y1="355.632782905522" x2="62.25" y2="355.882533961784"/>
    <line x1="62.25" y1="355.882533961784" x2="62.7677669529664" y2="356.279830518279"/>
    <line x1="15.7677669529664" y1="403.279830518279" x2="16.1650635094612" y2="403.797597471245"/>
    <line x1="16.1650635094612" y1="403.797597471245" x2="16.4148145657227" y2="404.400549858489"/>
    <line x1="16.4148145657227" y1="404.400549858489" x2="16.5000000000001" y2="405.047597471245"/>
    <line x1="16.5000000000001" y1="405.047597471245" x2="16.4148145657227" y2="405.694645084001"/>
    <line x1="16.4148145657227" y1="405.694645084001" x2="16.1650635094612" y2="406.297597471245"/>
    <line x1="16.1650635094612" y1="406.297597471245" x2="15.7677669529664" y2="406.815364424211"/>
    <line x1="15.7677669529664" y1="406.815364424211" x2="15.2500000000001" y2="407.212660980706"/>
    <line x1="15.2500000000001" y1="407.212660980706" x2="14.6470476127564" y2="407.462412036968"/>
    <line x1="14.6470476127564" y1="407.462412036968" x2="14.0000000000001" y2="407.547597471245"/>
    <line x1="14.0000000000001" y1="407.547597471245" x2="13.3529523872438" y2="407.462412036968"/>
    <line x1="13.3529523872438" y1="407.462412036968" x2="12.7500000000001" y2="407.212660980706"/>
    <line x1="12.7500000000001" y1="407.212660980706" x2="12.2322330470337" y2="406.815364424211"/>
    <line x1="12.2322330470337" y1="406.815364424211" x2="11.834936490539" y2="406.297597471245"/>
    <line x1="11.834936490539" y1="406.297597471245" x2="11.5851854342774" y2="405.694645084001"/>
    <line x1="11.5851854342774" y1="405.694645084001" x2="11.5000000000001" y2="405.047597471245"/>
    <line x1="11.5000000000001" y1="405.047597471245" x2="11.5851854342774" y2="404.400549858489"/>
    <line x1="11.5851854342774" y1="404.400549858489" x2="11.834936490539" y2="403.797597471245"/>
    <line x1="11.834936490539" y1="403.797597471245" x2="12.2322330470337" y2="403.279830518279"/>
    <line x1="12.2322330470337" y1="403.279830518279" x2="12.7500000000001" y2="402.882533961784"/>
    <line x1="12.7500000000001" y1="402.882533961784" x2="13.3529523872438" y2="402.632782905522"/>
    <line x1="13.3529523872438" y1="402.632782905522" x2="14.0000000000001" y2="402.547597471245"/>
    <line x1="14.0000000000001" y1="402.547597471245" x2="14.6470476127564" y2="402.632782905522"/>
    <line x1="14.6470476127564" y1="402.632782905522" x2="15.2500000000001" y2="402.882533961784"/>
    <line x1="15.2500000000001" y1="402.882533961784" x2="15.7677669529664" y2="403.279830518279"/>
    <line x1="59.75" y1="407.212660980706" x2="59.2322330470337" y2="406.815364424211"/>
    <line x1="59.2322330470337" y1="406.815364424211" x2="58.834936490539" y2="406.297597471245"/>
    <line x1="58.834936490539" y1="406.297597471245" x2="58.5851854342774" y2="405.694645084001"/>
    <line x1="58.5851854342774" y1="405.694645084001" x2="58.5" y2="405.047597471245"/>
    <line x1="58.5" y1="405.047597471245" x2="58.5851854342774" y2="404.400549858489"/>
    <line x1="58.5851854342774" y1="404.400549858489" x2="58.834936490539" y2="403.797597471245"/>
    <line x1="58.834936490539" y1="403.797597471245" x2="59.2322330470337" y2="403.279830518279"/>
    <line x1="59.2322330470337" y1="403.279830518279" x2="59.75" y2="402.882533961784"/>
    <line x1="59.75" y1="402.882533961784" x2="60.3529523872437" y2="402.632782905522"/>
    <line x1="60.3529523872437" y1="402.632782905522" x2="61.0" y2="402.547597471245"/>
    <line x1="61.0" y1="402.547597471245" x2="61.6470476127563" y2="402.632782905522"/>
    <line x1="61.6470476127563" y1="402.632782905522" x2="62.25" y2="402.882533961784"/>
    <line x1="62.25" y1="402.882533961784" x2="62.7677669529664" y2="403.279830518279"/>
    <line x1="62.7677669529664" y1="403.279830518279" x2="63.1650635094611" y2="403.797597471245"/>
    <line x1="63.1650635094611" y1="403.797597471245" x2="63.4148145657227" y2="404.400549858489"/>
    <line x1="63.4148145657227" y1="404.400549858489" x2="63.5" y2="405.047597471245"/>
    <line x1="63.5" y1="405.047597471245" x2="63.4148145657227" y2="405.694645084001"/>
    <line x1="63.4148145657227" y1="405.694645084001" x2="63.1650635094611" y2="406.297597471245"/>
    <line x1="63.1650635094611" y1="406.297597471245" x2="62.7677669529664" y2="406.815364424211"/>
    <line x1="62.7677669529664" y1="406.815364424211" x2="62.25" y2="407.212660980706"/>
    <line x1="62.25" y1="407.212660980706" x2="61.6470476127563" y2="407.462412036968"/>
    <line x1="61.6470476127563" y1="407.462412036968" x2="61.0" y2="407.547597471245"/>
    <line x1="61.0" y1="407.547597471245" x2="60.3529523872437" y2="407.462412036968"/>
    <line x1="60.3529523872437" y1="407.462412036968" x2="59.75" y2="407.212660980706"/>
    <line x1="30.8283255075323" y1="387.588190113242" x2="29.4922368836763" y2="385.655605488867"/>
    <line x1="29.4922368836763" y1="385.655605488867" x2="28.7018640827436" y2="383.443066906894"/>
    <line x1="28.7018640827436" y1="383.443066906894" x2="28.5110697049648" y2="381.101355215294"/>
    <line x1="28.5110697049648" y1="381.101355215294" x2="28.9328560718829" y2="378.790054195986"/>
    <line x1="28.9328560718829" y1="378.790054195986" x2="29.9384791396276" y2="376.666675193831"/>
    <line x1="29.9384791396276" y1="376.666675193831" x2="31.4594073580025" y2="374.875922978777"/>
    <line x1="31.4594073580025" y1="374.875922978777" x2="33.3919919823783" y2="373.539834354921"/>
    <line x1="33.3919919823783" y1="373.539834354921" x2="35.6045305643507" y2="372.749461553988"/>
    <line x1="35.6045305643507" y1="372.749461553988" x2="37.9462422559513" y2="372.55866717621"/>
    <line x1="37.9462422559513" y1="372.55866717621" x2="40.257543275259" y2="372.980453543128"/>
    <line x1="40.257543275259" y1="372.980453543128" x2="42.3809222774136" y2="373.986076610872"/>
    <line x1="42.3809222774136" y1="373.986076610872" x2="44.1716744924678" y2="375.507004829247"/>
    <line x1="44.1716744924678" y1="375.507004829247" x2="45.5077631163238" y2="377.439589453623"/>
    <line x1="45.5077631163238" y1="377.439589453623" x2="46.2981359172566" y2="379.652128035596"/>
    <line x1="46.2981359172566" y1="379.652128035596" x2="46.4889302950354" y2="381.993839727196"/>
    <line x1="46.4889302950354" y1="381.993839727196" x2="46.0671439281172" y2="384.305140746504"/>
    <line x1="46.0671439281172" y1="384.305140746504" x2="45.0615208603726" y2="386.428519748658"/>
    <line x1="45.0615208603726" y1="386.428519748658" x2="43.5405926419976" y2="388.219271963713"/>
    <line x1="43.5405926419976" y1="388.219271963713" x2="41.6080080176219" y2="389.555360587569"/>
    <line x1="41.6080080176219" y1="389.555360587569" x2="39.3954694356494" y2="390.345733388501"/>
    <line x1="39.3954694356494" y1="390.345733388501" x2="37.0537577440488" y2="390.53652776628"/>
    <line x1="37.0537577440488" y1="390.53652776628" x2="34.7424567247411" y2="390.114741399362"/>
    <line x1="34.7424567247411" y1="390.114741399362" x2="32.6190777225866" y2="389.109118331617"/>
    <line x1="32.6190777225866" y1="389.109118331617" x2="30.8283255075323" y2="387.588190113242"/>
    <line x1="34.6916405725878" y1="401.411866036545" x2="35.2106915475333" y2="400.740745328288"/>
    <line x1="35.2106915475333" y1="400.740745328288" x2="35.8857551102533" y2="400.22683278132"/>
    <line x1="35.8857551102533" y1="400.22683278132" x2="36.6708267945437" y2="399.905150686436"/>
    <line x1="36.6708267945437" y1="399.905150686436" x2="37.5124052625125" y2="399.797621146799"/>
    <line x1="37.5124052625125" y1="399.797621146799" x2="38.3531383323418" y2="399.911572122832"/>
    <line x1="38.3531383323418" y1="399.911572122832" x2="39.1357314346997" y2="400.239238043833"/>
    <line x1="39.1357314346997" y1="400.239238043833" x2="39.8068521429568" y2="400.758289018778"/>
    <line x1="39.8068521429568" y1="400.758289018778" x2="40.3207646899248" y2="401.433352581498"/>
    <line x1="40.3207646899248" y1="401.433352581498" x2="40.6424467848086" y2="402.218424265789"/>
    <line x1="40.6424467848086" y1="402.218424265789" x2="40.7499763244465" y2="403.060002733757"/>
    <line x1="40.7499763244465" y1="403.060002733757" x2="40.6360253484131" y2="403.900735803587"/>
    <line x1="40.6360253484131" y1="403.900735803587" x2="40.3083594274124" y2="404.683328905945"/>
    <line x1="40.3083594274124" y1="404.683328905945" x2="39.7893084524669" y2="405.354449614202"/>
    <line x1="39.7893084524669" y1="405.354449614202" x2="39.1142448897468" y2="405.86836216117"/>
    <line x1="39.1142448897468" y1="405.86836216117" x2="38.3291732054564" y2="406.190044256053"/>
    <line x1="38.3291732054564" y1="406.190044256053" x2="37.4875947374876" y2="406.297573795691"/>
    <line x1="37.4875947374876" y1="406.297573795691" x2="36.6468616676584" y2="406.183622819658"/>
    <line x1="36.6468616676584" y1="406.183622819658" x2="35.8642685653005" y2="405.855956898657"/>
    <line x1="35.8642685653005" y1="405.855956898657" x2="35.1931478570433" y2="405.336905923712"/>
    <line x1="35.1931478570433" y1="405.336905923712" x2="34.6792353100753" y2="404.661842360992"/>
    <line x1="34.6792353100753" y1="404.661842360992" x2="34.3575532151916" y2="403.876770676701"/>
    <line x1="34.3575532151916" y1="403.876770676701" x2="34.2500236755537" y2="403.035192208732"/>
    <line x1="34.2500236755537" y1="403.035192208732" x2="34.363974651587" y2="402.194459138903"/>
    <line x1="34.363974651587" y1="402.194459138903" x2="34.6916405725878" y2="401.411866036545"/>
  </g>
</svg>
