999
DXF created by Inkscape
0
SECTION
2
ENTITIES
0
LINE
8
2
62
4
10
315.200453
20
78.799972
30
0
11
0.000000
21
78.799972
31
0
0
LINE
8
2
62
4
10
0.000000
20
78.799972
30
0
11
0.000000
21
393.999861
31
0
0
LINE
8
2
62
4
10
0.000000
20
393.999861
30
0
11
315.200453
21
393.999861
31
0
0
LINE
8
2
62
4
10
315.200453
20
393.999861
30
0
11
315.200453
21
78.799972
31
0
0
LINE
8
2
62
4
10
315.200453
20
78.799972
30
0
11
315.200453
21
78.799972
31
0
0
LINE
8
2
62
4
10
311.200236
20
389.999926
30
0
11
3.999936
21
389.999926
31
0
0
LINE
8
2
62
4
10
3.999936
20
389.999926
30
0
11
3.999936
21
82.799626
31
0
0
LINE
8
2
62
4
10
3.999936
20
82.799626
30
0
11
311.199953
21
82.799626
31
0
0
LINE
8
2
62
4
10
311.199953
20
82.799626
30
0
11
311.199953
21
389.999643
31
0
0
LINE
8
2
62
4
10
311.199953
20
389.999643
30
0
11
311.200236
21
389.999926
31
0
0
LINE
8
2
62
4
10
311.200236
20
389.999926
30
0
11
311.200236
21
389.999926
31
0
  0
SPLINE
  5
43
  8
0
 62
256
370
-1
  6
ByLayer
100
AcDbEntity
100
AcDbSpline
 70
8
 71
3
 72
8
 73
4
 74
0
 40
0
 40
0
 40
0
 40
0
 40
1
 40
1
 40
1
 40
1
 10
141.670758
 20
237.293714
 30
0
 10
141.917138
 20
237.132566
 30
0
 10
142.353171
 20
236.962103
 30
0
 10
142.770296
 20
236.962103
 30
0
  0
SPLINE
  5
43
  8
0
 62
256
370
-1
  6
ByLayer
100
AcDbEntity
100
AcDbSpline
 70
8
 71
3
 72
8
 73
4
 74
0
 40
0
 40
0
 40
0
 40
0
 40
1
 40
1
 40
1
 40
1
 10
142.770296
 20
236.962103
 30
0
 10
143.376791
 20
236.962103
 30
0
 10
143.661271
 20
237.265492
 30
0
 10
143.661271
 20
237.644517
 30
0
  0
SPLINE
  5
43
  8
0
 62
256
370
-1
  6
ByLayer
100
AcDbEntity
100
AcDbSpline
 70
8
 71
3
 72
8
 73
4
 74
0
 40
0
 40
0
 40
0
 40
0
 40
1
 40
1
 40
1
 40
1
 10
143.661271
 20
237.644517
 30
0
 10
143.661271
 20
238.042732
 30
0
 10
143.424204
 20
238.260608
 30
0
 10
142.808113
 20
238.488079
 30
0
  0
SPLINE
  5
43
  8
0
 62
256
370
-1
  6
ByLayer
100
AcDbEntity
100
AcDbSpline
 70
8
 71
3
 72
8
 73
4
 74
0
 40
0
 40
0
 40
0
 40
0
 40
1
 40
1
 40
1
 40
1
 10
142.808113
 20
238.488079
 30
0
 10
141.983460
 20
238.781872
 30
0
 10
141.594840
 20
239.236814
 30
0
 10
141.594840
 20
239.786583
 30
0
  0
SPLINE
  5
43
  8
0
 62
256
370
-1
  6
ByLayer
100
AcDbEntity
100
AcDbSpline
 70
8
 71
3
 72
8
 73
4
 74
0
 40
0
 40
0
 40
0
 40
0
 40
1
 40
1
 40
1
 40
1
 10
141.594840
 20
239.786583
 30
0
 10
141.594840
 20
240.526006
 30
0
 10
142.192022
 20
241.132501
 30
0
 10
143.177824
 20
241.132501
 30
0
  0
SPLINE
  5
43
  8
0
 62
256
370
-1
  6
ByLayer
100
AcDbEntity
100
AcDbSpline
 70
8
 71
3
 72
8
 73
4
 74
0
 40
0
 40
0
 40
0
 40
0
 40
1
 40
1
 40
1
 40
1
 10
143.177824
 20
241.132501
 30
0
 10
143.642362
 20
241.132501
 30
0
 10
144.049891
 20
240.999857
 30
0
 10
144.305867
 20
240.848021
 30
0
0
LINE
8
2
62
4
10
144.305867
20
240.848021
30
0
11
144.097304
21
240.241526
31
0
  0
SPLINE
  5
43
  8
0
 62
256
370
-1
  6
ByLayer
100
AcDbEntity
100
AcDbSpline
 70
8
 71
3
 72
8
 73
4
 74
0
 40
0
 40
0
 40
0
 40
0
 40
1
 40
1
 40
1
 40
1
 10
144.097304
 20
240.241526
 30
0
 10
143.917247
 20
240.355261
 30
0
 10
143.585353
 20
240.506814
 30
0
 10
143.158916
 20
240.506814
 30
0
  0
SPLINE
  5
43
  8
0
 62
256
370
-1
  6
ByLayer
100
AcDbEntity
100
AcDbSpline
 70
8
 71
3
 72
8
 73
4
 74
0
 40
0
 40
0
 40
0
 40
0
 40
1
 40
1
 40
1
 40
1
 10
143.158916
 20
240.506814
 30
0
 10
142.666156
 20
240.506814
 30
0
 10
142.391271
 20
240.222617
 30
0
 10
142.391271
 20
239.881410
 30
0
  0
SPLINE
  5
43
  8
0
 62
256
370
-1
  6
ByLayer
100
AcDbEntity
100
AcDbSpline
 70
8
 71
3
 72
8
 73
4
 74
0
 40
0
 40
0
 40
0
 40
0
 40
1
 40
1
 40
1
 40
1
 10
142.391271
 20
239.881410
 30
0
 10
142.391271
 20
239.502103
 30
0
 10
142.666156
 20
239.331641
 30
0
 10
143.263338
 20
239.104170
 30
0
  0
SPLINE
  5
43
  8
0
 62
256
370
-1
  6
ByLayer
100
AcDbEntity
100
AcDbSpline
 70
8
 71
3
 72
8
 73
4
 74
0
 40
0
 40
0
 40
0
 40
0
 40
1
 40
1
 40
1
 40
1
 10
143.263338
 20
239.104170
 30
0
 10
144.059487
 20
238.800781
 30
0
 10
144.467016
 20
238.402848
 30
0
 10
144.467016
 20
237.720152
 30
0
  0
SPLINE
  5
43
  8
0
 62
256
370
-1
  6
ByLayer
100
AcDbEntity
100
AcDbSpline
 70
8
 71
3
 72
8
 73
4
 74
0
 40
0
 40
0
 40
0
 40
0
 40
1
 40
1
 40
1
 40
1
 10
144.467016
 20
237.720152
 30
0
 10
144.467016
 20
236.914690
 30
0
 10
143.841611
 20
236.336417
 30
0
 10
142.751387
 20
236.336417
 30
0
  0
SPLINE
  5
43
  8
0
 62
256
370
-1
  6
ByLayer
100
AcDbEntity
100
AcDbSpline
 70
8
 71
3
 72
8
 73
4
 74
0
 40
0
 40
0
 40
0
 40
0
 40
1
 40
1
 40
1
 40
1
 10
142.751387
 20
236.336417
 30
0
 10
142.249031
 20
236.336417
 30
0
 10
141.784493
 20
236.469061
 30
0
 10
141.462196
 20
236.658714
 30
0
0
LINE
8
2
62
4
10
141.462196
20
236.658714
30
0
11
141.670758
21
237.293714
31
0
0
LINE
8
2
62
4
10
141.670758
20
237.293714
30
0
11
141.670758
21
237.293714
31
0
  0
SPLINE
  5
43
  8
0
 62
256
370
-1
  6
ByLayer
100
AcDbEntity
100
AcDbSpline
 70
8
 71
3
 72
8
 73
4
 74
0
 40
0
 40
0
 40
0
 40
0
 40
1
 40
1
 40
1
 40
1
 10
148.759898
 20
237.540377
 30
0
 10
148.759898
 20
237.142161
 30
0
 10
148.778807
 20
236.753541
 30
0
 10
148.835816
 20
236.440839
 30
0
0
LINE
8
2
62
4
10
148.835816
20
236.440839
30
0
11
148.077484
21
236.440839
31
0
0
LINE
8
2
62
4
10
148.077484
20
236.440839
30
0
11
148.011162
21
237.019112
31
0
0
LINE
8
2
62
4
10
148.011162
20
237.019112
30
0
11
147.982658
21
237.019112
31
0
  0
SPLINE
  5
43
  8
0
 62
256
370
-1
  6
ByLayer
100
AcDbEntity
100
AcDbSpline
 70
8
 71
3
 72
8
 73
4
 74
0
 40
0
 40
0
 40
0
 40
0
 40
1
 40
1
 40
1
 40
1
 10
147.982658
 20
237.019112
 30
0
 10
147.726682
 20
236.658997
 30
0
 10
147.233922
 20
236.336699
 30
0
 10
146.579731
 20
236.336699
 30
0
  0
SPLINE
  5
43
  8
0
 62
256
370
-1
  6
ByLayer
100
AcDbEntity
100
AcDbSpline
 70
8
 71
3
 72
8
 73
4
 74
0
 40
0
 40
0
 40
0
 40
0
 40
1
 40
1
 40
1
 40
1
 10
146.579731
 20
236.336699
 30
0
 10
145.650656
 20
236.336699
 30
0
 10
145.176804
 20
236.990608
 30
0
 10
145.176804
 20
237.654112
 30
0
  0
SPLINE
  5
43
  8
0
 62
256
370
-1
  6
ByLayer
100
AcDbEntity
100
AcDbSpline
 70
8
 71
3
 72
8
 73
4
 74
0
 40
0
 40
0
 40
0
 40
0
 40
1
 40
1
 40
1
 40
1
 10
145.176804
 20
237.654112
 30
0
 10
145.176804
 20
238.762963
 30
0
 10
146.162607
 20
239.369741
 30
0
 10
147.934962
 20
239.360146
 30
0
0
LINE
8
2
62
4
10
147.934962
20
239.360146
30
0
11
147.934962
21
239.454690
31
0
  0
SPLINE
  5
43
  8
0
 62
256
370
-1
  6
ByLayer
100
AcDbEntity
100
AcDbSpline
 70
8
 71
3
 72
8
 73
4
 74
0
 40
0
 40
0
 40
0
 40
0
 40
1
 40
1
 40
1
 40
1
 10
147.934962
 20
239.454690
 30
0
 10
147.934962
 20
239.833997
 30
0
 10
147.830540
 20
240.516410
 30
0
 10
146.892433
 20
240.516410
 30
0
  0
SPLINE
  5
43
  8
0
 62
256
370
-1
  6
ByLayer
100
AcDbEntity
100
AcDbSpline
 70
8
 71
3
 72
8
 73
4
 74
0
 40
0
 40
0
 40
0
 40
0
 40
1
 40
1
 40
1
 40
1
 10
146.892433
 20
240.516410
 30
0
 10
146.465996
 20
240.516410
 30
0
 10
146.020367
 20
240.383766
 30
0
 10
145.698069
 20
240.175203
 30
0
0
LINE
8
2
62
4
10
145.698069
20
240.175203
30
0
11
145.508698
21
240.724972
31
0
  0
SPLINE
  5
43
  8
0
 62
256
370
-1
  6
ByLayer
100
AcDbEntity
100
AcDbSpline
 70
8
 71
3
 72
8
 73
4
 74
0
 40
0
 40
0
 40
0
 40
0
 40
1
 40
1
 40
1
 40
1
 10
145.508698
 20
240.724972
 30
0
 10
145.887722
 20
240.971352
 30
0
 10
146.437491
 20
241.132501
 30
0
 10
147.015764
 20
241.132501
 30
0
  0
SPLINE
  5
43
  8
0
 62
256
370
-1
  6
ByLayer
100
AcDbEntity
100
AcDbSpline
 70
8
 71
3
 72
8
 73
4
 74
0
 40
0
 40
0
 40
0
 40
0
 40
1
 40
1
 40
1
 40
1
 10
147.015764
 20
241.132501
 30
0
 10
148.418691
 20
241.132501
 30
0
 10
148.759616
 20
240.175203
 30
0
 10
148.759616
 20
239.255723
 30
0
0
LINE
8
2
62
4
10
148.759616
20
239.255723
30
0
11
148.759616
21
237.540094
31
0
0
LINE
8
2
62
4
10
148.759616
20
237.540094
30
0
11
148.759898
21
237.540377
31
0
  0
SPLINE
  5
43
  8
0
 62
256
370
-1
  6
ByLayer
100
AcDbEntity
100
AcDbSpline
 70
8
 71
3
 72
8
 73
4
 74
0
 40
0
 40
0
 40
0
 40
0
 40
1
 40
1
 40
1
 40
1
 10
147.954153
 20
238.781872
 30
0
 10
147.044269
 20
238.800781
 30
0
 10
146.011053
 20
238.639632
 30
0
 10
146.011053
 20
237.748657
 30
0
  0
SPLINE
  5
43
  8
0
 62
256
370
-1
  6
ByLayer
100
AcDbEntity
100
AcDbSpline
 70
8
 71
3
 72
8
 73
4
 74
0
 40
0
 40
0
 40
0
 40
0
 40
1
 40
1
 40
1
 40
1
 10
146.011053
 20
237.748657
 30
0
 10
146.011053
 20
237.208201
 30
0
 10
146.371169
 20
236.952508
 30
0
 10
146.797889
 20
236.952508
 30
0
  0
SPLINE
  5
43
  8
0
 62
256
370
-1
  6
ByLayer
100
AcDbEntity
100
AcDbSpline
 70
8
 71
3
 72
8
 73
4
 74
0
 40
0
 40
0
 40
0
 40
0
 40
1
 40
1
 40
1
 40
1
 10
146.797889
 20
236.952508
 30
0
 10
147.395071
 20
236.952508
 30
0
 10
147.774096
 20
237.331532
 30
0
 10
147.906740
 20
237.720152
 30
0
  0
SPLINE
  5
43
  8
0
 62
256
370
-1
  6
ByLayer
100
AcDbEntity
100
AcDbSpline
 70
8
 71
3
 72
8
 73
4
 74
0
 40
0
 40
0
 40
0
 40
0
 40
1
 40
1
 40
1
 40
1
 10
147.906740
 20
237.720152
 30
0
 10
147.935244
 20
237.805383
 30
0
 10
147.954153
 20
237.900210
 30
0
 10
147.954153
 20
237.985441
 30
0
0
LINE
8
2
62
4
10
147.954153
20
237.985441
30
0
11
147.954153
21
238.781590
31
0
0
LINE
8
2
62
4
10
147.954153
20
238.781590
30
0
11
147.954153
21
238.781872
31
0
0
LINE
8
2
62
4
10
150.190200
20
236.440839
30
0
11
150.190200
21
240.393361
31
0
0
LINE
8
2
62
4
10
150.190200
20
240.393361
30
0
11
149.545604
21
240.393361
31
0
0
LINE
8
2
62
4
10
149.545604
20
240.393361
30
0
11
149.545604
21
241.028361
31
0
0
LINE
8
2
62
4
10
149.545604
20
241.028361
30
0
11
150.190200
21
241.028361
31
0
0
LINE
8
2
62
4
10
150.190200
20
241.028361
30
0
11
150.190200
21
241.246237
31
0
  0
SPLINE
  5
43
  8
0
 62
256
370
-1
  6
ByLayer
100
AcDbEntity
100
AcDbSpline
 70
8
 71
3
 72
8
 73
4
 74
0
 40
0
 40
0
 40
0
 40
0
 40
1
 40
1
 40
1
 40
1
 10
150.190200
 20
241.246237
 30
0
 10
150.190200
 20
241.890832
 30
0
 10
150.332440
 20
242.478419
 30
0
 10
150.721060
 20
242.848130
 30
0
  0
SPLINE
  5
43
  8
0
 62
256
370
-1
  6
ByLayer
100
AcDbEntity
100
AcDbSpline
 70
8
 71
3
 72
8
 73
4
 74
0
 40
0
 40
0
 40
0
 40
0
 40
1
 40
1
 40
1
 40
1
 10
150.721060
 20
242.848130
 30
0
 10
151.033762
 20
243.151519
 30
0
 10
151.450887
 20
243.274568
 30
0
 10
151.839507
 20
243.274568
 30
0
  0
SPLINE
  5
43
  8
0
 62
256
370
-1
  6
ByLayer
100
AcDbEntity
100
AcDbSpline
 70
8
 71
3
 72
8
 73
4
 74
0
 40
0
 40
0
 40
0
 40
0
 40
1
 40
1
 40
1
 40
1
 10
151.839507
 20
243.274568
 30
0
 10
152.133300
 20
243.274568
 30
0
 10
152.389276
 20
243.208246
 30
0
 10
152.550424
 20
243.141923
 30
0
0
LINE
8
2
62
4
10
152.550424
20
243.141923
30
0
11
152.436971
21
242.497328
31
0
  0
SPLINE
  5
43
  8
0
 62
256
370
-1
  6
ByLayer
100
AcDbEntity
100
AcDbSpline
 70
8
 71
3
 72
8
 73
4
 74
0
 40
0
 40
0
 40
0
 40
0
 40
1
 40
1
 40
1
 40
1
 10
152.436971
 20
242.497328
 30
0
 10
152.313640
 20
242.554337
 30
0
 10
152.143178
 20
242.601750
 30
0
 10
151.906111
 20
242.601750
 30
0
  0
SPLINE
  5
43
  8
0
 62
256
370
-1
  6
ByLayer
100
AcDbEntity
100
AcDbSpline
 70
8
 71
3
 72
8
 73
4
 74
0
 40
0
 40
0
 40
0
 40
0
 40
1
 40
1
 40
1
 40
1
 10
151.906111
 20
242.601750
 30
0
 10
151.194911
 20
242.601750
 30
0
 10
151.015136
 20
241.976063
 30
0
 10
151.015136
 20
241.274741
 30
0
0
LINE
8
2
62
4
10
151.015136
20
241.274741
30
0
11
151.015136
21
241.028361
31
0
0
LINE
8
2
62
4
10
151.015136
20
241.028361
30
0
11
152.124269
21
241.028361
31
0
0
LINE
8
2
62
4
10
152.124269
20
241.028361
30
0
11
152.124269
21
240.393361
31
0
0
LINE
8
2
62
4
10
152.124269
20
240.393361
30
0
11
151.015136
21
240.393361
31
0
0
LINE
8
2
62
4
10
151.015136
20
240.393361
30
0
11
151.015136
21
236.440839
31
0
0
LINE
8
2
62
4
10
151.015136
20
236.440839
30
0
11
150.190482
21
236.440839
31
0
0
LINE
8
2
62
4
10
150.190482
20
236.440839
30
0
11
150.190200
21
236.440839
31
0
  0
SPLINE
  5
43
  8
0
 62
256
370
-1
  6
ByLayer
100
AcDbEntity
100
AcDbSpline
 70
8
 71
3
 72
8
 73
4
 74
0
 40
0
 40
0
 40
0
 40
0
 40
1
 40
1
 40
1
 40
1
 10
153.213364
 20
238.582906
 30
0
 10
153.231991
 20
237.454863
 30
0
 10
153.952504
 20
236.990326
 30
0
 10
154.786471
 20
236.990326
 30
0
  0
SPLINE
  5
43
  8
0
 62
256
370
-1
  6
ByLayer
100
AcDbEntity
100
AcDbSpline
 70
8
 71
3
 72
8
 73
4
 74
0
 40
0
 40
0
 40
0
 40
0
 40
1
 40
1
 40
1
 40
1
 10
154.786471
 20
236.990326
 30
0
 10
155.383653
 20
236.990326
 30
0
 10
155.744051
 20
237.094748
 30
0
 10
156.056753
 20
237.227392
 30
0
0
LINE
8
2
62
4
10
156.056753
20
237.227392
30
0
11
156.198993
21
236.630210
31
0
  0
SPLINE
  5
43
  8
0
 62
256
370
-1
  6
ByLayer
100
AcDbEntity
100
AcDbSpline
 70
8
 71
3
 72
8
 73
4
 74
0
 40
0
 40
0
 40
0
 40
0
 40
1
 40
1
 40
1
 40
1
 10
156.198993
 20
236.630210
 30
0
 10
155.905200
 20
236.497566
 30
0
 10
155.402844
 20
236.336417
 30
0
 10
154.673018
 20
236.336417
 30
0
  0
SPLINE
  5
43
  8
0
 62
256
370
-1
  6
ByLayer
100
AcDbEntity
100
AcDbSpline
 70
8
 71
3
 72
8
 73
4
 74
0
 40
0
 40
0
 40
0
 40
0
 40
1
 40
1
 40
1
 40
1
 10
154.673018
 20
236.336417
 30
0
 10
153.260778
 20
236.336417
 30
0
 10
152.417216
 20
237.274806
 30
0
 10
152.417216
 20
238.658541
 30
0
  0
SPLINE
  5
43
  8
0
 62
256
370
-1
  6
ByLayer
100
AcDbEntity
100
AcDbSpline
 70
8
 71
3
 72
8
 73
4
 74
0
 40
0
 40
0
 40
0
 40
0
 40
1
 40
1
 40
1
 40
1
 10
152.417216
 20
238.658541
 30
0
 10
152.417216
 20
240.042277
 30
0
 10
153.232273
 20
241.132501
 30
0
 10
154.568878
 20
241.132501
 30
0
  0
SPLINE
  5
43
  8
0
 62
256
370
-1
  6
ByLayer
100
AcDbEntity
100
AcDbSpline
 70
8
 71
3
 72
8
 73
4
 74
0
 40
0
 40
0
 40
0
 40
0
 40
1
 40
1
 40
1
 40
1
 10
154.568878
 20
241.132501
 30
0
 10
156.066349
 20
241.132501
 30
0
 10
156.464564
 20
239.815088
 30
0
 10
156.464564
 20
238.971526
 30
0
  0
SPLINE
  5
43
  8
0
 62
256
370
-1
  6
ByLayer
100
AcDbEntity
100
AcDbSpline
 70
8
 71
3
 72
8
 73
4
 74
0
 40
0
 40
0
 40
0
 40
0
 40
1
 40
1
 40
1
 40
1
 10
156.464564
 20
238.971526
 30
0
 10
156.464564
 20
238.801063
 30
0
 10
156.445656
 20
238.668137
 30
0
 10
156.435778
 20
238.582906
 30
0
0
LINE
8
2
62
4
10
156.435778
20
238.582906
30
0
11
153.213364
21
238.582906
31
0
0
LINE
8
2
62
4
10
153.213364
20
238.582906
30
0
11
153.213364
21
238.582906
31
0
  0
SPLINE
  5
43
  8
0
 62
256
370
-1
  6
ByLayer
100
AcDbEntity
100
AcDbSpline
 70
8
 71
3
 72
8
 73
4
 74
0
 40
0
 40
0
 40
0
 40
0
 40
1
 40
1
 40
1
 40
1
 10
155.658538
 20
239.180088
 30
0
 10
155.668133
 20
239.710948
 30
0
 10
155.440662
 20
240.535601
 30
0
 10
154.502273
 20
240.535601
 30
0
  0
SPLINE
  5
43
  8
0
 62
256
370
-1
  6
ByLayer
100
AcDbEntity
100
AcDbSpline
 70
8
 71
3
 72
8
 73
4
 74
0
 40
0
 40
0
 40
0
 40
0
 40
1
 40
1
 40
1
 40
1
 10
154.502273
 20
240.535601
 30
0
 10
153.658711
 20
240.535601
 30
0
 10
153.289000
 20
239.758361
 30
0
 10
153.222678
 20
239.180088
 30
0
0
LINE
8
2
62
4
10
153.222678
20
239.180088
30
0
11
155.658538
21
239.180088
31
0
0
LINE
8
2
62
4
10
155.658538
20
239.180088
30
0
11
155.658538
21
239.180088
31
0
  0
SPLINE
  5
43
  8
0
 62
256
370
-1
  6
ByLayer
100
AcDbEntity
100
AcDbSpline
 70
8
 71
3
 72
8
 73
4
 74
0
 40
0
 40
0
 40
0
 40
0
 40
1
 40
1
 40
1
 40
1
 10
162.727922
 20
237.540377
 30
0
 10
162.727922
 20
237.142161
 30
0
 10
162.746831
 20
236.753541
 30
0
 10
162.803840
 20
236.440839
 30
0
0
LINE
8
2
62
4
10
162.803840
20
236.440839
30
0
11
162.045509
21
236.440839
31
0
0
LINE
8
2
62
4
10
162.045509
20
236.440839
30
0
11
161.979187
21
237.019112
31
0
0
LINE
8
2
62
4
10
161.979187
20
237.019112
30
0
11
161.950682
21
237.019112
31
0
  0
SPLINE
  5
43
  8
0
 62
256
370
-1
  6
ByLayer
100
AcDbEntity
100
AcDbSpline
 70
8
 71
3
 72
8
 73
4
 74
0
 40
0
 40
0
 40
0
 40
0
 40
1
 40
1
 40
1
 40
1
 10
161.950682
 20
237.019112
 30
0
 10
161.694989
 20
236.658997
 30
0
 10
161.201947
 20
236.336699
 30
0
 10
160.547756
 20
236.336699
 30
0
  0
SPLINE
  5
43
  8
0
 62
256
370
-1
  6
ByLayer
100
AcDbEntity
100
AcDbSpline
 70
8
 71
3
 72
8
 73
4
 74
0
 40
0
 40
0
 40
0
 40
0
 40
1
 40
1
 40
1
 40
1
 10
160.547756
 20
236.336699
 30
0
 10
159.618962
 20
236.336699
 30
0
 10
159.145111
 20
236.990608
 30
0
 10
159.145111
 20
237.654112
 30
0
  0
SPLINE
  5
43
  8
0
 62
256
370
-1
  6
ByLayer
100
AcDbEntity
100
AcDbSpline
 70
8
 71
3
 72
8
 73
4
 74
0
 40
0
 40
0
 40
0
 40
0
 40
1
 40
1
 40
1
 40
1
 10
159.145111
 20
237.654112
 30
0
 10
159.145111
 20
238.762963
 30
0
 10
160.130631
 20
239.369741
 30
0
 10
161.902987
 20
239.360146
 30
0
0
LINE
8
2
62
4
10
161.902987
20
239.360146
30
0
11
161.902987
21
239.454690
31
0
  0
SPLINE
  5
43
  8
0
 62
256
370
-1
  6
ByLayer
100
AcDbEntity
100
AcDbSpline
 70
8
 71
3
 72
8
 73
4
 74
0
 40
0
 40
0
 40
0
 40
0
 40
1
 40
1
 40
1
 40
1
 10
161.902987
 20
239.454690
 30
0
 10
161.902987
 20
239.833997
 30
0
 10
161.798847
 20
240.516410
 30
0
 10
160.860458
 20
240.516410
 30
0
  0
SPLINE
  5
43
  8
0
 62
256
370
-1
  6
ByLayer
100
AcDbEntity
100
AcDbSpline
 70
8
 71
3
 72
8
 73
4
 74
0
 40
0
 40
0
 40
0
 40
0
 40
1
 40
1
 40
1
 40
1
 10
160.860458
 20
240.516410
 30
0
 10
160.434020
 20
240.516410
 30
0
 10
159.988391
 20
240.383766
 30
0
 10
159.666376
 20
240.175203
 30
0
0
LINE
8
2
62
4
10
159.666376
20
240.175203
30
0
11
159.476722
21
240.724972
31
0
  0
SPLINE
  5
43
  8
0
 62
256
370
-1
  6
ByLayer
100
AcDbEntity
100
AcDbSpline
 70
8
 71
3
 72
8
 73
4
 74
0
 40
0
 40
0
 40
0
 40
0
 40
1
 40
1
 40
1
 40
1
 10
159.476722
 20
240.724972
 30
0
 10
159.856029
 20
240.971352
 30
0
 10
160.405798
 20
241.132501
 30
0
 10
160.983789
 20
241.132501
 30
0
  0
SPLINE
  5
43
  8
0
 62
256
370
-1
  6
ByLayer
100
AcDbEntity
100
AcDbSpline
 70
8
 71
3
 72
8
 73
4
 74
0
 40
0
 40
0
 40
0
 40
0
 40
1
 40
1
 40
1
 40
1
 10
160.983789
 20
241.132501
 30
0
 10
162.386716
 20
241.132501
 30
0
 10
162.727922
 20
240.175203
 30
0
 10
162.727922
 20
239.255723
 30
0
0
LINE
8
2
62
4
10
162.727922
20
239.255723
30
0
11
162.727922
21
237.540094
31
0
0
LINE
8
2
62
4
10
162.727922
20
237.540094
30
0
11
162.727922
21
237.540377
31
0
  0
SPLINE
  5
43
  8
0
 62
256
370
-1
  6
ByLayer
100
AcDbEntity
100
AcDbSpline
 70
8
 71
3
 72
8
 73
4
 74
0
 40
0
 40
0
 40
0
 40
0
 40
1
 40
1
 40
1
 40
1
 10
161.922178
 20
238.781872
 30
0
 10
161.012293
 20
238.800781
 30
0
 10
159.979078
 20
238.639632
 30
0
 10
159.979078
 20
237.748657
 30
0
  0
SPLINE
  5
43
  8
0
 62
256
370
-1
  6
ByLayer
100
AcDbEntity
100
AcDbSpline
 70
8
 71
3
 72
8
 73
4
 74
0
 40
0
 40
0
 40
0
 40
0
 40
1
 40
1
 40
1
 40
1
 10
159.979078
 20
237.748657
 30
0
 10
159.979078
 20
237.208201
 30
0
 10
160.339193
 20
236.952508
 30
0
 10
160.765631
 20
236.952508
 30
0
  0
SPLINE
  5
43
  8
0
 62
256
370
-1
  6
ByLayer
100
AcDbEntity
100
AcDbSpline
 70
8
 71
3
 72
8
 73
4
 74
0
 40
0
 40
0
 40
0
 40
0
 40
1
 40
1
 40
1
 40
1
 10
160.765631
 20
236.952508
 30
0
 10
161.362813
 20
236.952508
 30
0
 10
161.742120
 20
237.331532
 30
0
 10
161.874764
 20
237.720152
 30
0
  0
SPLINE
  5
43
  8
0
 62
256
370
-1
  6
ByLayer
100
AcDbEntity
100
AcDbSpline
 70
8
 71
3
 72
8
 73
4
 74
0
 40
0
 40
0
 40
0
 40
0
 40
1
 40
1
 40
1
 40
1
 10
161.874764
 20
237.720152
 30
0
 10
161.903269
 20
237.805383
 30
0
 10
161.922178
 20
237.900210
 30
0
 10
161.922178
 20
237.985441
 30
0
0
LINE
8
2
62
4
10
161.922178
20
237.985441
30
0
11
161.922178
21
238.781590
31
0
0
LINE
8
2
62
4
10
161.922178
20
238.781590
30
0
11
161.922178
21
238.781872
31
0
  0
SPLINE
  5
43
  8
0
 62
256
370
-1
  6
ByLayer
100
AcDbEntity
100
AcDbSpline
 70
8
 71
3
 72
8
 73
4
 74
0
 40
0
 40
0
 40
0
 40
0
 40
1
 40
1
 40
1
 40
1
 10
164.072993
 20
239.596930
 30
0
 10
164.072993
 20
240.137386
 30
0
 10
164.063398
 20
240.601641
 30
0
 10
164.034893
 20
241.028079
 30
0
0
LINE
8
2
62
4
10
164.034893
20
241.028079
30
0
11
164.764720
21
241.028079
31
0
0
LINE
8
2
62
4
10
164.764720
20
241.028079
30
0
11
164.793224
21
240.127790
31
0
0
LINE
8
2
62
4
10
164.793224
20
240.127790
30
0
11
164.831324
21
240.127790
31
0
  0
SPLINE
  5
43
  8
0
 62
256
370
-1
  6
ByLayer
100
AcDbEntity
100
AcDbSpline
 70
8
 71
3
 72
8
 73
4
 74
0
 40
0
 40
0
 40
0
 40
0
 40
1
 40
1
 40
1
 40
1
 10
164.831324
 20
240.127790
 30
0
 10
165.039604
 20
240.743881
 30
0
 10
165.542242
 20
241.132501
 30
0
 10
166.101324
 20
241.132501
 30
0
  0
SPLINE
  5
43
  8
0
 62
256
370
-1
  6
ByLayer
100
AcDbEntity
100
AcDbSpline
 70
8
 71
3
 72
8
 73
4
 74
0
 40
0
 40
0
 40
0
 40
0
 40
1
 40
1
 40
1
 40
1
 10
166.101324
 20
241.132501
 30
0
 10
166.196151
 20
241.132501
 30
0
 10
166.262473
 20
241.122906
 30
0
 10
166.338391
 20
241.103997
 30
0
0
LINE
8
2
62
4
10
166.338391
20
241.103997
30
0
11
166.338391
21
240.317443
31
0
  0
SPLINE
  5
43
  8
0
 62
256
370
-1
  6
ByLayer
100
AcDbEntity
100
AcDbSpline
 70
8
 71
3
 72
8
 73
4
 74
0
 40
0
 40
0
 40
0
 40
0
 40
1
 40
1
 40
1
 40
1
 10
166.338391
 20
240.317443
 30
0
 10
166.252878
 20
240.336352
 30
0
 10
166.167929
 20
240.345948
 30
0
 10
166.053911
 20
240.345948
 30
0
  0
SPLINE
  5
43
  8
0
 62
256
370
-1
  6
ByLayer
100
AcDbEntity
100
AcDbSpline
 70
8
 71
3
 72
8
 73
4
 74
0
 40
0
 40
0
 40
0
 40
0
 40
1
 40
1
 40
1
 40
1
 10
166.053911
 20
240.345948
 30
0
 10
165.466324
 20
240.345948
 30
0
 10
165.049200
 20
239.900319
 30
0
 10
164.935464
 20
239.274914
 30
0
  0
SPLINE
  5
43
  8
0
 62
256
370
-1
  6
ByLayer
100
AcDbEntity
100
AcDbSpline
 70
8
 71
3
 72
8
 73
4
 74
0
 40
0
 40
0
 40
0
 40
0
 40
1
 40
1
 40
1
 40
1
 10
164.935464
 20
239.274914
 30
0
 10
164.916556
 20
239.161179
 30
0
 10
164.897364
 20
239.028252
 30
0
 10
164.897364
 20
238.886294
 30
0
0
LINE
8
2
62
4
10
164.897364
20
238.886294
30
0
11
164.897364
21
236.440839
31
0
0
LINE
8
2
62
4
10
164.897364
20
236.440839
30
0
11
164.072993
21
236.440839
31
0
0
LINE
8
2
62
4
10
164.072993
20
236.440839
30
0
11
164.072993
21
239.597212
31
0
0
LINE
8
2
62
4
10
164.072993
20
239.597212
30
0
11
164.072993
21
239.596930
31
0
  0
SPLINE
  5
43
  8
0
 62
256
370
-1
  6
ByLayer
100
AcDbEntity
100
AcDbSpline
 70
8
 71
3
 72
8
 73
4
 74
0
 40
0
 40
0
 40
0
 40
0
 40
1
 40
1
 40
1
 40
1
 10
167.541504
 20
238.582906
 30
0
 10
167.560131
 20
237.454863
 30
0
 10
168.280644
 20
236.990326
 30
0
 10
169.114611
 20
236.990326
 30
0
  0
SPLINE
  5
43
  8
0
 62
256
370
-1
  6
ByLayer
100
AcDbEntity
100
AcDbSpline
 70
8
 71
3
 72
8
 73
4
 74
0
 40
0
 40
0
 40
0
 40
0
 40
1
 40
1
 40
1
 40
1
 10
169.114611
 20
236.990326
 30
0
 10
169.711793
 20
236.990326
 30
0
 10
170.072191
 20
237.094748
 30
0
 10
170.384893
 20
237.227392
 30
0
0
LINE
8
2
62
4
10
170.384893
20
237.227392
30
0
11
170.527133
21
236.630210
31
0
  0
SPLINE
  5
43
  8
0
 62
256
370
-1
  6
ByLayer
100
AcDbEntity
100
AcDbSpline
 70
8
 71
3
 72
8
 73
4
 74
0
 40
0
 40
0
 40
0
 40
0
 40
1
 40
1
 40
1
 40
1
 10
170.527133
 20
236.630210
 30
0
 10
170.233340
 20
236.497566
 30
0
 10
169.730984
 20
236.336417
 30
0
 10
169.001158
 20
236.336417
 30
0
  0
SPLINE
  5
43
  8
0
 62
256
370
-1
  6
ByLayer
100
AcDbEntity
100
AcDbSpline
 70
8
 71
3
 72
8
 73
4
 74
0
 40
0
 40
0
 40
0
 40
0
 40
1
 40
1
 40
1
 40
1
 10
169.001158
 20
236.336417
 30
0
 10
167.588918
 20
236.336417
 30
0
 10
166.745356
 20
237.274806
 30
0
 10
166.745356
 20
238.658541
 30
0
  0
SPLINE
  5
43
  8
0
 62
256
370
-1
  6
ByLayer
100
AcDbEntity
100
AcDbSpline
 70
8
 71
3
 72
8
 73
4
 74
0
 40
0
 40
0
 40
0
 40
0
 40
1
 40
1
 40
1
 40
1
 10
166.745356
 20
238.658541
 30
0
 10
166.745356
 20
240.042277
 30
0
 10
167.560413
 20
241.132501
 30
0
 10
168.897018
 20
241.132501
 30
0
  0
SPLINE
  5
43
  8
0
 62
256
370
-1
  6
ByLayer
100
AcDbEntity
100
AcDbSpline
 70
8
 71
3
 72
8
 73
4
 74
0
 40
0
 40
0
 40
0
 40
0
 40
1
 40
1
 40
1
 40
1
 10
168.897018
 20
241.132501
 30
0
 10
170.394489
 20
241.132501
 30
0
 10
170.792704
 20
239.815088
 30
0
 10
170.792704
 20
238.971526
 30
0
  0
SPLINE
  5
43
  8
0
 62
256
370
-1
  6
ByLayer
100
AcDbEntity
100
AcDbSpline
 70
8
 71
3
 72
8
 73
4
 74
0
 40
0
 40
0
 40
0
 40
0
 40
1
 40
1
 40
1
 40
1
 10
170.792704
 20
238.971526
 30
0
 10
170.792704
 20
238.801063
 30
0
 10
170.773796
 20
238.668137
 30
0
 10
170.763918
 20
238.582906
 30
0
0
LINE
8
2
62
4
10
170.763918
20
238.582906
30
0
11
167.541504
21
238.582906
31
0
0
LINE
8
2
62
4
10
167.541504
20
238.582906
30
0
11
167.541504
21
238.582906
31
0
  0
SPLINE
  5
43
  8
0
 62
256
370
-1
  6
ByLayer
100
AcDbEntity
100
AcDbSpline
 70
8
 71
3
 72
8
 73
4
 74
0
 40
0
 40
0
 40
0
 40
0
 40
1
 40
1
 40
1
 40
1
 10
169.986678
 20
239.180088
 30
0
 10
169.996273
 20
239.710948
 30
0
 10
169.768802
 20
240.535601
 30
0
 10
168.830413
 20
240.535601
 30
0
  0
SPLINE
  5
43
  8
0
 62
256
370
-1
  6
ByLayer
100
AcDbEntity
100
AcDbSpline
 70
8
 71
3
 72
8
 73
4
 74
0
 40
0
 40
0
 40
0
 40
0
 40
1
 40
1
 40
1
 40
1
 10
168.830413
 20
240.535601
 30
0
 10
167.986851
 20
240.535601
 30
0
 10
167.617140
 20
239.758361
 30
0
 10
167.550818
 20
239.180088
 30
0
0
LINE
8
2
62
4
10
167.550818
20
239.180088
30
0
11
169.986678
21
239.180088
31
0
0
LINE
8
2
62
4
10
169.986678
20
239.180088
30
0
11
169.986678
21
239.180088
31
0
  0
SPLINE
  5
43
  8
0
 62
256
370
-1
  6
ByLayer
100
AcDbEntity
100
AcDbSpline
 70
8
 71
3
 72
8
 73
4
 74
0
 40
0
 40
0
 40
0
 40
0
 40
1
 40
1
 40
1
 40
1
 10
175.047204
 20
237.540377
 30
0
 10
175.047204
 20
237.142161
 30
0
 10
175.066113
 20
236.753541
 30
0
 10
175.123122
 20
236.440839
 30
0
0
LINE
8
2
62
4
10
175.123122
20
236.440839
30
0
11
174.364791
21
236.440839
31
0
0
LINE
8
2
62
4
10
174.364791
20
236.440839
30
0
11
174.298469
21
237.019112
31
0
0
LINE
8
2
62
4
10
174.298469
20
237.019112
30
0
11
174.269964
21
237.019112
31
0
  0
SPLINE
  5
43
  8
0
 62
256
370
-1
  6
ByLayer
100
AcDbEntity
100
AcDbSpline
 70
8
 71
3
 72
8
 73
4
 74
0
 40
0
 40
0
 40
0
 40
0
 40
1
 40
1
 40
1
 40
1
 10
174.269964
 20
237.019112
 30
0
 10
174.014271
 20
236.658997
 30
0
 10
173.521229
 20
236.336699
 30
0
 10
172.867038
 20
236.336699
 30
0
  0
SPLINE
  5
43
  8
0
 62
256
370
-1
  6
ByLayer
100
AcDbEntity
100
AcDbSpline
 70
8
 71
3
 72
8
 73
4
 74
0
 40
0
 40
0
 40
0
 40
0
 40
1
 40
1
 40
1
 40
1
 10
172.867038
 20
236.336699
 30
0
 10
171.938244
 20
236.336699
 30
0
 10
171.464393
 20
236.990608
 30
0
 10
171.464393
 20
237.654112
 30
0
  0
SPLINE
  5
43
  8
0
 62
256
370
-1
  6
ByLayer
100
AcDbEntity
100
AcDbSpline
 70
8
 71
3
 72
8
 73
4
 74
0
 40
0
 40
0
 40
0
 40
0
 40
1
 40
1
 40
1
 40
1
 10
171.464393
 20
237.654112
 30
0
 10
171.464393
 20
238.762963
 30
0
 10
172.449913
 20
239.369741
 30
0
 10
174.222269
 20
239.360146
 30
0
0
LINE
8
2
62
4
10
174.222269
20
239.360146
30
0
11
174.222269
21
239.454690
31
0
  0
SPLINE
  5
43
  8
0
 62
256
370
-1
  6
ByLayer
100
AcDbEntity
100
AcDbSpline
 70
8
 71
3
 72
8
 73
4
 74
0
 40
0
 40
0
 40
0
 40
0
 40
1
 40
1
 40
1
 40
1
 10
174.222269
 20
239.454690
 30
0
 10
174.222269
 20
239.833997
 30
0
 10
174.118129
 20
240.516410
 30
0
 10
173.179740
 20
240.516410
 30
0
  0
SPLINE
  5
43
  8
0
 62
256
370
-1
  6
ByLayer
100
AcDbEntity
100
AcDbSpline
 70
8
 71
3
 72
8
 73
4
 74
0
 40
0
 40
0
 40
0
 40
0
 40
1
 40
1
 40
1
 40
1
 10
173.179740
 20
240.516410
 30
0
 10
172.753302
 20
240.516410
 30
0
 10
172.307673
 20
240.383766
 30
0
 10
171.985658
 20
240.175203
 30
0
0
LINE
8
2
62
4
10
171.985658
20
240.175203
30
0
11
171.796004
21
240.724972
31
0
  0
SPLINE
  5
43
  8
0
 62
256
370
-1
  6
ByLayer
100
AcDbEntity
100
AcDbSpline
 70
8
 71
3
 72
8
 73
4
 74
0
 40
0
 40
0
 40
0
 40
0
 40
1
 40
1
 40
1
 40
1
 10
171.796004
 20
240.724972
 30
0
 10
172.175311
 20
240.971352
 30
0
 10
172.725080
 20
241.132501
 30
0
 10
173.303071
 20
241.132501
 30
0
  0
SPLINE
  5
43
  8
0
 62
256
370
-1
  6
ByLayer
100
AcDbEntity
100
AcDbSpline
 70
8
 71
3
 72
8
 73
4
 74
0
 40
0
 40
0
 40
0
 40
0
 40
1
 40
1
 40
1
 40
1
 10
173.303071
 20
241.132501
 30
0
 10
174.705998
 20
241.132501
 30
0
 10
175.047204
 20
240.175203
 30
0
 10
175.047204
 20
239.255723
 30
0
0
LINE
8
2
62
4
10
175.047204
20
239.255723
30
0
11
175.047204
21
237.540094
31
0
0
LINE
8
2
62
4
10
175.047204
20
237.540094
30
0
11
175.047204
21
237.540377
31
0
  0
SPLINE
  5
43
  8
0
 62
256
370
-1
  6
ByLayer
100
AcDbEntity
100
AcDbSpline
 70
8
 71
3
 72
8
 73
4
 74
0
 40
0
 40
0
 40
0
 40
0
 40
1
 40
1
 40
1
 40
1
 10
174.241742
 20
238.781872
 30
0
 10
173.331858
 20
238.800781
 30
0
 10
172.298642
 20
238.639632
 30
0
 10
172.298642
 20
237.748657
 30
0
  0
SPLINE
  5
43
  8
0
 62
256
370
-1
  6
ByLayer
100
AcDbEntity
100
AcDbSpline
 70
8
 71
3
 72
8
 73
4
 74
0
 40
0
 40
0
 40
0
 40
0
 40
1
 40
1
 40
1
 40
1
 10
172.298642
 20
237.748657
 30
0
 10
172.298642
 20
237.208201
 30
0
 10
172.658758
 20
236.952508
 30
0
 10
173.085196
 20
236.952508
 30
0
  0
SPLINE
  5
43
  8
0
 62
256
370
-1
  6
ByLayer
100
AcDbEntity
100
AcDbSpline
 70
8
 71
3
 72
8
 73
4
 74
0
 40
0
 40
0
 40
0
 40
0
 40
1
 40
1
 40
1
 40
1
 10
173.085196
 20
236.952508
 30
0
 10
173.682378
 20
236.952508
 30
0
 10
174.061684
 20
237.331532
 30
0
 10
174.194329
 20
237.720152
 30
0
  0
SPLINE
  5
43
  8
0
 62
256
370
-1
  6
ByLayer
100
AcDbEntity
100
AcDbSpline
 70
8
 71
3
 72
8
 73
4
 74
0
 40
0
 40
0
 40
0
 40
0
 40
1
 40
1
 40
1
 40
1
 10
174.194329
 20
237.720152
 30
0
 10
174.222833
 20
237.805383
 30
0
 10
174.241742
 20
237.900210
 30
0
 10
174.241742
 20
237.985441
 30
0
0
LINE
8
2
62
4
10
174.241742
20
237.985441
30
0
11
174.241742
21
238.781590
31
0
0
LINE
8
2
62
4
10
174.241742
20
238.781590
30
0
11
174.241742
21
238.781872
31
0
0
ENDSEC
0
EOF

